<?xml version="1.0" encoding="UTF-8"?> <!-- Generator: Adobe Illustrator 23.0.4, SVG Export Plug-In . SVG Version: 6.00 Build 0) --> <svg xmlns="http://www.w3.org/2000/svg" xmlns:xlink="http://www.w3.org/1999/xlink" id="Layer_1" x="0px" y="0px" viewBox="0 0 245 75.7" style="enable-background:new 0 0 245 75.7;" xml:space="preserve"> <style type="text/css"> .st0{fill:#13669F;} .st1{fill:#0F4B77;} .st2{fill:#FFC908;} .st3{fill:#5CC19D;} .st4{fill:#ED1C24;} </style> <g> <path class="st0" d="M82.4,45.6v3.6h4.2v1h-4.2v4.7h-1.1V44.5h6.3v1H82.4z"></path> <path class="st0" d="M89.9,49.7c0-3.1,2.4-5.4,5.5-5.4c3.1,0,5.5,2.3,5.5,5.4s-2.4,5.4-5.5,5.4C92.3,55.1,89.9,52.8,89.9,49.7z M99.7,49.7c0-2.5-1.9-4.3-4.3-4.3c-2.4,0-4.3,1.8-4.3,4.3c0,2.5,1.9,4.3,4.3,4.3C97.8,54,99.7,52.2,99.7,49.7z"></path> <path class="st0" d="M105.6,44.5v6.3c0,1.9,1.3,3.2,3.2,3.2c1.9,0,3.2-1.3,3.2-3.2v-6.3h1.1v6.3c0,2.5-1.7,4.2-4.3,4.2 c-2.6,0-4.3-1.7-4.3-4.2v-6.3H105.6z"></path> <path class="st0" d="M125.8,44.5V55h-0.5l-6.7-8.2v8.1h-1.1V44.5h0.5l6.7,8.2v-8.2H125.8z"></path> <path class="st0" d="M139.6,49.7c0,3.1-2.1,5.2-5.4,5.2h-3.9V44.5h3.9C137.4,44.5,139.6,46.6,139.6,49.7z M138.4,49.7 c0-2.5-1.7-4.2-4.2-4.2h-2.8v8.3h2.8C136.8,53.9,138.4,52.2,138.4,49.7z"></path> <path class="st0" d="M151.9,54.8L151.9,54.8l-1.2,0.1l-1.1-2.3H144l-1.1,2.3h-1.1l0-0.1l4.8-10.2h0.5L151.9,54.8z M149.1,51.5 l-2.3-5.1l-2.4,5.1H149.1z"></path> <path class="st0" d="M157.4,54.9h-1.1v-9.3h-3.4v-1h8v1h-3.4V54.9z"></path> <path class="st0" d="M165.2,44.5v10.3H164V44.5H165.2z"></path> <path class="st0" d="M168.9,49.7c0-3.1,2.4-5.4,5.5-5.4c3.1,0,5.5,2.3,5.5,5.4s-2.4,5.4-5.5,5.4C171.3,55.1,168.9,52.8,168.9,49.7z M178.7,49.7c0-2.5-1.9-4.3-4.3-4.3c-2.4,0-4.3,1.8-4.3,4.3c0,2.5,1.9,4.3,4.3,4.3C176.8,54,178.7,52.2,178.7,49.7z"></path> <path class="st0" d="M191.9,44.5V55h-0.5l-6.7-8.2v8.1h-1.1V44.5h0.5l6.7,8.2v-8.2H191.9z"></path> </g> <g> <path class="st0" d="M80.8,32.4c0-5.2,4.2-9.1,9.7-9.1c5.5,0,9.6,3.9,9.6,9.1c0,5.2-4.2,9.1-9.6,9.1C85,41.5,80.8,37.6,80.8,32.4z M95.9,32.4c0-3.1-2.4-5.3-5.3-5.3c-3,0-5.3,2.2-5.3,5.3c0,3.1,2.4,5.3,5.3,5.3C93.5,37.7,95.9,35.5,95.9,32.4z"></path> <path class="st0" d="M118.9,23.6v17.7h-2.6l-8.9-10.5v10.4h-4.2V23.6h2.6l8.9,10.5V23.6H118.9z"></path> <path class="st0" d="M127.2,27.1v3.7h6.7V34h-6.7v3.7h8.7v3.5H123V23.6h12.8v3.5H127.2z"></path> <path class="st0" d="M159.3,36.3c0,3-2.6,4.9-6.5,4.9h-7.9V23.6h7.5c3.7,0,5.9,1.8,5.9,4.6c0,1.7-0.9,3-2.3,3.7 C157.7,32.5,159.3,34,159.3,36.3z M151.9,26.7h-2.7v4.1h2.7c1.5,0,2.4-0.8,2.4-2.1C154.3,27.5,153.4,26.7,151.9,26.7z M155.1,35.8 c0-1.4-1.1-2.2-2.7-2.2h-3.2v4.5h3C154,38.1,155.1,37.2,155.1,35.8z"></path> <path class="st0" d="M170.3,34.7v6.5h-4.2v-6.4l-6.6-10.9l0.2-0.3h4.2l4.4,7.5l4.2-7.5h4.1l0.2,0.3L170.3,34.7z"></path> <path class="st0" d="M183.2,32.4c0-5.2,4.2-9.1,9.7-9.1c5.5,0,9.6,3.9,9.6,9.1c0,5.2-4.2,9.1-9.6,9.1 C187.4,41.5,183.2,37.6,183.2,32.4z M198.2,32.4c0-3.1-2.4-5.3-5.3-5.3c-3,0-5.3,2.2-5.3,5.3c0,3.1,2.4,5.3,5.3,5.3 C195.9,37.7,198.2,35.5,198.2,32.4z"></path> <path class="st0" d="M221.3,23.6v17.7h-2.6l-8.9-10.5v10.4h-4.2V23.6h2.6l8.9,10.5V23.6H221.3z"></path> <path class="st0" d="M229.6,27.1v3.7h6.7V34h-6.7v3.7h8.7v3.5h-12.9V23.6h12.8v3.5H229.6z"></path> </g> <g> <path class="st1" d="M30,31.7c-0.1-1.9-1.7-3.4-3.6-3.3c-1.9,0.1-3.4,1.7-3.3,3.6c0.1,1.9,1.7,3.4,3.6,3.3 C28.6,35.3,30.1,33.6,30,31.7z"></path> <path class="st1" d="M30,31.7c-0.1-1.9-1.7-3.4-3.6-3.3c-1.9,0.1-3.4,1.7-3.3,3.6c0.1,1.9,1.7,3.4,3.6,3.3 C28.6,35.3,30.1,33.6,30,31.7z"></path> <path class="st2" d="M50.6,31.7c0.1-1.9,1.7-3.4,3.6-3.3c1.9,0.1,3.4,1.7,3.3,3.6c-0.1,1.9-1.7,3.4-3.6,3.3 C52,35.3,50.5,33.6,50.6,31.7z"></path> <path class="st3" d="M43.8,39c-0.1-1.9-1.7-3.4-3.6-3.3c-1.9,0.1-3.4,1.7-3.3,3.6c0.1,1.9,1.7,3.4,3.6,3.3 C42.4,42.5,43.9,40.9,43.8,39z"></path> <path class="st3" d="M54.1,38.9c-2.2,3-7.6,5.1-13.8,5.1c-6.2,0-11.5-2.1-13.8-5.1c0.4,3.2,4.4,6.7,9.8,7.9l4,11.9l4-11.9 C49.7,45.6,53.7,42.1,54.1,38.9z"></path> <path class="st4" d="M42.3,19.4c-0.9,0-1.7,0.4-2.3,1.1c-0.6-0.7-1.4-1.1-2.3-1.1c-1.8,0-3.2,1.6-3.2,3.6c0,3.7,5.5,6.4,5.5,6.4 s5.5-3,5.5-6.4C45.6,21,44.1,19.4,42.3,19.4z"></path> <path class="st2" d="M59.9,35.8c-3.6,1.5-9.1,2-16.8-2.6c0,0,3,2.3,5.1,6.4c0.3,0.6,0.6,1.3,0.9,2c2-0.8,3.5-1.9,4.5-3.2 c0.1-0.2,0.3-0.3,0.5-0.3c0.1,0,0.2,0,0.3,0c0.3,0.1,0.5,0.4,0.4,0.7c-0.3,2.3-2.1,4.5-4.7,6.2c0.6,3.4,0.2,7.5-1.9,12.1 c0,0,9.3-2.1,10.8-18.2c0,0.2,3.5-1.5,6.2-7.5C65.1,31.6,63.5,34.3,59.9,35.8z"></path> <path class="st1" d="M20.7,35.8c3.6,1.5,9.1,2,16.8-2.6c0,0-3,2.3-5.1,6.4c-0.3,0.6-0.6,1.3-0.9,2c-2-0.8-3.5-1.9-4.5-3.2 c-0.1-0.2-0.3-0.3-0.5-0.3c-0.1,0-0.2,0-0.3,0c-0.3,0.1-0.5,0.4-0.4,0.7c0.3,2.3,2.1,4.5,4.7,6.2c-0.6,3.4-0.2,7.5,1.9,12.1 c0,0-9.3-2.1-10.8-18.2c0,0.2-3.5-1.5-6.2-7.5C15.5,31.6,17.1,34.3,20.7,35.8z"></path> <path class="st0" d="M40,3.8C21.1,3.8,5.8,19.1,5.8,38.1C5.8,57,21.1,72.3,40,72.3c18.9,0,34.2-15.3,34.2-34.2 C74.2,19.1,58.9,3.8,40,3.8z M62.8,36.7c0,0.5,0,0.9,0,1.4c0,12.6-10.2,22.9-22.9,22.9c-12.6,0-22.9-10.2-22.9-22.9 c0-0.7,0-1.4,0.1-2.1c-0.8-1.1-1.6-2.4-2.3-4.1c-0.1-0.3,0-0.7,0.3-0.9c0.1-0.1,0.2-0.1,0.3-0.1c0.2,0,0.5,0.1,0.6,0.3 c0,0,0.5,0.8,1.6,1.8C19.9,22.8,29.1,15.2,40,15.2c11.1,0,20.3,7.9,22.4,18.3c1.4-1.1,2.1-2.2,2.1-2.2c0.1-0.2,0.3-0.3,0.6-0.3 c0.1,0,0.2,0,0.3,0.1c0.3,0.2,0.4,0.5,0.3,0.9C64.8,33.9,63.8,35.5,62.8,36.7z"></path> </g> </svg> 