<?xml version="1.0" encoding="UTF-8"?>
<svg width="210mm" height="297mm" version="1.1" viewBox="0 0 210 297" xmlns="http://www.w3.org/2000/svg" xmlns:cc="http://creativecommons.org/ns#" xmlns:dc="http://purl.org/dc/elements/1.1/" xmlns:rdf="http://www.w3.org/1999/02/22-rdf-syntax-ns#">
 <metadata>
  <rdf:RDF>
   <cc:Work rdf:about="">
    <dc:format>image/svg+xml</dc:format>
    <dc:type rdf:resource="http://purl.org/dc/dcmitype/StillImage"/>
    <dc:title/>
   </cc:Work>
  </rdf:RDF>
 </metadata>
 <path d="m128.48 198.68s1.1221 28.053 5.6106 38.713c4.4884 10.66 6.1716 10.099 6.1716 10.099s7.2937-6.1716 11.782-3.3664c-2.2442-3.9274-9.538-15.149-10.66-53.3-12.904 7.8548-12.904 7.8548-12.904 7.8548z" fill="#2f2424" stroke="#000" stroke-width=".26458px"/>
 <g opacity=".5">
  <a/>
 </g>
 <g>
  <path d="m128.8 104.26c0.40513-3.536 1.0024-12.207 1.0024-12.207 1.0377-8.8248-2.6122-8.6812-4.3172-16.46 0 0 4.5357-15.875 12.095-23.435 7.5595-7.5595 25.702-13.607 25.702-13.607s1.9768 19.539-1.8029 24.83c0 0 17.389 19.542 14.596 37.626 4.5357 21.923 9.8854 49.424-1.4539 63.032-11.339 13.607-40.821 35.53-55.185 37.042-14.363 1.5119-23.435 1.5119-22.679 0.75595 0.75595-0.75595-9.6434 7.3124-15.408 14.942l-11.866 15.705s-2.2087-8.7236-0.69683-10.236c1.5119-1.5119-17.387 35.53-18.143 40.065-0.75595 4.5357-2.2679-9.8274-1.5119-14.363 0.75595-4.5357-14.363 40.065-21.923 41.577-7.5595 1.5119-4.5357-6.8036-8.3155-1.5119-3.7798 5.2917-5.2917 0.75596-7.5595 0-2.2679-0.75595 7.5595-19.655 8.3155-21.167 0.75595-1.5119-1.5119-2.2678 3.7798-8.3155 5.2917-6.0476 6.8036-8.3155 6.8036-8.3155s1.5119-7.5595 5.2917-12.095c3.7798-4.5357 6.8036-8.3155 6.8036-8.3155s3.0238-9.0714 9.8274-16.631c6.8036-7.5595 15.119-18.143 13.607-21.167-1.5119-3.0238 3.3705-33.318 26.632-55.3 23.261-21.982 27.545-27.925 36.403-32.45z" fill="#b1040e"/>
 </g>
 <g>
  <path d="m128.8 104.26 0.32325 7.4144s17.449 2.7919 20.939-3.4899c1.7449-8.0268 1.396-21.986 1.396-22.335 0-0.34899 3.2403-3.3578 6.6308-12.913-5.3343-6.0649-13.262-3.8389-13.611-1.047-6.5817-2.4313-9.1892-3.2421-16.252-2.5799l-3.6402 9.5596s6.3333 18.325 4.2136 25.391z" fill="#2f2424"/>
 </g>
 <g>
  <ellipse cx="150.07" cy="75.905" rx="4.1879" ry="4.0134" opacity=".87138" stroke="#fff" stroke-linejoin="round" stroke-width=".3"/>
 </g>
 <g fill="#e98300">
  <path d="m130.17 72.376s-8.4158 3.3663-10.099 9.538c8.4158-2.8053 19.076-1.1221 19.076-1.1221s1.1221-2.8053-8.9769-8.4158z"/>
  <path d="m139.17 92.045c-16.271-2.8053-10.66 0-16.271-2.8053 0.56105-7.8548 16.271-8.4159 16.271-8.4159s5.6106 5.0495 0 11.221z"/>
 </g>
 <circle cx="149.37" cy="74.34" r="1.2215" fill="#fff" opacity=".87138"/>
 <g display="none">
  <path d="m109.41 202.14c19.076 11.782 19.076 12.343 19.076 12.343s4.4884 2.2442 2.8053 6.7327c-1.6832 4.4884-2.2442 6.1716 0.56106 10.099 2.2442-5.0495 0.56106-11.782 6.7327-12.904 6.1716-1.1221 7.2937 1.6832 10.66 6.1716-2.8675-8.7772-2.5019-10.025-15.149-11.782l-19.076-12.343z" fill="#916f6f" stroke="#000" stroke-width=".26458px"/>
 </g>
</svg>
