<?xml version="1.0" standalone="no"?>
<!DOCTYPE svg PUBLIC "-//W3C//DTD SVG 20010904//EN"
 "http://www.w3.org/TR/2001/REC-SVG-20010904/DTD/svg10.dtd">
<svg version="1.0" xmlns="http://www.w3.org/2000/svg"
 width="444.000000pt" height="442.000000pt" viewBox="0 0 444.000000 442.000000"
 preserveAspectRatio="xMidYMid meet">

<g transform="translate(0.000000,442.000000) scale(0.100000,-0.100000)"
fill="#000000" stroke="none">
<path d="M0 2210 l0 -2210 2220 0 2220 0 0 2210 0 2210 -2220 0 -2220 0 0
-2210z m3467 1834 c308 -208 564 -496 731 -822 52 -101 61 -127 42 -134 -6 -2
-131 -201 -279 -443 l-268 -440 -294 -97 c-162 -53 -688 -226 -1169 -383 -481
-158 -879 -291 -884 -295 -6 -6 24 -175 76 -430 l86 -420 -324 0 c-178 0 -324
4 -324 8 0 4 32 165 70 357 39 192 70 355 70 363 0 9 -6 12 -16 8 -68 -26 -68
-24 0 90 l64 109 61 315 c34 173 65 322 68 330 3 8 20 -54 38 -138 18 -84 35
-155 38 -158 7 -7 -56 -109 602 976 312 514 570 938 574 942 3 4 209 73 456
154 248 80 454 153 458 160 4 8 12 14 17 14 5 0 53 -30 107 -66z"/>
</g>
</svg>
