<svg xmlns="http://www.w3.org/2000/svg" width="287.963" height="288.156"><path fill-rule="evenodd" clip-rule="evenodd" fill="#303F50" d="M118.131 285.592c-20.791-3.637-39.736-11.707-56.992-23.798-15.905-11.145-28.963-25.02-39.225-41.482-10.478-16.81-17.308-34.998-20.167-54.646C.654 158.151-.108 150.622.011 143.02c.322-20.521 4.59-40.141 13.125-58.851 7.683-16.843 18.198-31.676 31.598-44.366C66.12 19.55 91.444 6.839 120.497 2.027c30.88-5.115 60.504-.53 88.43 13.553 28.35 14.299 49.68 35.904 63.949 64.26 7.498 14.9 12.078 30.733 14.074 47.381 2.451 20.458.4 40.389-5.592 60.006-1.016.946-1.969.688-2.918-.121-.914-.778-1.764-1.625-2.609-2.473-23.082-23.111-46.438-45.955-69.193-69.384-16.145-16.624-32.709-32.821-48.936-49.358-.982-1-2.025-1.993-2.734-3.159-.98-1.608-2.266-2.5-4.065-2.781-1.079-.619-1.621-1.744-2.443-2.608-2.939-3.093-6.182-3.029-9.005.211-.922 1.058-1.65 2.255-2.355 3.467-13.67 23.489-27.121 47.104-40.702 70.644-14.331 24.839-28.558 49.735-42.932 74.549-.601 1.038-1.131 2.116-1.635 3.205-1.988 4.299-1.403 6.382 2.55 9.086.425.291.767.632.985 1.095.145.902.525 1.6 1.224 2.287 19.89 19.55 39.499 39.381 59.207 59.113 1.19 1.192 3.493 2.095 2.334 4.592z"/><path fill-rule="evenodd" clip-rule="evenodd" fill="#222E3B" d="M118.131 285.592c-.937-1.033-1.831-2.108-2.816-3.095-19.767-19.781-39.553-39.545-59.283-59.363-.696-.699-2.558-1.155-1.363-2.871.643-1.319 1.896-1.321 3.089-1.396 1.696-.106 3.397-.06 5.096-.06 54.372-.003 108.742-.001 163.113-.004 1.6 0 3.201.064 4.797-.066 5.621-.464 7.807-4.034 5.455-9.142-1.797-3.904-4.135-7.529-6.273-11.255-21.133-36.834-42.393-73.595-63.531-110.426-4.824-8.406-9.705-16.78-14.44-25.237-.664-1.187-1.652-2.418-.188-3.74 1.389-.264 1.902.942 2.626 1.666 16.471 16.434 33.143 32.676 49.313 49.402 24.361 25.198 49.486 49.629 74.113 74.557 1.035 1.049 1.914 2.35 3.52 2.666-5.387 16.923-13.533 32.388-24.568 46.309-14.992 18.913-33.691 32.971-55.762 42.675-13.563 5.964-27.752 9.495-42.404 11.133-13.56 1.517-27.085.891-40.494-1.753z"/><path fill-rule="evenodd" clip-rule="evenodd" fill="#D3D388" d="M151.787 58.937c2.814 5.074 5.57 10.182 8.451 15.216 6.373 11.132 12.807 22.229 19.219 33.337 7.254 12.563 14.521 25.118 21.76 37.688 6.549 11.369 13.09 22.742 19.594 34.136 5.674 9.938 11.467 19.815 16.879 29.896 3.852 7.174-1.27 11.102-6.658 11.11-8.299.013-16.596.029-24.895.025-50.488-.025-100.978-.056-151.466-.084-6.06-2.855-7.255-5.995-3.907-12.024 6.504-11.712 13.251-23.29 19.915-34.914a13756.536 13756.536 0 0117.544-30.512c7.237-12.55 14.513-25.078 21.736-37.636 6.585-11.448 13.105-22.933 19.687-34.382 2.407-4.187 4.938-8.302 7.359-12.481 3.802-6.564 10.15-6.67 13.894-.141.183.321.586.514.888.766z"/><path fill-rule="evenodd" clip-rule="evenodd" fill="#2C353F" d="M206.599 198.545H81.293c3.948-6.938 7.748-13.684 11.612-20.392 7.174-12.453 14.393-24.879 21.581-37.324a25762.04 25762.04 0 0021.978-38.121c2.112-3.67 4.231-7.339 6.22-11.076.994-1.869 1.524-2.024 2.654-.041a15113.07 15113.07 0 0031.108 54.332c9.908 17.237 19.859 34.449 29.785 51.675.135.236.202.513.368.947z"/></svg>