<?xml version="1.0" standalone="no"?>
<!DOCTYPE svg PUBLIC "-//W3C//DTD SVG 20010904//EN"
 "http://www.w3.org/TR/2001/REC-SVG-20010904/DTD/svg10.dtd">
<svg version="1.0" xmlns="http://www.w3.org/2000/svg"
 width="444.000000pt" height="442.000000pt" viewBox="0 0 444.000000 442.000000"
 preserveAspectRatio="xMidYMid meet">
<metadata>
Created by potrace 1.15, written by Peter Selinger 2001-2017
</metadata>
<g transform="translate(0.000000,442.000000) scale(0.100000,-0.100000)"
fill="#000000" stroke="none">
<path d="M1945 4386 c-506 -66 -939 -279 -1292 -637 -175 -178 -284 -329 -393
-544 -246 -486 -306 -1029 -171 -1565 73 -289 230 -601 421 -835 70 -86 242
-256 330 -326 218 -174 516 -326 781 -400 198 -55 381 -79 599 -79 260 0 460
32 703 113 805 270 1384 981 1487 1827 29 240 5 581 -59 822 -36 139 -102 319
-115 315 -5 -2 -129 -200 -275 -440 l-266 -437 -470 -155 c-258 -84 -787 -258
-1174 -384 -388 -127 -706 -232 -707 -234 -2 -1 35 -189 82 -417 46 -228 84
-420 84 -427 0 -10 -65 -13 -324 -13 -179 0 -327 3 -329 8 -5 6 125 670 139
715 5 17 3 19 -19 13 -14 -3 -32 -9 -41 -12 -27 -10 -19 11 43 113 l59 98 67
335 c37 184 70 339 74 343 5 4 20 -52 35 -125 43 -216 34 -205 88 -117 25 40
285 468 578 949 292 481 539 882 548 891 10 9 216 81 460 160 279 91 442 148
442 156 0 18 -245 136 -371 179 -143 49 -231 71 -384 100 -112 21 -500 27
-630 10z"/>
</g>
</svg>
