<?xml version="1.0" encoding="iso-8859-1"?>
<!-- Generator: Adobe Illustrator 19.0.0, SVG Export Plug-In . SVG Version: 6.00 Build 0)  -->
<svg version="1.1" id="Capa_1" xmlns="http://www.w3.org/2000/svg" xmlns:xlink="http://www.w3.org/1999/xlink" x="0px" y="0px"
	 viewBox="0 0 512 512" style="enable-background:new 0 0 512 512;" xml:space="preserve">
<ellipse style="fill:#FF5E6B;" cx="422.03" cy="300.95" rx="82.908" ry="77.75"/>
<ellipse style="fill:#E63E4C;" cx="307.11" cy="300.95" rx="82.908" ry="77.75"/>
<ellipse style="fill:#FF5E6B;" cx="132.19" cy="282.95" rx="124.25" ry="116.53"/>
<path style="fill:#E63E4C;" d="M142.186,379.482c-68.622,0-124.252-52.17-124.252-116.526c0-13.75,2.547-26.941,7.21-39.189
	c-10.93,17.348-17.21,37.579-17.21,59.189c0,64.356,55.629,116.526,124.252,116.526c53.96,0,99.879-32.262,117.041-77.337
	C227.606,356.46,187.766,379.482,142.186,379.482z"/>
<path d="M44.6,265.599c-4.142,0-7.5,3.358-7.5,7.5v10.158c0,4.142,3.358,7.5,7.5,7.5s7.5-3.358,7.5-7.5v-10.158
	C52.1,268.957,48.742,265.599,44.6,265.599z"/>
<path d="M156.852,265.599c-4.142,0-7.5,3.358-7.5,7.5v10.158c0,4.142,3.358,7.5,7.5,7.5s7.5-3.358,7.5-7.5v-10.158
	C164.352,268.957,160.994,265.599,156.852,265.599z"/>
<path d="M119.515,276.903c-3.118-2.727-7.856-2.409-10.583,0.71c-1.981,2.266-4.972,3.565-8.206,3.565s-6.226-1.299-8.207-3.565
	c-2.727-3.119-7.464-3.436-10.583-0.71c-3.118,2.726-3.436,7.464-0.71,10.583c4.83,5.524,11.937,8.692,19.5,8.692
	s14.669-3.168,19.499-8.692C122.951,284.368,122.633,279.629,119.515,276.903z"/>
<path d="M512,300.951c0-47.009-40.557-85.253-90.408-85.253c-21.137,0-41.287,6.888-57.458,19.481
	c-15.632-12.165-35.657-19.481-57.46-19.481c-19.815,0-38.761,6.056-54.377,17.184c-7.742-16.498-19.289-31.363-33.982-43.428
	c-7.31-6.003-15.253-11.178-23.662-15.479c0.35-22.3-6.626-59.775-49.267-91.977c-3.306-2.496-8.009-1.84-10.505,1.465
	c-2.497,3.306-1.84,8.009,1.465,10.505c33.578,25.358,41.984,53.951,43.158,73.395c-15.099-5.525-31.276-8.433-47.752-8.433
	c-15.093,0-29.597,2.408-43.113,6.827c-7.604-20.23-26.285-49.925-71.957-66.423c-3.899-1.408-8.196,0.609-9.602,4.506
	c-1.407,3.896,0.61,8.194,4.505,9.602c38.979,14.08,55.857,38.074,63.092,57.741C30.53,191.238,0,233.804,0,282.956
	c0,68.388,59.104,124.026,131.751,124.026c43.308,0,82.141-19.739,106.242-50.602c3.433,3.784,7.186,7.248,11.205,10.373
	c-5.707,13.957-10.497,34.104-6.501,58.477c0.603,3.677,3.784,6.288,7.392,6.288c4.561,0,8.149-4.208,7.411-8.714
	c-3.198-19.512,0.121-35.858,4.54-47.707c13.401,7.178,28.721,11.107,44.634,11.107c1.421,0,2.836-0.043,4.248-0.106
	c2.403,10.144,3.587,22.628,1.28,36.705c-0.73,4.456,2.895,8.715,7.411,8.715c3.608,0,6.79-2.611,7.392-6.288
	c2.566-15.654,1.468-29.535-1.059-41.013c14.043-2.911,27.14-8.94,38.181-17.5c11.166,8.697,24.229,14.662,38.209,17.523
	c-2.968,13.424-3.337,27.174-1.073,40.99c0.603,3.677,3.784,6.288,7.392,6.288c4.562,0,8.149-4.208,7.411-8.714
	c-2.03-12.385-1.61-24.701,1.229-36.696c1.428,0.063,2.861,0.096,4.299,0.096c16.195,0,31.407-4.04,44.569-11.102
	c4.225,11.409,7.837,27.99,4.606,47.701c-0.733,4.474,2.889,8.715,7.411,8.715c3.608,0,6.79-2.611,7.392-6.288
	c4.063-24.789-1.044-45.153-6.503-58.518C499.167,351.063,512,327.393,512,300.951z M469.823,349.424
	c-2.472-3.313-7.148-3.99-10.469-1.53c-3.32,2.46-4.017,7.152-1.568,10.481c0.038,0.052,0.819,1.14,1.988,3.121
	c-11.208,6.158-24.255,9.708-38.182,9.708c-3.104,0-6.182-0.179-9.226-0.525c-13.526-1.538-26.272-6.445-37.045-14.277
	c0.216-0.237,0.417-0.486,0.63-0.726c3.373-3.793,6.425-7.869,9.075-12.199c2.162-3.533,1.051-8.15-2.482-10.313
	c-3.464-2.118-8.194-0.988-10.316,2.484c-3.37,5.512-7.519,10.542-12.248,14.941c-10.449,9.72-23.78,16.428-38.284,19.194
	c-4.621-12.401-9.983-19.751-10.437-20.36c-2.471-3.312-7.148-3.99-10.468-1.531c-3.32,2.46-4.018,7.153-1.569,10.481
	c0.08,0.109,3.411,4.741,6.829,12.821c-15.902-0.122-31.049-4.873-43.557-13.312c-0.022-0.014-0.043-0.03-0.066-0.044
	c-5.873-3.971-11.163-8.753-15.673-14.253c3.647-6.129,6.756-12.591,9.274-19.331c3.241-8.673,5.462-17.733,6.59-26.924
	c0.504-4.111-2.419-7.853-6.531-8.358c-4.059-0.496-7.865,2.468-8.364,6.53c-1.539,12.536-5.403,24.732-11.342,35.876
	c-1.621,3.041-3.687,5.973-5.343,9.039c-20.691,31.159-57.649,51.562-99.287,51.562C67.375,391.981,15,343.073,15,282.956
	S67.375,173.93,131.751,173.93c28.387,0,55.749,9.63,77.044,27.117c16.371,13.444,28.303,30.788,34.598,49.963
	c1.776,5.411,3.077,10.97,3.935,16.599c0.604,3.963,4.566,6.84,8.52,6.296c4.062-0.559,6.938-4.505,6.33-8.536
	c-0.89-5.898-2.237-11.698-4.003-17.362c-0.069-0.221-0.127-0.447-0.197-0.668c13.615-10.764,30.721-16.641,48.696-16.641
	c20.651,0,39.384,7.779,53.016,20.351c13.895,12.814,22.392,30.909,22.392,49.902c0,3.029-0.232,6.187-0.691,9.387
	c-0.637,4.44,2.961,8.565,7.434,8.565c0.019,0,0.037-0.002,0.055-0.002c3.652-0.02,6.843-2.699,7.378-6.425
	c3.455-24.08-4.43-48.915-20.927-66.983c13.193-9.588,29.342-14.795,46.262-14.795c41.58,0,75.408,31.515,75.408,70.253
	c0,20.614-9.581,39.181-24.81,52.044C470.894,350.883,469.997,349.658,469.823,349.424z"/>
<g>
</g>
<g>
</g>
<g>
</g>
<g>
</g>
<g>
</g>
<g>
</g>
<g>
</g>
<g>
</g>
<g>
</g>
<g>
</g>
<g>
</g>
<g>
</g>
<g>
</g>
<g>
</g>
<g>
</g>
</svg>
