<?xml version="1.0"?>
<svg xmlns="http://www.w3.org/2000/svg" height="512px" viewBox="0 0 512 512" width="512px" class=""><g><path d="m126.304688 46.921875c-69.828126 43.394531-116.304688 120.792969-116.304688 209.042969 0 135.851562 110.132812 245.96875 246 245.96875 87.175781 0 163.765625-45.347656 207.457031-113.734375" fill="#ffd97d" data-original="#FFD97D" class="" style="fill:#F6FB57" data-old_color="#F6FB58"/><path d="m125.539062 47.398438c.257813-.160157.511719-.320313.765626-.476563-24.394532 38.1875-38.53125 83.558594-38.53125 132.230469 0 135.851562 110.128906 245.964844 246 245.964844 47.59375 0 92.03125-13.515626 129.6875-36.917969 9.289062-14.542969 17.09375-30.125 23.195312-46.539063-26.140625 9.46875-54.347656 14.632813-83.769531 14.632813-135.871094 0-246-110.128907-246-245.980469 0-30.128906 5.417969-59 15.34375-85.679688-16.453125 5.953126-32.085938 13.613282-46.691407 22.765626zm0 0" fill="#fdf29e" data-original="#FDF29E" class="" style="fill:#CECD2F" data-old_color="#CFCE30"/><path d="m87.773438 181.058594c.0625.699218.0625 0 .0625 0" fill="#fdf29e" data-original="#FDF29E" class="" style="fill:#CECD2F" data-old_color="#CFCE30"/><path d="m87.84375 191.367188c-4.519531 0-9.453125-3.207032-10.027344-9.378907-.511718-5.5 3.527344-10.375 9.027344-10.886719.472656-.042968.9375-.054687 1.398438-.035156 5.335937.214844 9.597656 4.605469 9.597656 9.992188 0 6.398437-4.925782 10.082031-9.554688 10.296875-.148437.007812-.296875.011719-.441406.011719zm9.886719-11.238282-9.957031.929688 9.957031-.925782zm0 0" data-original="#000000" class=""/><path d="m502 255.964844c0 30.140625-5.417969 59.015625-15.34375 85.695312-26.140625 9.46875-54.347656 14.628906-83.769531 14.628906-135.871094 0-246-110.125-246-245.976562 0-30.128906 5.417969-59 15.34375-85.679688 26.140625-9.472656 54.347656-14.632812 83.769531-14.632812 135.859375 0 246 110.128906 246 245.964844zm0 0" fill="#4e7ba6" data-original="#4E7BA6" class="active-path" style="fill:#2C495F" data-old_color="#2C485E"/><path d="m512 255.964844c0-68.367188-26.628906-132.644532-74.984375-180.992188-48.351563-48.347656-112.636719-74.972656-181.015625-74.972656-29.933594 0-59.25 5.117188-87.132812 15.214844-.011719.003906-.027344.007812-.039063.011718-16.617187 6.015626-32.667969 13.804688-47.726563 23.15625-.019531.011719-.039062.023438-.058593.035157-.003907.003906-.011719.007812-.015625.007812-.015625.011719-.03125.019531-.046875.03125l-.140625.085938c-.140625.089843-.28125.175781-.421875.261719-36.035157 22.539062-66.15625 53.949218-87.144531 90.878906-21.765626 38.300781-33.273438 81.96875-33.273438 126.28125 0 68.375 26.628906 132.65625 74.976562 181 48.351563 48.34375 112.640626 74.96875 181.023438 74.96875 43.765625 0 86.960938-11.238282 124.921875-32.496094 36.777344-20.597656 68.226563-50.277344 90.945313-85.828125.003906-.007813.011718-.015625.019531-.027344 9.734375-15.238281 17.855469-31.535156 24.140625-48.4375 0-.003906.003906-.007812.003906-.011719 10.597656-28.484374 15.96875-58.484374 15.96875-89.167968zm-20 0c0 26.730468-4.417969 52.890625-13.140625 77.835937-24.386719 8.289063-49.925781 12.488281-75.972656 12.488281-130.132813 0-236-105.855468-236-235.976562 0-26.722656 4.417969-52.878906 13.140625-77.820312 24.382812-8.289063 49.921875-12.492188 75.972656-12.492188 130.132812 0 236 105.855469 236 235.964844zm-236 235.96875c-130.132812 0-236-105.855469-236-235.96875 0-67.5625 28.210938-130.269532 77.09375-174.5625-5.367188 12.980468-9.652344 26.40625-12.820312 40.183594-1.238282 5.382812 2.125 10.75 7.503906 11.984374.753906.175782 1.507812.257813 2.25.257813 4.554687 0 8.671875-3.132813 9.738281-7.761719 5.855469-25.476562 15.859375-49.632812 29.753906-71.84375 7.289063-4.433594 14.824219-8.46875 22.550781-12.085937-6.101562 22.09375-9.183593 44.941406-9.183593 68.175781 0 68.375 26.625 132.65625 74.976562 181.003906 48.351563 48.347656 112.640625 74.972656 181.023438 74.972656 22.503906 0 44.660156-2.890624 66.125-8.617187-3.816407 7.964844-8.078125 15.726563-12.765625 23.222656-36.824219 22.394531-79.121094 34.222657-122.472656 34.222657-95.285157 0-180.71875-56.746094-217.652344-144.566407-5.699219-13.558593-10.140625-27.726562-13.195313-42.113281-1.148437-5.402344-6.453125-8.859375-11.863281-7.703125-5.402344 1.148437-8.847656 6.457031-7.703125 11.859375 3.320313 15.617188 8.140625 30.996094 14.328125 45.710938 19.296875 45.890624 51.363281 84.945312 92.726562 112.949218 42.390626 28.695313 91.964844 43.863282 143.359376 43.863282 32.699218 0 64.847656-6.207032 94.835937-18.160157-44.230469 47.546875-106.210937 74.976563-172.609375 74.976563zm0 0" data-original="#000000" class=""/><path d="m332.492188 117.113281 22.488281 38.082031 43.175781 9.617188-29.273438 33.152344 4.191407 44.027344-40.582031-17.59375-40.578126 17.59375 4.195313-44.027344-29.273437-33.152344 43.171874-9.617188zm0 0" fill="#fdf29e" data-original="#FDF29E" class="" style="fill:#CECD2F" data-old_color="#CFCE30"/><path d="m373.074219 251.992188c-1.347657 0-2.703125-.269532-3.976563-.824219l-36.605468-15.871094-36.601563 15.871094c-3.246094 1.40625-6.992187.996093-9.855469-1.085938-2.859375-2.078125-4.414062-5.515625-4.074218-9.039062l3.78125-39.707031-26.402344-29.902344c-2.34375-2.652344-3.109375-6.34375-2.015625-9.710938 1.089843-3.363281 3.882812-5.898437 7.335937-6.667968l38.941406-8.675782 20.28125-34.347656c1.800782-3.046875 5.074219-4.917969 8.609376-4.917969 3.539062 0 6.8125 1.871094 8.613281 4.917969l20.285156 34.347656 38.9375 8.675782c3.453125.769531 6.242187 3.304687 7.335937 6.667968 1.09375 3.367188.328126 7.058594-2.015624 9.710938l-26.402344 29.902344 3.78125 39.707031c.335937 3.523437-1.214844 6.960937-4.074219 9.039062-1.738281 1.261719-3.800781 1.910157-5.878906 1.910157zm-40.582031-37.59375c1.355468 0 2.710937.277343 3.980468.824218l25.042969 10.859375-2.589844-27.167969c-.261719-2.753906.628907-5.492187 2.460938-7.566406l18.0625-20.453125-26.640625-5.933593c-2.699219-.605469-5.03125-2.296876-6.4375-4.679688l-13.875-23.5-13.878906 23.5c-1.40625 2.382812-3.734376 4.074219-6.433594 4.679688l-26.640625 5.933593 18.0625 20.453125c1.832031 2.074219 2.722656 4.8125 2.460937 7.566406l-2.589844 27.167969 25.042969-10.859375c1.265625-.546875 2.621094-.824218 3.972657-.824218zm0 0" data-original="#000000" class=""/><path d="m265.808594 94.863281c-13.605469-3.523437-24.316406-14.234375-27.839844-27.835937-.355469-1.367188-2.125-1.367188-2.476562 0-3.523438 13.601562-14.238282 24.3125-27.84375 27.835937-1.363282.355469-1.363282 2.125 0 2.476563 13.609374 3.523437 24.320312 14.234375 27.84375 27.839844.351562 1.367187 2.121093 1.367187 2.476562 0 3.523438-13.605469 14.234375-24.316407 27.839844-27.839844 1.367187-.355469 1.367187-2.121094 0-2.476563zm0 0" fill="#ffd97d" data-original="#FFD97D" class="" style="fill:#F6FB57" data-old_color="#F6FB58"/><path d="m236.730469 136.203125c-5.132813 0-9.621094-3.503906-10.921875-8.515625-2.621094-10.128906-10.539063-18.046875-20.667969-20.667969-5.011719-1.296875-8.515625-5.785156-8.515625-10.914062-.003906-5.128907 3.496094-9.621094 8.511719-10.921875 10.128906-2.625 18.050781-10.542969 20.671875-20.664063 1.300781-5.015625 5.789062-8.519531 10.917968-8.519531 5.128907 0 9.621094 3.503906 10.917969 8.519531 2.625 10.121094 10.542969 18.039063 20.667969 20.664063h.007812c5.011719 1.300781 8.515626 5.792968 8.511719 10.921875 0 5.128906-3.503906 9.617187-8.519531 10.914062-10.125 2.621094-18.042969 10.542969-20.667969 20.664063-1.296875 5.015625-5.785156 8.519531-10.914062 8.519531zm-9.210938-40.101563c3.464844 2.644532 6.566407 5.746094 9.210938 9.210938 2.644531-3.464844 5.742187-6.566406 9.210937-9.210938-3.46875-2.644531-6.566406-5.742187-9.210937-9.210937-2.648438 3.46875-5.746094 6.566406-9.210938 9.210937zm35.777344 8.441407" data-original="#000000" class=""/><path d="m448.269531 284.828125c-13.609375-3.523437-24.320312-14.234375-27.84375-27.839844-.351562-1.363281-2.121093-1.363281-2.476562 0-3.523438 13.605469-14.234375 24.316407-27.839844 27.839844-1.367187.355469-1.367187 2.121094 0 2.476563 13.605469 3.523437 24.316406 14.234374 27.839844 27.835937.355469 1.367187 2.125 1.367187 2.476562 0 3.523438-13.601563 14.238281-24.3125 27.84375-27.835937 1.363281-.355469 1.363281-2.121094 0-2.476563zm0 0" fill="#ffd97d" data-original="#FFD97D" class="" style="fill:#F6FB57" data-old_color="#F6FB58"/><path d="m419.1875 326.167969c-5.128906 0-9.621094-3.503907-10.917969-8.519531-2.625-10.125-10.542969-18.042969-20.667969-20.664063-5.019531-1.300781-8.519531-5.792969-8.515624-10.921875 0-5.128906 3.503906-9.617188 8.515624-10.914062 10.125-2.625 18.046876-10.542969 20.667969-20.667969 1.300781-5.011719 5.789063-8.515625 10.917969-8.515625s9.621094 3.503906 10.917969 8.515625c2.625 10.125 10.542969 18.042969 20.667969 20.667969 5.011718 1.296874 8.515624 5.785156 8.519531 10.914062 0 5.128906-3.5 9.621094-8.515625 10.921875-10.128906 2.621094-18.046875 10.539063-20.671875 20.664063-1.296875 5.015624-5.785157 8.519531-10.917969 8.519531zm-9.210938-40.101563c3.46875 2.644532 6.566407 5.746094 9.210938 9.210938 2.648438-3.464844 5.746094-6.5625 9.210938-9.210938-3.464844-2.644531-6.566407-5.742187-9.210938-9.210937-2.644531 3.464843-5.742188 6.566406-9.210938 9.210937zm35.785157 8.441406" data-original="#000000" class=""/></g> </svg>
