<?xml version="1.0" encoding="UTF-8" standalone="no"?>
<svg
   xmlns:dc="http://purl.org/dc/elements/1.1/"
   xmlns:cc="http://creativecommons.org/ns#"
   xmlns:rdf="http://www.w3.org/1999/02/22-rdf-syntax-ns#"
   xmlns:svg="http://www.w3.org/2000/svg"
   xmlns="http://www.w3.org/2000/svg"
   xmlns:sodipodi="http://sodipodi.sourceforge.net/DTD/sodipodi-0.dtd"
   xmlns:inkscape="http://www.inkscape.org/namespaces/inkscape"
   version="1.1"
   id="svg29"
   xml:space="preserve"
   width="281.93533"
   height="84.349419"
   viewBox="0 0 281.93533 84.349419"
   sodipodi:docname="ICLR-logo.svg"
   inkscape:version="1.0.2 (e86c8708, 2021-01-15)"><metadata
     id="metadata268"><rdf:RDF><cc:Work
         rdf:about=""><dc:format>image/svg+xml</dc:format><dc:type
           rdf:resource="http://purl.org/dc/dcmitype/StillImage" /><dc:title></dc:title></cc:Work></rdf:RDF></metadata><sodipodi:namedview
     pagecolor="#ffffff"
     bordercolor="#666666"
     borderopacity="1"
     objecttolerance="10"
     gridtolerance="10"
     guidetolerance="10"
     inkscape:pageopacity="0"
     inkscape:pageshadow="2"
     inkscape:window-width="1817"
     inkscape:window-height="937"
     id="namedview266"
     showgrid="false"
     fit-margin-top="5"
     fit-margin-right="5"
     fit-margin-bottom="5"
     fit-margin-left="5"
     inkscape:zoom="3.6527778"
     inkscape:cx="147.18667"
     inkscape:cy="33.184086"
     inkscape:window-x="0"
     inkscape:window-y="25"
     inkscape:window-maximized="0"
     inkscape:current-layer="svg29" /><defs
     id="defs33"><linearGradient
       x1="0"
       y1="0"
       x2="1"
       y2="0"
       gradientUnits="userSpaceOnUse"
       gradientTransform="matrix(-35.480942,39.171368,39.171368,35.480942,44.017578,24.541992)"
       spreadMethod="pad"
       id="linearGradient59"><stop
         style="stop-opacity:1;stop-color:#58c9ed"
         offset="0"
         id="stop49" /><stop
         style="stop-opacity:1;stop-color:#58c9ed"
         offset="0.149313"
         id="stop51" /><stop
         style="stop-opacity:1;stop-color:#60c332"
         offset="0.469817"
         id="stop53" /><stop
         style="stop-opacity:1;stop-color:#cae31c"
         offset="0.828086"
         id="stop55" /><stop
         style="stop-opacity:1;stop-color:#cae31c"
         offset="1"
         id="stop57" /></linearGradient><clipPath
       clipPathUnits="userSpaceOnUse"
       id="clipPath69"><path
         d="M 0,108 H 216 V 0 H 0 Z"
         id="path67" /></clipPath></defs><g
     id="g35"
     transform="matrix(1.3333333,0,0,-1.3333333,3.1866667,105.18409)"><g
       id="g37"><g
         id="g39"><g
           id="g45"><g
             id="g47"><path
               d="m 14.723,46.304 4.631,-0.002 v 3.947 l 4.903,4.904 h 6.391 v 7.076 h -7.075 l -0.001,-6.391 -4.905,-4.904 h -3.944 z m -2.041,14.804 v 1.851 L 10.83,62.958 V 61.537 L 9.249,59.955 6.299,59.954 6.298,56.577 h 3.379 l 0.002,2.949 1.58,1.582 z m 28.936,-18.667 2.23,2.231 h 2.004 v 2.608 h -2.608 v -2.004 l -2.231,-2.23 -4.158,-0.002 v -4.76 l 4.763,10e-4 z m 6.538,-10.339 v 4.761 h -4.76 l -0.002,-4.158 -2.23,-2.23 H 39.16 v -2.609 h 2.611 v 2.005 l 2.228,2.23 z M 4.774,47.112 2.976,45.316 H 1.36 v -2.105 l 2.104,0.001 v 1.616 l 1.799,1.798 h 3.35 v 3.84 H 4.775 Z m 14.675,-12.67 -2.526,-2.527 h -4.71 v -5.394 h 5.393 l 0.002,4.709 2.528,2.529 h 2.268 l 0.001,2.954 h -2.956 z m 8.727,-2.439 -2.527,-2.526 h -2.268 l -0.002,-2.956 h 2.956 v 2.271 l 2.526,2.527 h 4.71 v 5.394 H 28.178 Z M 40.384,51.717 34.71,51.715 v -4.987 l -2.571,-2.572 h -3.945 v -4.631 h 4.63 v 3.946 l 2.571,2.571 h 4.989 z m -9.199,-5.016 v 4.978 l 3.051,3.051 h 5.374 v 6.061 L 33.552,60.79 V 55.416 L 30.499,52.363 H 25.521 V 47.388 L 22.578,44.441 H 19.682 L 19.68,40.859 h 3.582 v 2.898 l 2.945,2.944 z M 19.158,72.704 h -1.25 v -1.251 h 1.25 z m -2.221,-4.355 h -3.1 V 65.25 l 3.1,0.001 z m -3.935,3.139 h -2.299 v -2.299 h 2.299 z m 33.38,-43.944 h 2.112 v 2.113 H 46.382 Z M 12.685,44.417 h -2.111 v -2.111 h 2.111 z m 5.34,10.904 h -2.11 v -2.11 h 2.11 z m 5.651,14.384 h -4.342 v -4.344 h 4.342 z m 11.272,-2.017 h -4.205 v -4.204 h 4.205 z M 20.736,62.935 H 15.172 V 57.37 l 5.564,0.001 z M 48.477,51.903 45.681,51.901 v -2.794 l 2.796,10e-4 z m -4.875,5.463 -2.247,-10e-4 -10e-4,-2.247 h 2.248 z M 28.71,67.569 h -2.741 v -2.741 l 2.741,10e-4 z M 12.47,54.233 H 10.148 V 51.912 H 12.47 Z M 39.545,35.362 h -2.32 l -0.002,-2.323 h 2.324 z"
               style="fill:url(#linearGradient59);stroke:none"
               id="path61" /></g></g></g></g><g
       id="g63"><g
         id="g65"
         clip-path="url(#clipPath69)"><path
           d="m 59.051,31.396 h -2.965 v 2.966 h 2.965 z m -4.48,13.482 h -1.606 v 1.606 l 1.606,10e-4 z m -5.843,15.027 h -2.842 v 2.841 h 2.842 z m -7.684,7.766 h -1.653 v 1.651 h 1.653 z M 66.872,37.54 c -3.761,3.601 -0.976,3.62 -0.902,5.838 0.076,2.217 -1.781,2.631 -1.781,2.631 0.803,1.887 0.903,2.323 0.903,2.323 -1.705,1.303 -2.006,2.91 -2.006,2.91 1.704,2.607 2.904,5.602 2.904,5.602 0,0 -11.263,3.608 -15.514,6.334 -1.604,0.666 -1.203,3.145 -1.203,3.145 -11.034,14.144 -27.564,7.022 -27.564,7.022 v -0.402 c 0,0 1.256,-0.15 3.251,-0.709 l 2.768,-0.002 v -0.906 c 1.014,-0.381 2.113,-0.845 3.265,-1.411 h 6.52 L 37.511,65.78 c 0.708,-0.566 1.413,-1.176 2.109,-1.833 h 3.601 l 0.001,-3.983 c 0.889,-1.153 1.742,-2.407 2.54,-3.774 0.494,-0.773 0.951,-1.545 1.381,-2.32 h 3.234 v -4.543 l 2.588,-0.002 v -2.84 l -1.296,-0.018 c 0,0 0.014,-3.034 0.015,-4.498 L 48.24,41.968 v -3.497 h 3.498 v 3.406 H 55.24 V 35.264 H 52.632 C 53.275,26.02 50.98,19.376 50.98,19.376 c 1.405,3.913 5.116,7.173 10.201,8.997 4.788,1.715 9.454,5.566 5.691,9.167"
           style="fill:#41485b;fill-opacity:1;fill-rule:nonzero;stroke:none"
           id="path71" /><path
           d="M 86.615,64.836 H 96.916 V 34.454 H 86.615 Z"
           style="fill:#35414d;fill-opacity:1;fill-rule:nonzero;stroke:none"
           id="path73" /><g
           id="g75"
           transform="translate(126.4346,46.8887)"><path
             d="m 0,0 9.008,-2.486 c -0.606,-2.309 -1.559,-4.236 -2.86,-5.783 -1.3,-1.547 -2.915,-2.714 -4.843,-3.502 -1.929,-0.788 -4.383,-1.182 -7.363,-1.182 -3.615,0 -6.568,0.48 -8.86,1.439 -2.292,0.96 -4.269,2.648 -5.934,5.065 -1.664,2.416 -2.495,5.509 -2.495,9.278 0,5.026 1.463,8.889 4.39,11.588 2.928,2.699 7.068,4.049 12.423,4.049 4.189,0 7.483,-0.774 9.881,-2.321 C 5.744,14.597 7.525,12.221 8.69,9.016 L -0.386,7.171 c -0.317,0.926 -0.65,1.602 -0.998,2.031 -0.575,0.718 -1.278,1.271 -2.11,1.657 -0.832,0.387 -1.763,0.581 -2.791,0.581 -2.329,0 -4.114,-0.856 -5.355,-2.567 -0.937,-1.269 -1.406,-3.264 -1.406,-5.981 0,-3.369 0.56,-5.676 1.679,-6.925 1.119,-1.248 2.692,-1.873 4.72,-1.873 1.965,0 3.452,0.504 4.458,1.512 C -1.184,-3.385 -0.454,-1.92 0,0"
             style="fill:#35414d;fill-opacity:1;fill-rule:nonzero;stroke:none"
             id="path77" /></g><g
           id="g79"
           transform="translate(140.4336,64.8364)"><path
             d="m 0,0 h 10.278 v -22.901 h 16.041 v -7.481 H 0 Z"
             style="fill:#35414d;fill-opacity:1;fill-rule:nonzero;stroke:none"
             id="path81" /></g><g
           id="g83"
           transform="translate(181.8877,52.5264)"><path
             d="M 0,0 H 4.333 C 4.802,0 5.71,0.138 7.056,0.414 7.736,0.538 8.293,0.856 8.724,1.368 9.155,1.878 9.37,2.466 9.37,3.13 9.37,4.11 9.03,4.862 8.35,5.388 7.669,5.913 6.391,6.176 4.515,6.176 H 0 Z M -10.324,-18.072 V 12.31 H 6.807 c 3.176,0 5.604,-0.248 7.283,-0.746 1.679,-0.497 3.032,-1.419 4.061,-2.767 1.029,-1.347 1.543,-2.987 1.543,-4.921 0,-1.687 -0.393,-3.141 -1.18,-4.363 -0.787,-1.223 -1.87,-2.215 -3.247,-2.975 -0.877,-0.483 -2.081,-0.884 -3.61,-1.201 1.225,-0.374 2.116,-0.747 2.676,-1.12 0.378,-0.249 0.926,-0.782 1.644,-1.598 0.717,-0.815 1.198,-1.445 1.439,-1.888 l 4.978,-8.803 H 10.78 l -5.494,9.284 c -0.695,1.203 -1.315,1.982 -1.86,2.342 -0.741,0.47 -1.581,0.705 -2.519,0.705 H 0 v -12.331 z"
             style="fill:#35414d;fill-opacity:1;fill-rule:nonzero;stroke:none"
             id="path85" /></g><g
           id="g87"
           transform="translate(86.4365,30.3291)"><path
             d="M 0,0 H 118.375"
             style="fill:#35414d;fill-opacity:1;fill-rule:nonzero;stroke:none"
             id="path89" /></g><g
           id="g91"
           transform="translate(204.8115,29.8291)"><path
             d="m 0,0 h -118.375 c -0.276,0 -0.5,0.224 -0.5,0.5 0,0.276 0.224,0.5 0.5,0.5 H 0 C 0.276,1 0.5,0.776 0.5,0.5 0.5,0.224 0.276,0 0,0"
             style="fill:#35414d;fill-opacity:1;fill-rule:nonzero;stroke:none"
             id="path93" /></g></g></g></g></svg>
