<svg xmlns="http://www.w3.org/2000/svg" width="43.2" height="43.2" viewBox="0 0 43.2 43.2"><path fill="#5BBCC9" d="M24.5 14.8v9.6c0 1.4-.3 2.4-1.1 3.1-.7.7-1.7 1.1-2.8 1.1-1.1 0-2.1-.4-2.8-1.1-.7-.7-1.1-1.7-1.1-3.1v-9.6h-3.5v9.4c0 2.5.7 4.4 2.2 5.7 1.3 1.1 3.2 1.8 5.2 1.8s3.9-.7 5.2-1.8c1.5-1.3 2.2-3.2 2.2-5.7v-6.6l1.6-2.8h-5.1zM21.6 43.2H0V21.6C0 9.7 9.7 0 21.6 0c11.9 0 21.6 9.7 21.6 21.6 0 11.9-9.7 21.6-21.6 21.6M3.9 39.3h17.7c9.8 0 17.7-7.9 17.7-17.7 0-9.7-7.9-17.7-17.7-17.7-9.7 0-17.7 7.9-17.7 17.7v17.7z"/></svg>