<?xml version="1.0" encoding="utf-8"?>
<!-- Generator: Adobe Illustrator 19.0.0, SVG Export Plug-In . SVG Version: 6.00 Build 0)  -->
<svg version="1.1" id="Layer_1" xmlns="http://www.w3.org/2000/svg" xmlns:xlink="http://www.w3.org/1999/xlink" x="0px" y="0px"
	 viewBox="0 0 300 400" style="enable-background:new 0 0 300 400;" xml:space="preserve">
<style type="text/css">
	.st0{fill:none;}
</style>
<g>
	<path d="M137.5,224c1.3-2.5,2.7-4.9,3.8-7.4c1.1-2.5,1.8-5.1,2.6-7.6c0.3,0,0.5-0.1,0.8-0.1c2.6,4.9,6.4,8.4,11.1,11.2
		c0-1-0.4-1.8-0.9-2.4c-2.9-3.5-5.9-7-8.8-10.5c-0.4-0.5-0.2-1.7-0.2-2.5c0.1-0.9,0.3-1.8,0.5-2.6c0.1-1-0.2-2.7,0.3-3
		c4.3-2.9,9.4-5.2,13.6,0.8c1.7,2.4,4.2,3.3,6.8,2.2c2.4-1,3.3,0.2,4.5,1.7c0.8,1,1.5,2,2.3,2.9c0.3-0.1,0.6-0.3,1-0.4
		c-0.2-1.2-0.4-2.4-0.6-3.7c1.4-0.6,2.8-1.3,4.2-2c1.1,1,2.4,1.3,3.5,1.9c1.3,0.7,2.4,1.7,4,2.8c0.1-0.8,0.3-1.5,0.2-2.1
		c-0.5-2.1-7.1-5.1-9.1-4.2c-1.9,0.8-3.6,1.6-5.6-0.1c-0.7-0.6-2.6-0.3-3.7,0.1c-1.9,0.8-3.5,0.6-5.1-0.6c-2.5-1.9-4.9-4-7.6-6.2
		c2.9-7.5,3.6-16,3.8-24.9c1.8,1.2,2.9,2.6,4.2,3.9c3.5,3.6,7,7.2,10.6,10.6c4.3,4.1,9.7,6.6,15.2,8.4c3.9,1.3,8.3,1.8,12.4,1.5
		c3.8-0.3,7.7-1.7,11.2-3.3c3.2-1.4,7-2.8,7.5-7.3c0.1-0.8,1.2-1.5,1.7-2.2c0.6-0.8,1.1-1.7,1.6-2.5c-1.5,0.2-2.4,1-3.4,1.2
		c-1.9,0.4-3.1,1.2-4.1,2.9c-2.2,3.5-6,4.8-9.8,4.7c-6.1-0.3-12.2-1-18.2-2.1c-6.8-1.2-12.6-4.7-17.7-9.3c-3-2.7-5.9-5.5-9-8.2
		c-0.7-0.6-1.7-0.7-3-1.2c0-0.5,0-1.7,0-3.1c1.8,1.1,3.4,2.1,5,3.1c0.1-0.2,0.3-0.4,0.4-0.6c-0.2-0.4-0.3-0.8-0.5-1.2
		c-3.6-5.3-9-7.3-15-7.7c-2.7-0.2-5.6,0.2-8.2,1.1c-3.1,1-4.5,4.3-3.6,7c0.8-1.1,1.4-2.4,2.3-3.2c1.3-1.1,3.1-2.7,4.6-1
		c1.7,1.8,2.8,4.1,4,6.3c0.2,0.5-0.1,1.7-0.5,2c-2.8,1.9-5.7,3.6-8.5,5.4c-0.3,0.2-0.5,0.7-0.8,1c2.3,0.9,4.3,0,10.2-5.1
		c1.1,1,2.4,2,3.2,3.2c1,1.6,1.8,3.4,2.3,5.1c0.3,1.1,0.4,2.5,0,3.5c-1.7,4.7-5,8.2-8.6,11.5c-2.4,2.2-4.6,4-7.8,1.5
		c-0.2-0.2-0.7-0.1-1.1-0.1c-5.7,0.2-10.4,3.1-15.3,5.4c-1.4,0.7-1.7,2.3-0.1,3.5c1.8,1.4,3.4,2.9,5.4,4c3.7,2.1,5.9,2.8,9.8,0
		c1.6-1.1,3-2.5,4.9-4.1c0.2,3.1,0.6,5.8,0.5,8.5c-0.1,1.6-0.3,3.8-1.3,4.8c-2.4,2.5-3.6,5.4-4.1,8.7 M251.3,138.8
		c1.3,1.2,2.5,2.5,3.9,3.7c2.1,1.8,6.3,0.6,6.3-1.9c-0.1-2.2-0.9-4.5-1.9-6.5c-0.8-1.6-2.4-2.7-3.4-4.2c-0.4-0.7-0.2-1.8-0.3-2.7
		c0.9,0.4,2,0.7,2.6,1.4c0.8,1,1,2.5,1.8,3.6c2,2.6,3,6.8,7.8,5.2c1.1-0.4,2.6-0.9,2.9-1.7c0.4-1.2,0.3-2.9-0.3-4
		c-1.3-2.3-3-4.5-4.8-6.4c-1.4-1.6-1.2-2.7,0.1-4.2c1.3,0.9,2.4,1.8,3.7,2.5c0.4,0.2,1.1,0,1.7,0c-0.1-0.5-0.1-1.2-0.4-1.6
		c-0.8-0.9-1.7-2.2-2.8-2.5c-1.5-0.4-3.7-0.5-4.5,0.3c-1,1-1.5,3.3-1.1,4.7c0.5,1.8,2.1,3.2,3.3,4.8c1.1,1.5,2,3.1,0.3,4.4
		c-0.4,0.3-2.4-1.4-3.6-2.3c-0.3-0.2-0.3-0.6-0.5-1c-0.8-1.6-1.5-3.3-2.5-4.7c-1.3-1.9-4.2-2.5-6-1.3c-2.1,1.5-1.3,3.4-0.4,5
		c1.2,2.1,1.5,5,4.3,6c0.2,0.1,0.3,0.2,0.4,0.4c0.2,0.8,0.3,1.6,0.4,2.5c-0.9-0.1-2.2,0.2-2.5-0.3c-1.2-1.6-2.5-3.3-3-5.2
		c-0.6-2.3-1.8-3.7-3.8-4.5c-2.1-0.9-3.5,0.3-4,2.5c-0.6,2.9,1.4,4.7,2.3,6.9c0.5,1.4,0.9,2.8,1.4,4.2c-6.7-1.9-5.4-7.8-7.2-12.3
		c-0.4,3.5-0.8,7-0.2,10.3c0.5,2.9,1.8,5.9,5,7.2c2.4,1,5.4-0.4,5.7-3C252,142.4,251.6,140.6,251.3,138.8L251.3,138.8z M244.5,48.4
		c5.1-3.4,8.6-7.5,10.1-13.5c1.3-5.2,4.8-9,9.8-11.5c2.3-1.2,4-3.4,6-5.2c-0.3-0.3-0.6-0.7-0.8-1c-1.3,0.8-2.6,1.6-3.8,2.5
		c-3.7,2.6-7.5,5.1-11.2,7.9c-1.2,0.9-2.2,2.4-2.8,3.8c-1,2.5-0.9,5.7-2.5,7.6c-3.5,4.1-7.6,7.7-13.1,9c-3.2,0.8-6.4,1.6-9.2,2.2
		c-1.5-1.3-2.9-2.5-4.4-3.7c-6-4.9-12.8-7.6-20.6-7c-2.8,0.2-5.7,0.7-8.4,1.7c-8.9,3.3-15.2,9.6-19.4,18.1c-0.5,0.9-0.1,2.3-0.1,3.5
		c0,0.9,0.2,1.8,0.2,2.7c0,0.6,0.1,1.1,0.1,1.7c0.5-0.3,1.4-0.5,1.5-0.9c0.5-1.6,0.2-3.6,1.1-4.8c2.8-4,6-7.8,10.5-9.6
		c5.3-2.2,10.4-4.9,16.5-5.6c8-0.9,14.5,2.5,21.5,5.4c-2.4,3.8-4.4,7.1-6.6,10.6c-0.9-1.2-1.5-1.9-2-2.6c-0.6,0.8-0.7,1.4-0.6,2
		c1,4.8,4.6,7.5,8.5,9.7c2.8,1.6,7.7-0.3,8.1-4.6c-1.7,0.5-3.2,0.9-4.7,1.4c-1.2-2.8,1.2-7.9,4.8-10.5c1.3,1.6,2.6,3.2,4,4.7
		c0.6,0.6,1.3,1.2,2,1.7c0.3-0.5,1-1.1,0.9-1.4c-0.3-0.9-0.8-1.9-1.6-2.5c-1.4-1.1-3-2-4.6-3c0.1-0.3,0.2-0.7,0.3-1
		c6-1.6,10.9-6,17.7-6.3c-0.7,3.1-2,6.1,2.1,8.3c-0.2-1.1-0.5-1.7-0.5-2.3c0.2-1.7,0.1-3.8,1.1-5c1-1.3,3-1.6,4.9-0.6
		c1.5,0.8,3.3,1.3,5,1.6c3.5,0.5,7,0.8,10.5,1c0.9,0.1,1.9-0.3,2.8-0.4c-6.6-2.2-13.8-0.6-19.6-5c0.1-1.3,0.2-2.5,0.2-3.7
		C254.3,48.1,249.2,47.7,244.5,48.4z M103.1,133c0.3-0.2,0.7-0.4,1.2-0.7c3.6-2.3,7.4-4.5,9.6-8.4c1.7-2.9,2.3-5.9,0.3-8.9
		c-2.2-3.3-4.8-4-8.9-3.5c-2.4,0.3-2.8,2.1-3.9,3.4c-1.3,1.5-2.5,3.1-3.7,4.7c-1.4,1.8-1.5,3.7,0.1,5.4c1.7,1.9,4,2,6.2,1.3
		c2.6-0.9,4.3-4,3.2-5.9c-0.4-0.7-1.4-1.5-2-1.3c-1,0.2-1.9,1-2.7,1.7c-0.3,0.3-0.2,1.1-0.2,1.8c0.6-0.1,0.9-0.1,1.3-0.1
		c0.3,0,0.6-0.1,1.1-0.2c-1.6,2.1-3.1,2.6-4.4,1.3c-1.4-1.3-1-2.7,0.2-4c0.7-0.7,1.5-1.3,2.1-2.1c1.3-1.7,2.7-2,4.4-0.8
		c1.9,1.3,2.9,3.9,2.2,5.6c-2.2,5-8,7.4-13.2,5.3c-3.8-1.5-4.7-4.4-2.3-7.8c0.1-0.2,0.1-0.5,0.1-0.8c-2.4-0.9-3.2,0.8-3.6,2.5
		c-1.7,5.8,1.7,10.6,7.5,11.1c0.4,0,0.9,0.2,1.3,0.2c-1.2,0.8-2.4,0.9-3.6,1.3c-0.6,0.2-1.5,0.6-1.6,1c-0.1,0.8,0,1.9,0.5,2.4
		c1.2,1.3,2.7,2.2,4.2,3.3c2.6,2,5.4,2.7,8.6,1.2c2.7-1.2,5.4-2.3,8.2-3.2c2.7-0.9,5.2-2.7,8.4-1.4c1.8,0.7,4,1.3,5.7,0.9
		c2.4-0.5,3.2,1,4.3,2.3c0.7,0.9,1,2.1,1.5,3.1c-1,1.8-2.4,1.1-3.8,0.8c-0.8-0.2-1.7,0.7-2.6,1.1c0.5,0.8,1,2.1,1.7,2.3
		c1.5,0.3,3.5,0.7,4.7,0c3.8-2.1,7.4-4.6,10.9-7.2c1.2-0.8,1.3-2.3-0.5-3.6c-1.1,1-2.3,2.1-3.5,3.2c-0.7-1.4-1.5-2.5-1.8-3.8
		c-0.9-3.3-1.5-3.9-4.8-2.6c-4.5,1.8-8-0.9-12.3-1.6c1.3-2,2.2-3.6,3.3-5c0.8-0.9,2.2-2,3.1-1.7c2.2,0.6,4.4,1.6,6.4,2.8
		c3,1.7,6.6,1.2,8.9-1.7c0.7,1.4,1.3,2.7,2.1,3.8c0.4,0.5,1.3,0.9,2,0.9c0.3,0,1-0.9,1-1.3c0.1-4.3-3.5-9.8-7.8-9.1
		c-3.1,0.5-5.6,0.4-7.4-2.3c0,0-0.3,0.1-0.4,0.2c0.4,1.1,0.7,2.2,1.2,3.9c-1.9-1.5-3.2-2.6-4.6-3.6c-0.6-0.4-1.6-1-2.1-0.8
		c-4.1,1.7-8.4,3.7-9.2,8.6c-0.8,4.7-4,6.9-7,9.4C109.3,135.3,106.2,134.2,103.1,133z M42.7,136c-0.1,1.5,0,3.2-0.5,4.7
		c-1.6,4.9,0.1,9.3,3.1,12.7c5.4,6.1,12.8,9.3,20.5,11.2c8.7,2.2,12.6,8.6,14.6,16.2c1.6,6,3.7,11.1,9.3,14.3c2,1.1,6.8,1.1,8.3-0.3
		c-1.5-0.3-3.3-0.1-4.3-0.9c-2.8-2.3-5.5-4.9-7.9-7.6c-0.9-1-1-2.8-1.4-4.2c-0.7-2.6-1.1-5.4-2.2-7.9c-0.9-2.1-2.9-3.7-4-5.7
		c-2.2-4-5.1-6.8-9.5-8.1c-3.1-0.9-6.3-1.7-9.2-3.1c-7-3.2-10.7-9-12.5-16.2c-0.3-1.1,0.4-2.5,0.7-4c0.1,0.1-0.3-0.2-0.9-0.8
		c2.9-0.4,4.8,0.1,6.7,1.9c1.2,1.2,3.2,1.8,4.9,2.2c1.4,0.4,3,0.2,4.5,0.4c0.6,0.1,1.2,0.5,1.5,1c0.1,0.3-0.4,0.9-0.7,1.4
		c-0.7,1.1-1.3,2.1-2,3.2c0.3,0.2,0.6,0.5,0.9,0.7c1.9-1.4,4.9-2.4,5.6-4.2c1.3-3.7,2-7.9,0.1-11.8c-0.3-0.6-1.7-0.7-2.6-1.1
		c0.2,0.8,0.4,1.6,0.7,2.4c0.1,0.3,0.4,0.5,0.7,1c-0.6,0.1-1,0.2-1.2,0.1c-4.6-1.2-9-2.9-13.9-2.4c-0.5,0.1-1.4-0.9-1.6-1.5
		c-0.1-0.4,0.5-1.4,1-1.6c4.6-2.4,9.2-4.8,13.9-7.1c2.1-1,3.9-2.2,4.5-4.6c-4.4,2.2-8.7,4.3-13,6.3c-3.2,1.5-6.8,2.3-9.2,5.3
		c-0.3,0.4-0.9,0.5-1.5,0.5c-5,0.4-10,0.7-15,1c-0.8,0-1.9-0.6-2.2-1.3c-0.3-0.6,0-1.8,0.5-2.4c1.1-1.2,0.7-1.9-0.4-2.6
		c-1.7-1-3.5-1.9-5.3-2.7c-0.4-0.2-1,0-1.5,0c-0.3,0.3-0.6,0.6-0.9,0.8c6,1.1,4.4,6.2,6.1,9.8c-7.3,5.9-13.9,1.4-20.7-1.4
		c1.5,1.8,3,3.2,4.8,4.2c1.3,0.7,2.9,0.8,4.4,1.2c3.8,0.9,7.5,1.5,11.2-0.6c3.3-1.9,6.8-2,10.3-0.5C39.2,134.7,40.8,135.2,42.7,136z
		 M253,88.1c0.2,1.6-0.1,3.3,0.6,4.1c2.6,3.1,5.2,6.5,8.5,8.8c3.9,2.8,8.5,4.4,12.7,6.8c2,1.1,4.1,2.4,5.6,4.1
		c4.9,5.7,6.1,12.6,5.2,19.7c-0.5,4-1.2,8.6-5.9,10.6c-0.3,0.1-0.5,0.6-0.5,0.9c0.3,2-1.4,2.3-2.6,3c-1.6,1.1-3.2,2.2-4.8,3.3
		c-1.1,0.8-2.2,2.6-3.3,2.6c-4.8-0.1-7.7,3.6-11.7,5.3c-0.4,0.2-0.6,1-0.9,1.6c0.6,0.1,1.3,0.5,1.9,0.4c0.6-0.1,1.1-0.6,1.6-0.9
		c3.7-2.4,7.8-3.6,12-4.1c2.7-0.3,4.6-1.4,6.3-3.1c1.4-1.3,2.5-2.8,3.7-4.2c2.9-3.2,5.8-6.3,8.6-9.7c2.5-3.1,3.9-6.7,3.4-10.7
		c-0.8-6.6-4.3-12-9.4-15.8c-6.7-5-13.9-9.3-21-13.7c-1.8-1.1-2.7-4.1-5.7-2.9c-0.1,0.1-0.6-0.4-0.7-0.7c-0.8-1.7-1.5-3.4-2.3-5.3
		c6.9-0.5,6.9-0.5,10.7,3.7c0.4,0.4,0.7,0.8,1.1,1.2c2.8,2.7,7.4,3,10.2,0.6c1.1-0.9,1.5-1.8,0.2-3.2c-2.2-2.4-3.6-5.6-8.2-5.3
		c0.8-0.9,1-1.2,1.3-1.4c3.9-2.1,7.6-4.3,9.5-8.6c0.2-0.4,0.5-0.8,0.8-1.1c1.5-1.9,6.8-6.3,8.8-7.5c-0.9-0.5-2-1-2.8-0.7
		c-1.8,0.6-4.3,1.3-4.9,2.7c-1.9,4.1-5.1,7.1-8.2,10.1c-2.4,2.3-5.9,4.4-9.1,4.8c-6.2,0.9-12.5,0.5-18.3-2.5
		c-1.5-0.8-3.1-1.3-2.8-3.6c0.1-0.4-0.6-0.9-1-1.4c-3.6,4.2-2.5,16.1,4.2,18.4c-1-2.1-1.9-4.1-3.2-6.8
		C246.6,87.7,249.8,87.9,253,88.1z M132.2,75.6c-4.2-2.4-8-5.3-12.2-6.9c-5.7-2.2-10.3-5.8-14.5-10c-4.7-4.6-8.1-10.1-7-17.3
		c0.2-1.5-0.2-3.2-0.3-5.1c-3.8,9.3,0,16.7,5,23.9c-8,0.4-12.8,3.1-12.6,5.7c2.3,1.3,4.3,2.3,6.1,3.5c2.3,1.6,4.4,1.2,6.4-0.2
		c1.7-1.2,3.1-2.9,4.9-4.6c0.4,0.3,1.1,0.8,1.6,1.3c2.1,1.8,4.1,3.8,6.3,5.5c6.4,4.9,13.2,9.4,19.4,14.5c6.2,5.2,11.6,11.3,9.9,20.4
		c-0.4,2.1-1.7,4.1-2.6,6.2c-2.1-1.6-2.2-2.7-0.2-3.9c0.7-0.4,1.2-1.3,2-2.1c-2.8-0.6-5.3,0.4-6,2.8c-0.4,1.2,0.2,3.2,1.1,4.1
		c2.9,3,8.8,3.1,11.9,0.1c2.5-2.4,4.7-5.2,6.7-8c1.1-1.6,1.4-3.6-0.5-5.3c-0.7,1.6-1.3,2.9-1.9,4.1c-0.2-0.1-0.5-0.1-0.7-0.2
		c-0.2-0.8-0.3-1.7-0.5-2.5c-0.4-1.7-0.4-3.7-1.2-5.1c-1.4-2.4-3-4.6,0.4-6.5c0.1,0,0-0.3,0-0.6c-1.2,0.5-2.5,0.9-3.1,1.2
		c-2.9-3.1-5.5-6.1-8.3-8.8c-5.3-5.1-6.7-11.5-6.9-18.4c0-1.8-3.1-6-4.4-6.2c0.9,1.7,2.8,3.5,2.8,5.2
		C133.5,66.6,132.7,70.8,132.2,75.6z M182.1,167.9c0.4,1.4,0.9,2.2,0.8,2.8c-0.8,3.4,0.9,6.1,2,9c0.6,1.6,1.5,1.9,3.1,1.2
		c2.9-1.1,5.6-3.2,9.2-2.3c0.7,0.2,2.3-1.1,2.3-1.6c0-1.1-0.7-2.4-1.5-3.1c-1.7-1.3-3.8-2.1-5.5-3.3c-2.4-1.7-4.7-3.5-7.1-5.3
		c-1-0.8-1.9-1.6-2.8-2.4c-1.3-1.1-3.2-2-3.8-3.5c-0.3-0.8,1.4-2.6,2.4-3.8c0.9-1.1,2.3-1.9,3-3c0.6-0.8,0.9-2.3,0.5-3.1
		c-0.4-0.7-1.9-1-2.9-1.1c-0.8-0.1-1.7,0.6-2.5,0.8c-5.2,1.4-10.3,3.1-15.6,0.4c-2.3-1.2-4.8,0.6-4.5,2.8c0.4,3.1,5,5.4,7.8,3.8
		c2.9-1.6,5.9-2.6,9.5-2.4c-0.3,0.9-0.5,1.5-0.8,2.1c-2.3,4.4-2.9,9.1-2.4,13.9c0.1,1.4,1.5,3.1,2.8,3.8c1.8,1,2.8-0.8,3.6-2.3
		C180.1,170.2,180.9,169.3,182.1,167.9z M142.9,96.8c-1.8,0.9-3.1,1.4-4.3,2.1c-3.9,2.1-10.5,1.5-13.7-1.5c-2.9-2.7-5.6-5.6-8.4-8.4
		c-4.2-4.1-8.9-7.7-14.8-8.4c-11.4-1.3-22.4,3.3-26.9,15.5c-0.4,1.1-0.9,2.2-1.4,3.4c0.3,0.2,0.5,0.3,0.8,0.5
		c0.7-0.6,1.6-1.2,1.9-1.9c1.6-4,4.5-7,8-8.9c3.4-1.9,7.5-3.1,11.4-3.2c6.3-0.3,12.4,1.5,17.7,5.2c4.2,3,8.1,6.3,12.2,9.3
		C130.8,104.3,138.6,102.9,142.9,96.8z M224.8,144.5c4.4-1.8,5.2-4.9,2.2-8.5c-4.4-5.2-13.1-4.1-16.1,2c-1.4,2.9,0.1,5.7,3.3,6.6
		c0.7,0.2,1.4,1,1.6,1.7c0.8,2.6,3.3,4.1,6.4,3.6C224.5,149.5,225.2,148.1,224.8,144.5z M94.8,107.7c0.1-0.9,0.2-2.2,0.4-3.5
		c0.2-1.3,0.5-2.6,0.7-4c0.3-1.8,0.7-3.5,0.7-5.3c-0.1-4.1-2.8-5.6-6.3-3.6c-3.1,1.7-6,3.7-8.9,5.7c-3.5,2.4-4.4,4.3-3.5,6.7
		c1.4,3.5,4.5,5,8.5,4.5C88.9,108,91.6,107.9,94.8,107.7z M159,129.4c1.6,4.6,3.1,8.9,6.6,12.3c1.1,1,2,1.2,3.3,0.1
		c1.2-1,2.6-2,4-2.4c3.5-1.1,4.2-3.1,1.8-6c-1.3-1.6-2.3-3.5-3.5-5.3c-0.6-0.9-1.2-1.9-1.8-2.8C165.9,126.9,163.5,130.5,159,129.4z
		 M208.1,69.9c0.8-0.6,1.7-1.2,2.3-1.9c0.5-0.5,0.8-1.3,1.1-2c-0.8-0.3-1.5-0.8-2.3-0.8c-0.9,0-1.8,0.5-2.6,0.5
		c-1.2-0.1-2.7-0.2-3.6-1c-2.4-2-4.2-1.7-5.6,1.2c-0.4,0.8-1.3,1.4-2.1,1.7c-1.6,0.6-3.3,0.8-4.9,1.4c-0.6,0.2-1.4,1.2-1.3,1.6
		c0.2,0.8,0.9,1.6,1.6,1.9c0.8,0.5,1.9,0.6,2.8,0.7c1.9,0.4,2.7,1.4,2.5,3.5c-0.1,0.8,0.6,1.7,0.9,2.5c0.8-0.5,1.8-0.8,2.3-1.5
		c3.2-3.8,3.1-3.9,7.8-2.1c0.3,0.1,0.7,0.4,1,0.4c0.7,0,1.6,0.2,1.9-0.2c0.4-0.5,0.7-1.5,0.4-2.1C209.8,72.6,209,71.6,208.1,69.9z
		 M212.7,87.7c0.2-1.1,0.6-2.6-1.9-2.7c-6.7-0.5-13.4-1.1-20.1-1.6c-1.7-0.1-3.4-0.6-5.1-0.6c-0.5,0-1,0.7-1.6,1.1
		c0.4,0.5,0.7,1.2,1.2,1.4c4.2,1.5,8.4,3,12.6,4.4c3.1,1.1,6.2,2.4,9.4,3C212.4,93.6,212.4,93.4,212.7,87.7z M86.5,158.7
		c0.9,0,1.6,0,2.2,0c5.3,0.2,7.9,2.9,8,8.3c0,0.8-0.2,1.8,0.2,2.4c0.9,1.2,1.9,2.6,3.1,2.9c1.2,0.3,3.2-0.3,4.1-1.2
		c2.7-2.8,2.2-6.8-0.8-9.3c-1-0.9-2.1-1.7-3.1-2.6C96,155.8,90.1,155.5,86.5,158.7z M104.4,147.8c-0.1,0.1-0.1,0.2-0.2,0.4
		c-1.9,0.4-3.9,0.6-5.8,1.1c-0.9,0.3-1.8,1-2.5,1.6c-0.1,0.1,0.3,1.4,0.7,1.5c1.2,0.4,2.7,1,3.7,0.6c3.3-1.4,8.4-0.8,11,1.8
		c1.8,1.8,3.9,2.5,6.4,2.1c2.4-0.4,4.1-2.8,3.7-5.1c-0.4-2.6-2.2-3-4.4-2.7c-1.6,0.2-3.3,0.6-4.9,0.4
		C109.4,149,106.9,148.3,104.4,147.8z M212.9,103.9c0.1,0.1,0.2,0.3,0.3,0.4c0.7-0.4,2.1-1,2-1.3c-0.1-1-0.7-2-1.3-2.9
		c-0.3-0.5-1-0.7-1.4-1.2c-2.2-3-2.3-2.8-5.9-1.4c-4,1.6-8.3,2.7-12.5,3.9c-1.1,0.3-2.8-0.2-2.4,1.6c0.1,0.8,1.6,1.9,2.4,1.9
		c4.5,0,9.1-0.2,13.6-0.4C209.5,104.4,211.2,104.1,212.9,103.9z M214,163.4c0.5-0.2,0.8-0.4,1.1-0.6c1.8-0.9,2.8-2.3,2.5-4.3
		c-0.3-2.2-2.3-2-3.8-2.3c-0.8-0.1-1.6-0.1-2.4-0.1c-2.9,0.2-4.7,1.9-5.6,5.1c-0.7,2.7,0.2,6,2.5,6.9c1.7,0.7,4.2,0.9,5.9,0.1
		c2-0.9,0.4-2.8-0.1-4.3C214.1,164,214.1,163.8,214,163.4z M161.8,79.6c-2.1,0-4,0.1-5.9,0c-1-0.1-2-0.5-2.8-1
		c-2.7-1.6-2.3-4.2-2-6.7c0.3-2.3-1.5-6.2-3.5-7c-0.7-0.3-2,0.1-2.5,0.6c-2.1,2.1-2.1,4.6-0.9,7.2c1.7,3.7,3.2,7.5,7.7,8.4
		c2.2,0.4,4.5,0.6,6.8,0.9c-0.8,1.5-4.4,2-2.2,5.7c0.6-2.2,1-4.3,3.7-3.4c0.2,0.1,1-0.7,1.1-1.2C161.6,82.1,161.6,81,161.8,79.6z
		 M173.9,89.7c-0.9,4.2-1.7,7.6-2.4,11.1c-0.2,0.8-0.4,2,0,2.4c0.5,0.5,1.7,0.6,2.4,0.5c3.5-0.7,7-1.6,10.4-2.6
		c1-0.3,1.7-1.4,2.5-2.1c-0.7-0.7-1.4-1.5-2.1-2.1c-1.3-1-2.6-1.9-4-2.8C178.4,92.5,176.1,91.1,173.9,89.7z M193.4,130.2
		c-0.7-0.5-1.6-1.2-2.5-1.7c-0.6-0.3-1.4-0.2-2-0.4c-2.9-1.3-7.3,1.2-7.7,4.3c-0.1,0.5,0.1,1.1,0.4,1.5c1.4,1.9,2.9,3.8,4.5,5.5
		c0.6,0.6,2.5,0.8,2.6,0.6C190.2,136.9,191.6,133.8,193.4,130.2z M163.3,74.3c-0.8-1.8-1.1-3.5-2.1-4.8c-2.3-3-1.5-5.9,0-8.6
		c1.7-2.8,0.6-5-0.9-5.9c-1.8-1.2-3.8-0.2-5.4,2.4c-2.2,3.6-1.4,10.2,1.8,13c1.7,1.5,3.6,2.7,5.5,4.1
		C162.3,74.6,162.7,74.4,163.3,74.3z M168.3,118.9c1.2,2.4,2.2,4.7,3.5,6.7c0.3,0.4,2,0.2,2.8-0.2c0.7-0.3,1.2-1.3,1.8-1.9
		c3.4-3.4,3.4-3.4,0.3-7.2c-0.9-1.2-1.8-3.2-2.7-3.3c-1.2-0.1-2.5,1.5-3.6,2.6C169.7,116.5,169.1,117.7,168.3,118.9z M222.3,96.1
		c2.5,0.1,5-2.6,5-5.3c0-1.6-2-3.8-3.5-3.8c-4.1-0.1-6.6,0.8-6.6,2.5C217.1,92.9,219.5,96.1,222.3,96.1z M210.4,123.4
		c3.4-0.2,6.6-2.2,9.7-4.5c1.1-0.8,1.9-1.9,2.7-3c0.2-0.4-0.2-1.2-0.4-1.8c-0.5,0.2-1,0.4-1.4,0.7c-2.1,1.4-4,2.9-6.2,4.2
		c-0.7,0.4-1.7,0.2-2.6,0.1c-1.5-0.2-3-0.5-4.5-0.8c-1.6-0.3-2.6,0.8-2.4,2.1c0.2,1,1.4,2,2.3,2.7
		C208.1,123.5,209,123.3,210.4,123.4z M187.5,60.1c0.3,0.1,0.6,0.2,0.8,0.3c0.3-0.2,0.5-0.4,0.8-0.7c5.1-6.2,12.9-9.1,20.6-5.1
		c0.6,0.3,1.5-0.1,2.3-0.1c-0.4-0.7-0.7-1.6-1.3-2c-8.4-4.4-15.5-2.1-22,4C187.9,57.3,187.9,58.9,187.5,60.1z M217.8,125.4
		c0.4,0.6,0.8,1.8,1.4,2c0.9,0.2,2.1-0.1,3-0.6c1.1-0.7,2.1-1.7,2.9-2.7c1.7-2.2,3.3-4.5,4.7-7c0.4-0.7-0.5-2-0.7-3
		c-0.7,0.6-1.5,1.2-2.1,1.9c-1.2,1.5-2,3.4-3.3,4.6c-1.5,1.3-3.4,2-5.1,3.1C218.1,123.9,218.1,124.7,217.8,125.4z M209.3,60.9
		c0.1-0.4,0.2-0.8,0.3-1.2c-2.2-1-4.4-2.2-6.7-2.9c-4.4-1.3-10.1,1.3-11.5,5.2c-0.2,0.5,0.1,1.3,0.2,1.9c0.6-0.2,1.5-0.1,1.8-0.5
		c3.2-4.2,7.3-4.2,11.9-2.9C206.6,60.8,208,60.7,209.3,60.9z M231.8,128.3c1.3-0.7,2.9-1,3.5-2c1.2-2.1,2.1-4.4,2.5-6.7
		c0.3-1.6-0.4-3.3-0.8-4.9c-0.1-0.3-1.1-0.7-1.5-0.6c-0.4,0.1-1,0.9-1,1.3c0.2,3.7,0.6,7.5-4,9.2c-0.5,0.2-1.1,1.6-0.9,2.2
		C229.8,127.4,231,127.8,231.8,128.3z M175.4,68.8c-0.2-0.3-0.4-0.5-0.6-0.8c-4,3-8,6-12,9.1c-0.2,0.2,0,0.9,0,1.4
		C169.4,78.1,171.5,72.3,175.4,68.8z M112.6,194.4c-3.2,0.6-6.4,1.1-9.5,2c-0.8,0.2-1.3,1.5-2,2.3c0.9,0.2,1.9,0.7,2.8,0.6
		c1,0,2-0.7,3.1-0.8C109.6,198.2,111.7,197.2,112.6,194.4z M235.4,165.7c-5.2-0.4-6.2,5.1-9.9,6.7c-0.2,0.1,0.2,1.5,0.3,2.3
		c0.7-0.2,1.6-0.2,2-0.7C230.3,171.3,232.8,168.6,235.4,165.7z M196.7,147.9c-1.1,1.9-2.5,3.5-2.2,4c0.7,1.3,2.1,2.7,3.5,3
		c1.6,0.4,3.2-1.2,2.7-2.8C200.2,150.8,198.5,149.8,196.7,147.9z M248.7,69.4c-0.7,2.1-1.3,3.6-1.5,4.4c1.1,2.2,1.9,4,2.9,5.7
		c0.3,0.5,1.1,0.6,1.6,0.9c0.2-0.6,0.6-1.3,0.5-1.8C251.2,75.8,250,72.9,248.7,69.4z M199.3,164.8c2.3-0.5,3.5-1.4,3.2-3.1
		c-0.2-1-1.3-2.3-2.3-2.7c-1.3-0.5-3.5,1.8-3.1,3.2C197.5,163.3,198.6,164,199.3,164.8z M209.4,152.2c-1.7-1.3-2.7-2.7-3.8-2.7
		c-0.8-0.1-2.4,1.5-2.4,2.4c0,0.8,1.4,2.3,2.3,2.5C206.4,154.5,207.6,153.3,209.4,152.2z M72,102.5c-1.6,2-1.5,3.9-1,6
		c0.3,1.3,0.5,2.6,0.5,4c0,1.2-0.1,2.4-0.2,3.5c0.3,0,0.6,0,1,0C74.6,111.6,72.5,107.2,72,102.5z M124.8,187.1
		c-0.3-0.3-0.6-0.5-1-0.8c-2.2,2-4.3,4-6.5,5.9c0.2,0.3,0.3,0.5,0.5,0.8c0.9,0.1,2.3,0.5,2.6,0.1
		C122.1,191.3,123.4,189.1,124.8,187.1z M135.4,177.4c-0.2-0.2-0.4-0.4-0.6-0.6c-1.7,1.5-3.5,2.9-5.2,4.5c-0.3,0.3-0.2,1.2-0.2,1.8
		c0.6-0.1,1.5,0,1.9-0.4C132.7,181,134.1,179.1,135.4,177.4z M245.8,68.8c-1.3-1.9-2.7-3.9-4.1-5.9C241,66.2,243.1,69.1,245.8,68.8z
		 M237.6,108.7c-1.5,0.3-2.6,0.6-3.7,0.8c0.2,0.8,0.2,2.1,0.6,2.2C236.2,112.4,237.2,111.5,237.6,108.7z M223.8,106.9
		c-0.8,1-1.8,1.7-1.7,2.1c0.2,0.7,1.1,1.6,1.8,1.6c0.6,0,1.5-0.9,1.7-1.6C225.6,108.6,224.7,107.9,223.8,106.9z M232.4,110.8
		c-1.1-0.8-1.7-1.6-2.2-1.6c-0.7,0-1.4,0.7-2.1,1c0.5,0.7,0.8,1.9,1.4,1.9C230.2,112.3,231,111.5,232.4,110.8z"/>
	<path d="M135.3,224c0.5-3.3,1.7-6.2,4.1-8.7c1-1.1,1.3-3.2,1.3-4.8c0.1-2.7-0.3-5.4-0.5-8.5c-1.9,1.6-3.3,3-4.9,4.1
		c-3.9,2.8-6.2,2.1-9.8,0c-1.9-1.1-3.6-2.7-5.4-4c-1.6-1.2-1.3-2.9,0.1-3.5c4.9-2.3,9.7-5.2,15.3-5.4c0.4,0,0.8-0.1,1.1,0.1
		c3.2,2.5,5.4,0.7,7.8-1.5c3.6-3.3,6.9-6.8,8.6-11.5c0.4-1.1,0.3-2.4,0-3.5c-0.5-1.8-1.3-3.6-2.3-5.1c-0.8-1.3-2.1-2.2-3.2-3.2
		c-5.9,5-7.9,6-10.2,5.1c0.3-0.4,0.4-0.8,0.8-1c2.8-1.8,5.7-3.5,8.5-5.4c0.5-0.3,0.8-1.5,0.5-2c-1.2-2.2-2.3-4.5-4-6.3
		c-1.6-1.7-3.3-0.1-4.6,1c-1,0.8-1.5,2.1-2.3,3.2c-0.9-2.8,0.5-6,3.6-7c2.6-0.9,5.5-1.2,8.2-1.1c6,0.4,11.4,2.5,15,7.7
		c0.2,0.3,0.4,0.8,0.5,1.2c-0.1,0.2-0.3,0.4-0.4,0.6c-1.6-1-3.3-2-5-3.1c0,1.4,0,2.6,0,3.1c1.3,0.5,2.3,0.6,3,1.2
		c3.1,2.7,6,5.5,9,8.2c5.1,4.6,10.9,8.1,17.7,9.3c6,1,12.1,1.8,18.2,2.1c3.8,0.2,7.5-1.1,9.8-4.7c1-1.6,2.3-2.5,4.1-2.9
		c1-0.2,1.9-0.9,3.4-1.2c-0.5,0.8-1,1.7-1.6,2.5c-0.6,0.8-1.6,1.4-1.7,2.2c-0.5,4.6-4.2,5.9-7.5,7.3c-3.6,1.6-7.4,3-11.2,3.3
		c-4.1,0.3-8.5-0.2-12.4-1.5c-5.5-1.8-10.8-4.4-15.2-8.4c-3.6-3.4-7.1-7-10.6-10.6c-1.2-1.3-2.4-2.7-4.2-3.9
		c-0.2,8.8-1,17.3-3.8,24.9c2.8,2.3,5.1,4.3,7.6,6.2c1.5,1.2,3.1,1.4,5.1,0.6c1.1-0.4,2.9-0.7,3.7-0.1c2,1.7,3.7,0.9,5.6,0.1
		c2-0.9,8.5,2.1,9.1,4.2c0.1,0.6-0.1,1.2-0.2,2.1c-1.6-1.1-2.7-2.1-4-2.8c-1.1-0.6-2.4-0.9-3.5-1.9c-1.4,0.7-2.8,1.4-4.2,2
		c0.2,1.3,0.4,2.5,0.6,3.7c-0.3,0.1-0.6,0.3-1,0.4c-0.8-1-1.5-2-2.3-2.9c-1.1-1.4-2.1-2.6-4.5-1.7c-2.6,1.1-5.2,0.1-6.8-2.2
		c-4.2-5.9-9.3-3.6-13.6-0.8c-0.5,0.4-0.2,2-0.3,3c-0.1,0.9-0.4,1.8-0.5,2.6c-0.1,0.8-0.3,1.9,0.2,2.5c2.9,3.6,5.9,7,8.8,10.5
		c0.5,0.6,0.8,1.4,0.9,2.4c-4.7-2.8-8.6-6.3-11.1-11.2c-0.3,0-0.5,0.1-0.8,0.1c-0.9,2.6-1.6,5.2-2.6,7.6c-1.1,2.6-2.5,5-3.8,7.4
		C136.7,224,136,224,135.3,224z M125.3,199.8c1.8,2.7,3.4,3.4,6.1,2.7c3-0.8,4.9-3.2,5-6.4C132.2,195.9,128.8,198.1,125.3,199.8z"/>
	<path d="M244.5,48.4c4.7-0.7,9.8-0.3,13.6-5c-0.1,1.2-0.2,2.4-0.2,3.7c5.8,4.3,13,2.8,19.6,5c-0.9,0.2-1.9,0.5-2.8,0.4
		c-3.5-0.3-7-0.5-10.5-1c-1.7-0.2-3.5-0.7-5-1.6c-1.9-1-3.9-0.7-4.9,0.6c-1,1.2-0.9,3.3-1.1,5c-0.1,0.6,0.2,1.3,0.5,2.3
		c-4.1-2.2-2.8-5.2-2.1-8.3c-6.8,0.3-11.7,4.7-17.7,6.3c-0.1,0.3-0.2,0.7-0.3,1c1.5,1,3.2,1.9,4.6,3c0.7,0.6,1.2,1.6,1.6,2.5
		c0.1,0.3-0.6,0.9-0.9,1.4c-0.7-0.6-1.4-1.1-2-1.7c-1.4-1.5-2.7-3.1-4-4.7c-3.6,2.6-6,7.7-4.8,10.5c1.5-0.4,3-0.9,4.7-1.4
		c-0.4,4.3-5.4,6.2-8.1,4.6c-3.9-2.2-7.5-4.9-8.5-9.7c-0.1-0.6,0-1.3,0.6-2c0.6,0.7,1.1,1.4,2,2.6c2.2-3.5,4.2-6.8,6.6-10.6
		c-7-2.8-13.5-6.3-21.5-5.4c-6,0.7-11.1,3.4-16.5,5.6c-4.5,1.9-7.8,5.7-10.5,9.6c-0.9,1.2-0.6,3.2-1.1,4.8c-0.1,0.4-1,0.6-1.5,0.9
		c0-0.6-0.1-1.1-0.1-1.7c-0.1-0.9-0.2-1.8-0.2-2.7c0-1.2-0.4-2.5,0.1-3.5c4.2-8.4,10.5-14.7,19.4-18.1c2.6-1,5.5-1.4,8.4-1.7
		c7.8-0.7,14.6,2.1,20.6,7c1.5,1.2,2.9,2.4,4.4,3.7c2.8-0.7,6-1.5,9.2-2.2c5.5-1.3,9.6-4.9,13.1-9c1.6-1.9,1.5-5.1,2.5-7.6
		c0.6-1.4,1.6-2.9,2.8-3.8c3.6-2.8,7.4-5.3,11.2-7.9c1.3-0.9,2.6-1.7,3.8-2.5c0.3,0.3,0.6,0.7,0.8,1c-2,1.8-3.7,4-6,5.2
		c-5,2.5-8.4,6.3-9.8,11.5C253.1,40.9,249.6,45,244.5,48.4z"/>
	<path d="M103.1,133c3.1,1.2,6.1,2.3,9.4,3.5c3-2.5,6.2-4.7,7-9.4c0.8-4.8,5.1-6.8,9.2-8.6c0.5-0.2,1.5,0.4,2.1,0.8
		c1.4,1,2.7,2.1,4.6,3.6c-0.5-1.7-0.9-2.8-1.2-3.8c0.2-0.1,0.4-0.2,0.4-0.2c1.9,2.7,4.4,2.8,7.4,2.3c4.3-0.7,7.9,4.8,7.8,9.1
		c0,0.5-0.7,1.4-1,1.3c-0.7-0.1-1.6-0.4-2-0.9c-0.8-1.1-1.4-2.5-2.1-3.8c-2.4,3-5.9,3.5-8.9,1.7c-2-1.2-4.2-2.2-6.4-2.8
		c-0.8-0.2-2.3,0.9-3.1,1.7c-1.2,1.3-2,2.9-3.3,5c4.3,0.7,7.9,3.5,12.3,1.6c3.3-1.3,3.9-0.8,4.8,2.6c0.3,1.3,1.1,2.4,1.8,3.8
		c1.3-1.1,2.4-2.2,3.5-3.2c1.8,1.2,1.6,2.7,0.5,3.6c-3.5,2.6-7.1,5.1-10.9,7.2c-1.2,0.7-3.2,0.4-4.7,0c-0.7-0.2-1.1-1.5-1.7-2.3
		c0.9-0.4,1.8-1.3,2.6-1.1c1.4,0.3,2.8,1,3.8-0.8c-0.5-1-0.8-2.2-1.5-3.1c-1-1.3-1.9-2.8-4.3-2.3c-1.8,0.4-4-0.2-5.7-0.9
		c-3.2-1.3-5.7,0.5-8.4,1.4c-2.8,0.9-5.5,2-8.2,3.2c-3.2,1.5-5.9,0.8-8.6-1.2c-1.4-1.1-2.9-2.1-4.2-3.3c-0.5-0.5-0.6-1.7-0.5-2.4
		c0.1-0.4,1-0.9,1.6-1c1.2-0.3,2.5-0.5,3.6-1.3c-0.4-0.1-0.9-0.2-1.3-0.2c-5.9-0.6-9.2-5.4-7.5-11.1c0.5-1.6,1.2-3.3,3.6-2.5
		c0,0.3,0.1,0.6-0.1,0.8c-2.4,3.4-1.6,6.3,2.3,7.8c5.1,2.1,11-0.3,13.2-5.3c0.7-1.7-0.3-4.3-2.2-5.6c-1.7-1.2-3.2-0.8-4.4,0.8
		c-0.6,0.8-1.4,1.4-2.1,2.1c-1.3,1.3-1.6,2.6-0.2,4c1.3,1.2,2.8,0.8,4.4-1.3c-0.5,0.1-0.8,0.1-1.1,0.2c-0.3,0-0.7,0.1-1.3,0.1
		c0.1-0.7-0.1-1.5,0.2-1.8c0.8-0.7,1.7-1.5,2.7-1.7c0.6-0.1,1.6,0.7,2,1.3c1.1,2-0.6,5.1-3.2,5.9c-2.3,0.7-4.5,0.6-6.2-1.3
		c-1.5-1.7-1.5-3.6-0.1-5.4c1.2-1.6,2.4-3.2,3.7-4.7c1.1-1.3,1.5-3.2,3.9-3.4c4.1-0.4,6.6,0.3,8.9,3.5c2,3,1.4,6-0.3,8.9
		c-2.2,3.9-6,6.1-9.6,8.4C103.9,132.6,103.4,132.8,103.1,133z M98.9,136.7c2.4,4,6.4,4.8,9.9,1.8
		C105.7,136.7,102.7,135.6,98.9,136.7z"/>
	<path d="M42.7,136c-1.9-0.7-3.5-1.3-5.1-1.9c-3.5-1.5-7-1.4-10.3,0.5c-3.6,2.1-7.4,1.5-11.2,0.6c-1.5-0.4-3.1-0.5-4.4-1.2
		c-1.8-1-3.4-2.4-4.8-4.2c6.9,2.8,13.5,7.3,20.7,1.4c-1.7-3.6-0.1-8.6-6.1-9.8c0.3-0.3,0.6-0.6,0.9-0.8c0.5,0,1.1-0.2,1.5,0
		c1.8,0.8,3.5,1.8,5.3,2.7c1.1,0.6,1.5,1.4,0.4,2.6c-0.5,0.5-0.8,1.8-0.5,2.4c0.3,0.6,1.5,1.3,2.2,1.3c5-0.2,10-0.6,15-1
		c0.5,0,1.2-0.2,1.5-0.5c2.3-3,5.9-3.8,9.2-5.3c4.3-2,8.6-4.1,13-6.3c-0.6,2.4-2.4,3.5-4.5,4.6c-4.7,2.2-9.3,4.6-13.9,7.1
		c-0.5,0.3-1.1,1.3-1,1.6c0.3,0.7,1.1,1.6,1.6,1.5c4.9-0.5,9.4,1.2,13.9,2.4c0.3,0.1,0.6,0,1.2-0.1c-0.4-0.5-0.6-0.7-0.7-1
		c-0.3-0.8-0.5-1.6-0.7-2.4c0.9,0.4,2.3,0.5,2.6,1.1c1.9,3.9,1.2,8.1-0.1,11.8c-0.6,1.8-3.6,2.8-5.6,4.2c-0.3-0.2-0.6-0.5-0.9-0.7
		c0.7-1.1,1.3-2.1,2-3.2c0.3-0.5,0.9-1.1,0.7-1.4c-0.3-0.5-0.9-0.9-1.5-1c-1.5-0.2-3.1,0-4.5-0.4c-1.7-0.5-3.7-1.1-4.9-2.2
		c-1.9-1.9-3.9-2.4-6.7-1.9c0.7,0.6,1.1,0.9,0.9,0.8c-0.3,1.6-0.9,2.9-0.7,4c1.8,7.2,5.5,13,12.5,16.2c2.9,1.3,6.1,2.1,9.2,3.1
		c4.4,1.3,7.4,4.2,9.5,8.1c1.1,2,3,3.6,4,5.7c1.1,2.5,1.4,5.3,2.2,7.9c0.4,1.4,0.5,3.2,1.4,4.2c2.4,2.7,5,5.3,7.9,7.6
		c1,0.8,2.9,0.6,4.3,0.9c-1.5,1.4-6.3,1.4-8.3,0.3c-5.6-3.2-7.8-8.2-9.3-14.3c-2-7.6-6-14-14.6-16.2c-7.7-2-15.1-5.1-20.5-11.2
		c-3-3.5-4.7-7.8-3.1-12.7C42.7,139.2,42.6,137.5,42.7,136z"/>
	<path d="M253,88.1c-3.2-0.2-6.4-0.3-10.1-0.5c1.3,2.8,2.2,4.7,3.2,6.8c-6.7-2.3-7.8-14.2-4.2-18.4c0.4,0.5,1,1,1,1.4
		c-0.3,2.2,1.3,2.8,2.8,3.6c5.8,3.1,12.1,3.5,18.3,2.5c3.2-0.5,6.7-2.5,9.1-4.8c3-3,6.3-6,8.2-10.1c0.6-1.4,3.1-2,4.9-2.7
		c0.8-0.3,1.9,0.3,2.8,0.7c-2,1.2-7.3,5.6-8.8,7.5c-0.3,0.4-0.6,0.7-0.8,1.1c-1.9,4.3-5.6,6.6-9.5,8.6c-0.3,0.1-0.5,0.5-1.3,1.4
		c4.5-0.3,6,3,8.2,5.3c1.2,1.3,0.9,2.2-0.2,3.2c-2.8,2.4-7.4,2.1-10.2-0.6c-0.4-0.4-0.7-0.8-1.1-1.2c-3.9-4.2-3.9-4.2-10.7-3.7
		c0.8,1.9,1.5,3.6,2.3,5.3c0.1,0.3,0.6,0.8,0.7,0.7c3-1.2,3.9,1.8,5.7,2.9c7.1,4.4,14.3,8.7,21,13.7c5.1,3.8,8.5,9.3,9.4,15.8
		c0.5,4-0.9,7.7-3.4,10.7c-2.7,3.3-5.7,6.5-8.6,9.7c-1.2,1.4-2.4,2.9-3.7,4.2c-1.8,1.6-3.6,2.8-6.3,3.1c-4.2,0.5-8.4,1.8-12,4.1
		c-0.5,0.3-1.1,0.8-1.6,0.9c-0.6,0.1-1.3-0.2-1.9-0.4c0.3-0.5,0.4-1.4,0.9-1.6c3.9-1.6,6.8-5.4,11.7-5.3c1.1,0,2.1-1.7,3.3-2.6
		c1.6-1.1,3.2-2.2,4.8-3.3c1.1-0.8,2.9-1,2.6-3c0-0.3,0.2-0.8,0.5-0.9c4.7-2,5.4-6.6,5.9-10.6c0.9-7.1-0.2-14.1-5.2-19.7
		c-1.5-1.7-3.6-3-5.6-4.1c-4.2-2.4-8.8-4-12.7-6.8c-3.3-2.3-5.9-5.7-8.5-8.8C252.9,91.3,253.2,89.6,253,88.1z M273.1,91.7
		c-0.9-3.5-3.5-4.7-7.2-3.6C268.4,89.3,270.4,90.4,273.1,91.7z"/>
	<path d="M132.2,75.6c0.5-4.7,1.4-9,1.3-13.2c0-1.8-1.8-3.5-2.8-5.2c1.4,0.2,4.4,4.4,4.4,6.2c0.2,6.9,1.5,13.4,6.9,18.4
		c2.8,2.7,5.4,5.7,8.3,8.8c0.7-0.2,1.9-0.7,3.1-1.2c0,0.3,0.1,0.6,0,0.6c-3.4,2-1.9,4.1-0.4,6.5c0.8,1.5,0.8,3.4,1.2,5.1
		c0.2,0.8,0.3,1.7,0.5,2.5c0.2,0.1,0.5,0.1,0.7,0.2c0.6-1.3,1.2-2.6,1.9-4.1c1.9,1.7,1.6,3.7,0.5,5.3c-2,2.8-4.2,5.6-6.7,8
		c-3.1,3-9,2.9-11.9-0.1c-0.9-0.9-1.4-2.9-1.1-4.1c0.7-2.4,3.2-3.4,6-2.8c-0.8,0.8-1.3,1.7-2,2.1c-2.1,1.2-2,2.3,0.2,3.9
		c0.9-2.1,2.3-4.1,2.6-6.2c1.6-9.1-3.7-15.2-9.9-20.4c-6.2-5.2-12.9-9.7-19.4-14.5c-2.2-1.7-4.2-3.7-6.3-5.5c-0.6-0.5-1.2-1-1.6-1.3
		c-1.8,1.7-3.2,3.3-4.9,4.6c-2,1.4-4.1,1.8-6.4,0.2c-1.7-1.2-3.7-2.2-6.1-3.5c-0.2-2.6,4.7-5.2,12.6-5.7c-5-7.2-8.8-14.6-5-23.9
		c0.1,2,0.5,3.6,0.3,5.1c-1.1,7.2,2.3,12.6,7,17.3c4.2,4.1,8.8,7.7,14.5,10C124.2,70.3,127.9,73.1,132.2,75.6z M96.4,63.3
		c0,0.3-0.1,0.7-0.1,1c1.6,0.8,3.3,2.2,4.8,2.1c1.5-0.1,2.9-1.8,4.3-2.8c-0.2-0.4-0.4-0.9-0.6-1.3C102,62.6,99.2,62.9,96.4,63.3z"/>
	<path d="M182.1,167.9c-1.1,1.5-1.9,2.3-2.5,3.2c-0.8,1.5-1.7,3.3-3.6,2.3c-1.3-0.7-2.6-2.4-2.8-3.8c-0.4-4.8,0.2-9.5,2.4-13.9
		c0.3-0.5,0.4-1.2,0.8-2.1c-3.6-0.1-6.6,0.8-9.5,2.4c-2.8,1.6-7.4-0.7-7.8-3.8c-0.3-2.2,2.2-4,4.5-2.8c5.3,2.8,10.5,1,15.6-0.4
		c0.9-0.2,1.7-0.9,2.5-0.8c1,0.1,2.5,0.4,2.9,1.1c0.4,0.7,0,2.2-0.5,3.1c-0.8,1.2-2.1,1.9-3,3c-1,1.2-2.7,2.9-2.4,3.8
		c0.5,1.4,2.4,2.3,3.8,3.5c0.9,0.8,1.8,1.7,2.8,2.4c2.3,1.8,4.6,3.6,7.1,5.3c1.8,1.2,3.8,2,5.5,3.3c0.8,0.7,1.5,2,1.5,3.1
		c0,0.6-1.7,1.8-2.3,1.6c-3.5-0.9-6.2,1.2-9.2,2.3c-1.7,0.6-2.6,0.4-3.1-1.2c-1.1-2.9-2.8-5.7-2-9
		C183,170.1,182.5,169.3,182.1,167.9z M193.2,175.1c-2.2-1.6-4.1-3-6.4-4.7C188,176.5,188.8,177.1,193.2,175.1z"/>
	<path d="M251.4,138.8c0.2,1.8,0.6,3.6,0.4,5.3c-0.3,2.6-3.3,4-5.7,3c-3.2-1.3-4.5-4.3-5-7.2c-0.6-3.3-0.1-6.8,0.2-10.3
		c1.7,4.5,0.5,10.4,7.2,12.3c-0.5-1.4-0.9-2.8-1.4-4.2c-0.9-2.3-2.9-4.1-2.3-6.9c0.4-2.1,1.9-3.3,4-2.5c2,0.8,3.2,2.3,3.8,4.5
		c0.5,1.9,1.8,3.6,3,5.2c0.4,0.5,1.7,0.2,2.5,0.3c-0.1-0.8-0.2-1.6-0.4-2.5c0-0.1-0.2-0.3-0.4-0.4c-2.8-1-3.1-3.9-4.3-6
		c-0.9-1.6-1.8-3.6,0.4-5c1.8-1.2,4.7-0.7,6,1.3c1,1.5,1.7,3.1,2.5,4.7c0.2,0.3,0.2,0.8,0.5,1c1.2,0.9,3.2,2.6,3.6,2.3
		c1.7-1.3,0.8-2.9-0.3-4.4c-1.2-1.5-2.8-3-3.3-4.8c-0.4-1.4,0.1-3.7,1.1-4.7c0.8-0.8,3.1-0.7,4.5-0.3c1.1,0.3,1.9,1.5,2.8,2.5
		c0.3,0.4,0.3,1,0.4,1.6c-0.6,0-1.3,0.2-1.7,0c-1.2-0.7-2.4-1.6-3.7-2.5c-1.3,1.5-1.6,2.6-0.1,4.2c1.8,2,3.5,4.1,4.8,6.4
		c0.6,1.1,0.7,2.8,0.3,4c-0.3,0.8-1.8,1.3-2.9,1.7c-4.7,1.6-5.8-2.6-7.8-5.2c-0.8-1-1-2.5-1.8-3.6c-0.6-0.7-1.7-0.9-2.6-1.4
		c0.1,0.9-0.2,2,0.3,2.7c1,1.5,2.6,2.6,3.4,4.2c1,2,1.8,4.3,1.9,6.5c0.1,2.5-4.1,3.7-6.3,1.9C253.9,141.3,252.6,140.1,251.4,138.8
		c0-2.7-1.3-4.8-3.3-6.8C247.9,134.6,249,136.8,251.4,138.8z"/>
	<path d="M142.9,96.8c-4.2,6.1-12,7.6-17.5,3.6c-4.1-3-8-6.3-12.2-9.3c-5.3-3.7-11.4-5.5-17.7-5.2c-3.9,0.2-8,1.4-11.4,3.2
		c-3.5,1.9-6.4,5-8,8.9c-0.3,0.8-1.3,1.3-1.9,1.9c-0.3-0.2-0.5-0.3-0.8-0.5c0.5-1.1,1-2.2,1.4-3.4c4.5-12.3,15.5-16.9,26.9-15.5
		c5.8,0.7,10.6,4.3,14.8,8.4c2.8,2.7,5.5,5.7,8.4,8.4c3.3,3,9.8,3.7,13.7,1.5C139.8,98.2,141.1,97.7,142.9,96.8z"/>
	<path d="M224.8,144.5c0.4,3.6-0.3,5.1-2.6,5.4c-3.1,0.5-5.6-1-6.4-3.6c-0.2-0.7-1-1.5-1.6-1.7c-3.2-0.9-4.7-3.8-3.3-6.6
		c3-6.1,11.7-7.1,16.1-2C230,139.5,229.2,142.7,224.8,144.5z M218.5,139.8c2.2,0.3,4.4,0.6,7.4,1c-0.9-1.6-1.5-2.7-1.8-3.3
		c-1.6,0.5-2.8,1.3-3.5,1c-0.8-0.4-1.2-1.7-2-3.2C218.5,137,218.5,138.3,218.5,139.8z M212.9,139c0.3,0.8,0.6,1.6,1,2.8
		c1.3-0.9,2.3-1.6,3.7-2.6C215.7,139.2,214.5,139.1,212.9,139z"/>
	<path d="M94.8,107.7c-3.2,0.2-5.9,0.2-8.5,0.5c-4,0.5-7.1-1-8.5-4.5c-1-2.4-0.1-4.3,3.5-6.7c2.9-2,5.8-4,8.9-5.7
		c3.6-2,6.2-0.5,6.3,3.6c0.1,1.8-0.4,3.5-0.7,5.3c-0.2,1.3-0.5,2.6-0.7,4C95,105.5,94.9,106.8,94.8,107.7z M80.3,101.9
		c1.3,2.4,1.3,2.4,5.5,2.9c5,0.6,7.1-1.3,6.7-6.3c-0.1-1-1-2.7-1.5-2.7c-1.1,0-2.3,0.8-3.2,1.5c-1,0.7-1.6,2-2.6,2.6
		C83.7,100.7,82,101.2,80.3,101.9z"/>
	<path d="M159,129.4c4.6,1.1,6.9-2.6,10.5-4.1c0.6,0.9,1.2,1.9,1.8,2.8c1.1,1.8,2.1,3.7,3.5,5.3c2.3,2.9,1.7,4.9-1.8,6
		c-1.5,0.4-2.8,1.4-4,2.4c-1.3,1-2.2,0.9-3.3-0.1C162.1,138.3,160.6,134,159,129.4z"/>
	<path d="M208.1,69.9c1,1.7,1.8,2.7,2.2,3.9c0.2,0.6,0,1.6-0.4,2.1c-0.3,0.4-1.3,0.2-1.9,0.2c-0.3,0-0.6-0.3-1-0.4
		c-4.6-1.7-4.6-1.7-7.8,2.1c-0.6,0.7-1.5,1-2.3,1.5c-0.3-0.8-1-1.7-0.9-2.5c0.2-2-0.5-3.1-2.5-3.5c-1-0.2-2-0.3-2.8-0.7
		c-0.7-0.4-1.4-1.2-1.6-1.9c-0.1-0.4,0.7-1.4,1.3-1.6c1.6-0.6,3.3-0.8,4.9-1.4c0.8-0.3,1.8-1,2.1-1.7c1.4-2.9,3.2-3.3,5.6-1.2
		c0.9,0.7,2.4,0.8,3.6,1c0.8,0.1,1.7-0.5,2.6-0.5c0.8,0,1.6,0.5,2.3,0.8c-0.4,0.7-0.6,1.4-1.1,2C209.7,68.7,208.9,69.2,208.1,69.9z
		 M205.7,72.8c0.1-0.2,0.1-0.5,0.2-0.7c-1.7-1.7-3.4-3.4-5.2-5.3c-0.7,1.4-0.9,3-1.8,3.5c-0.9,0.6-2.4,0.3-3.5,0.4
		c1.3,0.9,2.5,1.8,3.8,2.8C200.6,70.1,203.1,71.2,205.7,72.8z"/>
	<path d="M212.7,87.7c-0.3,5.7-0.3,5.9-5.4,5c-3.2-0.6-6.3-2-9.4-3c-4.2-1.4-8.4-2.9-12.6-4.4c-0.5-0.2-0.8-0.9-1.2-1.4
		c0.5-0.4,1-1.2,1.6-1.1c1.7,0.1,3.4,0.5,5.1,0.6c6.7,0.6,13.4,1.2,20.1,1.6C213.2,85.1,212.9,86.6,212.7,87.7z"/>
	<path d="M86.5,158.7c3.6-3.2,9.5-2.9,13.8,0.5c1.1,0.8,2.1,1.7,3.1,2.6c2.9,2.4,3.4,6.5,0.8,9.3c-0.9,0.9-2.8,1.5-4.1,1.2
		c-1.2-0.3-2.3-1.8-3.1-2.9c-0.4-0.5-0.2-1.6-0.2-2.4c-0.1-5.4-2.7-8.1-8-8.3C88.1,158.7,87.4,158.7,86.5,158.7z"/>
	<path d="M104.4,147.8c2.5,0.5,5,1.3,7.6,1.6c1.6,0.2,3.3-0.2,4.9-0.4c2.2-0.3,4,0.1,4.4,2.7c0.4,2.4-1.3,4.7-3.7,5.1
		c-2.5,0.5-4.6-0.3-6.4-2.1c-2.6-2.5-7.7-3.1-11-1.8c-1,0.4-2.5-0.2-3.7-0.6c-0.4-0.1-0.8-1.4-0.7-1.5c0.8-0.7,1.6-1.4,2.5-1.6
		c1.9-0.5,3.9-0.8,5.8-1.1C104.2,148,104.3,147.9,104.4,147.8z"/>
	<path d="M212.9,103.9c-1.7,0.2-3.4,0.5-5.1,0.6c-4.5,0.2-9.1,0.4-13.6,0.4c-0.9,0-2.3-1.1-2.4-1.9c-0.3-1.8,1.4-1.3,2.4-1.6
		c4.2-1.2,8.4-2.2,12.5-3.9c3.5-1.4,3.7-1.7,5.9,1.4c0.4,0.5,1.1,0.7,1.4,1.2c0.6,0.9,1.2,1.9,1.3,2.9c0,0.4-1.3,0.9-2,1.3
		C213.1,104.2,213,104,212.9,103.9z"/>
	<path d="M214,163.4c0,0.4,0,0.6,0.1,0.7c0.5,1.5,2.1,3.4,0.1,4.3c-1.6,0.7-4.1,0.5-5.9-0.1c-2.4-0.9-3.3-4.2-2.5-6.9
		c0.9-3.2,2.7-4.9,5.6-5.1c0.8,0,1.6-0.1,2.4,0.1c1.5,0.3,3.5,0.1,3.8,2.3c0.3,2-0.7,3.5-2.5,4.3C214.8,163,214.5,163.2,214,163.4z"
		/>
	<path d="M161.8,79.6c-0.2,1.4-0.2,2.4-0.4,3.5c-0.1,0.5-0.9,1.3-1.1,1.2c-2.7-0.8-3,1.3-3.7,3.4c-2.2-3.6,1.3-4.2,2.2-5.7
		c-2.3-0.3-4.6-0.4-6.8-0.9c-4.6-0.9-6.1-4.8-7.7-8.4c-1.2-2.6-1.2-5.1,0.9-7.2c0.5-0.5,1.8-0.9,2.5-0.6c2.1,0.8,3.8,4.6,3.5,7
		c-0.3,2.5-0.8,5.1,2,6.7c0.9,0.5,1.9,0.9,2.8,1C157.7,79.7,159.6,79.6,161.8,79.6z M147.8,74.5c0.2-2.3,2.1-4.8-0.9-6.8
		C145.6,70.3,145.8,72.6,147.8,74.5z"/>
	<path d="M173.9,89.7c2.3,1.4,4.5,2.8,6.8,4.3c1.4,0.9,2.7,1.8,4,2.8c0.8,0.6,1.4,1.4,2.1,2.1c-0.8,0.7-1.6,1.8-2.5,2.1
		c-3.4,1-6.9,1.8-10.4,2.6c-0.8,0.2-2,0-2.4-0.5c-0.4-0.4-0.2-1.6,0-2.4C172.1,97.3,172.9,93.8,173.9,89.7z M181.2,98.8
		c-1.8-1.6-3.2-2.9-5.2-4.5c-0.3,2.4-0.5,4.1-0.8,6.2C177.4,99.8,179.1,99.3,181.2,98.8z"/>
	<path d="M193.4,130.2c-1.7,3.6-3.2,6.7-4.8,9.7c-0.1,0.2-2.1,0-2.6-0.6c-1.7-1.7-3.1-3.6-4.5-5.5c-0.3-0.4-0.4-1-0.4-1.5
		c0.4-3.2,4.9-5.6,7.7-4.3c0.6,0.3,1.4,0.1,2,0.4C191.8,129,192.6,129.7,193.4,130.2z"/>
	<path d="M163.3,74.3c-0.6,0.1-1,0.2-1.1,0.1c-1.9-1.3-3.8-2.6-5.5-4.1c-3.1-2.8-3.9-9.4-1.8-13c1.6-2.6,3.6-3.6,5.4-2.4
		c1.5,0.9,2.5,3.1,0.9,5.9c-1.5,2.6-2.3,5.6,0,8.6C162.2,70.8,162.6,72.6,163.3,74.3z M156.7,65.2c0.8-2.2,1.6-4.2,2.4-6.3
		c0.2-0.5,0-1.1,0-1.6c-0.5,0.3-1.2,0.5-1.5,1C156.1,60.4,155.5,62.6,156.7,65.2z"/>
	<path d="M168.3,118.9c0.8-1.2,1.4-2.5,2.2-3.4c1-1.1,2.4-2.6,3.6-2.6c1,0,1.8,2.1,2.7,3.3c3.1,3.8,3.1,3.8-0.3,7.2
		c-0.6,0.6-1.1,1.6-1.8,1.9c-0.9,0.4-2.6,0.6-2.8,0.2C170.5,123.6,169.5,121.3,168.3,118.9z"/>
	<path d="M222.3,96.1c-2.7-0.1-5.2-3.2-5.1-6.6c0-1.7,2.5-2.6,6.6-2.5c1.5,0,3.6,2.2,3.5,3.8C227.3,93.5,224.8,96.2,222.3,96.1z"/>
	<path d="M210.4,123.4c-1.4-0.1-2.3,0.1-2.8-0.3c-0.9-0.7-2.1-1.7-2.3-2.7c-0.2-1.3,0.8-2.4,2.4-2.1c1.5,0.2,3,0.6,4.5,0.8
		c0.8,0.1,1.9,0.3,2.6-0.1c2.1-1.3,4.1-2.8,6.2-4.2c0.4-0.3,0.9-0.4,1.4-0.7c0.1,0.6,0.6,1.5,0.4,1.8c-0.7,1.1-1.6,2.2-2.7,3
		C217,121.2,213.7,123.2,210.4,123.4z"/>
	<path d="M187.5,60.1c0.4-1.2,0.4-2.8,1.2-3.5c6.6-6.2,13.6-8.4,22-4c0.6,0.3,0.9,1.3,1.3,2c-0.8,0.1-1.7,0.4-2.3,0.1
		c-7.8-4-15.5-1.1-20.6,5.1c-0.2,0.3-0.5,0.4-0.8,0.7C188.1,60.3,187.8,60.2,187.5,60.1z"/>
	<path d="M217.8,125.4c0.3-0.7,0.3-1.5,0.6-1.7c1.7-1.1,3.7-1.8,5.1-3.1c1.4-1.2,2.2-3.1,3.3-4.6c0.6-0.7,1.4-1.3,2.1-1.9
		c0.3,1,1.1,2.3,0.7,3c-1.3,2.4-3,4.7-4.7,7c-0.8,1.1-1.8,2-2.9,2.7c-0.8,0.5-2,0.8-3,0.6C218.6,127.2,218.2,126,217.8,125.4z"/>
	<path d="M209.3,60.9c-1.3-0.1-2.7-0.1-4-0.5c-4.5-1.3-8.7-1.3-11.9,2.9c-0.3,0.4-1.2,0.4-1.8,0.5c-0.1-0.6-0.4-1.4-0.2-1.9
		c1.4-3.8,7.2-6.5,11.5-5.2c2.3,0.7,4.5,1.9,6.7,2.9C209.6,60.1,209.5,60.5,209.3,60.9z"/>
	<path d="M231.8,128.3c-0.9-0.6-2-0.9-2.2-1.5c-0.2-0.6,0.3-2,0.9-2.2c4.6-1.7,4.2-5.5,4-9.2c0-0.4,0.5-1.2,1-1.3
		c0.4-0.1,1.4,0.3,1.5,0.6c0.4,1.6,1.1,3.4,0.8,4.9c-0.4,2.3-1.3,4.7-2.5,6.7C234.7,127.3,233.1,127.6,231.8,128.3z"/>
	<path d="M175.4,68.8c-3.9,3.5-6,9.3-12.6,9.7c0-0.5-0.2-1.2,0-1.4c4-3.1,8-6.1,12-9.1C175,68.3,175.2,68.5,175.4,68.8z"/>
	<path d="M112.6,194.4c-0.9,2.8-3,3.8-5.6,4.2c-1,0.1-2,0.7-3.1,0.8c-0.9,0-1.8-0.4-2.8-0.6c0.6-0.8,1.2-2.1,2-2.3
		C106.2,195.5,109.4,195,112.6,194.4z"/>
	<path d="M235.4,165.7c-2.6,2.9-5.1,5.6-7.6,8.3c-0.4,0.5-1.3,0.5-2,0.7c-0.1-0.8-0.5-2.3-0.3-2.3
		C229.2,170.8,230.2,165.3,235.4,165.7z"/>
	<path d="M196.7,147.9c1.9,1.9,3.6,2.9,4,4.3c0.5,1.6-1.1,3.1-2.7,2.8c-1.4-0.3-2.8-1.7-3.5-3C194.1,151.4,195.5,149.9,196.7,147.9z
		"/>
	<path d="M248.7,69.4c1.3,3.5,2.5,6.4,3.5,9.3c0.2,0.5-0.3,1.2-0.5,1.8c-0.6-0.3-1.4-0.5-1.6-0.9c-1-1.7-1.8-3.5-2.9-5.7
		C247.4,73,247.9,71.5,248.7,69.4z"/>
	<path d="M199.3,164.8c-0.8-0.8-1.9-1.6-2.2-2.6c-0.4-1.3,1.8-3.7,3.1-3.2c1,0.4,2.1,1.7,2.3,2.7
		C202.8,163.4,201.6,164.4,199.3,164.8z"/>
	<path d="M209.4,152.2c-1.8,1.1-3,2.3-3.9,2.1c-0.9-0.1-2.4-1.6-2.3-2.5c0-0.9,1.6-2.5,2.4-2.4C206.6,149.6,207.6,150.9,209.4,152.2
		z"/>
	<path d="M72,102.5c0.5,4.7,2.5,9.1,0.3,13.5c-0.3,0-0.6,0-1,0c0.1-1.2,0.3-2.4,0.2-3.5c-0.1-1.3-0.2-2.7-0.5-4
		C70.6,106.4,70.4,104.5,72,102.5z"/>
	<path d="M124.8,187.1c-1.4,2-2.7,4.2-4.3,6c-0.4,0.4-1.7,0-2.6-0.1c-0.2-0.3-0.3-0.5-0.5-0.8c2.2-2,4.3-4,6.5-5.9
		C124.2,186.6,124.5,186.9,124.8,187.1z"/>
	<path d="M135.4,177.4c-1.4,1.8-2.7,3.6-4.2,5.3c-0.3,0.4-1.2,0.3-1.9,0.4c0.1-0.6-0.1-1.5,0.2-1.8c1.6-1.6,3.4-3,5.2-4.5
		C135,177,135.2,177.2,135.4,177.4z"/>
	<path d="M245.8,68.8c-2.8,0.3-4.9-2.6-4.1-5.9C243.1,64.9,244.5,66.9,245.8,68.8z"/>
	<path d="M237.6,108.7c-0.5,2.8-1.5,3.7-3.1,3c-0.4-0.2-0.4-1.5-0.6-2.2C235,109.3,236.1,109,237.6,108.7z"/>
	<path d="M223.8,106.9c0.8,1,1.8,1.7,1.7,2.1c-0.1,0.7-1.1,1.6-1.7,1.6c-0.6,0-1.5-0.9-1.8-1.6C222,108.6,223,107.9,223.8,106.9z"/>
	<path d="M232.4,110.8c-1.4,0.7-2.2,1.5-2.9,1.4c-0.5-0.1-0.9-1.2-1.4-1.9c0.7-0.4,1.4-1,2.1-1C230.8,109.2,231.3,109.9,232.4,110.8
		z"/>
	<path d="M125.3,199.8c3.5-1.7,6.9-3.8,11.1-3.7c-0.1,3.2-2,5.6-5,6.4C128.7,203.2,127,202.5,125.3,199.8z"/>
	<path d="M98.9,136.7c3.8-1.1,6.8,0,9.9,1.8C105.3,141.5,101.4,140.7,98.9,136.7z"/>
	<path d="M273.1,91.7c-2.7-1.3-4.7-2.4-7.2-3.6C269.6,87,272.2,88.2,273.1,91.7z"/>
	<path d="M96.4,63.3c2.8-0.4,5.6-0.7,8.4-1.1c0.2,0.4,0.4,0.9,0.6,1.3c-1.4,1-2.8,2.7-4.3,2.8c-1.5,0.1-3.2-1.3-4.8-2.1
		C96.3,64,96.4,63.6,96.4,63.3z"/>
	<path d="M193.2,175.1c-4.4,2-5.2,1.4-6.4-4.7C189.2,172.1,191.1,173.5,193.2,175.1z"/>
	<path d="M251.4,138.8c-2.4-1.9-3.6-4.2-3.3-6.8C250.1,134,251.5,136.1,251.4,138.8C251.3,138.8,251.4,138.8,251.4,138.8z"/>
	<path d="M218.5,139.8c0-1.4,0-2.7,0-4.5c0.9,1.4,1.2,2.8,2,3.2c0.7,0.3,1.9-0.5,3.5-1c0.3,0.6,0.9,1.6,1.8,3.3
		C223,140.4,220.8,140.1,218.5,139.8z"/>
	<path d="M212.9,139c1.6,0.1,2.8,0.1,4.8,0.2c-1.5,1-2.4,1.7-3.7,2.6C213.5,140.7,213.2,139.8,212.9,139z"/>
	<path d="M80.3,101.9c1.8-0.7,3.4-1.2,4.8-2c1-0.6,1.6-1.8,2.6-2.6c1-0.7,2.1-1.5,3.2-1.5c0.5,0,1.4,1.7,1.5,2.7
		c0.4,5-1.7,6.9-6.7,6.3C81.6,104.3,81.6,104.3,80.3,101.9z"/>
	<path d="M205.7,72.8c-2.6-1.6-5.1-2.7-6.5,0.6c-1.3-1-2.6-1.9-3.8-2.8c1.1-0.1,2.6,0.2,3.5-0.4c0.9-0.6,1.1-2.1,1.8-3.5
		c1.8,1.9,3.5,3.6,5.2,5.3C205.8,72.4,205.8,72.6,205.7,72.8z"/>
	<path d="M147.8,74.5c-2-2-2.2-4.2-0.9-6.8C149.9,69.7,148,72.2,147.8,74.5z"/>
	<path d="M181.2,98.8c-2.1,0.6-3.8,1-6,1.6c0.3-2.1,0.5-3.8,0.8-6.2C178,95.9,179.4,97.1,181.2,98.8z"/>
	<path d="M156.7,65.2c-1.2-2.6-0.6-4.8,0.8-6.9c0.3-0.5,1-0.6,1.5-1c0,0.5,0.2,1.1,0,1.6C158.3,61,157.5,63.1,156.7,65.2z"/>
</g>
<g id="XMLID_20_">
	<path d="M43.5,249.3h-5v-4.9h15.6v4.9H49v17.6h-5.5V249.3z"/>
	<path d="M57,244.5h14.8v4.9h-9.3v4h8.6v4.8h-8.6v4h9.8v4.7H57V244.5z"/>
	<path d="M87.6,243.7c4.3,0,7.2,1.6,9.6,4.1l-3.8,3.6c-1.6-1.5-3.6-2.5-5.8-2.5c-4,0-6.6,3-6.6,6.8s2.6,6.8,6.6,6.8
		c2.2,0,4.3-1,5.8-2.5l3.7,3.6c-2.2,2.4-5.3,4.1-9.5,4.1c-7.1,0-12.2-5.3-12.2-12S80.5,243.7,87.6,243.7z"/>
	<path d="M100.2,244.5h5.5v8.8h8.8v-8.8h5.5v22.4h-5.5V258h-8.8v8.9h-5.5V244.5z"/>
	<path d="M123.9,244.5h5.8l8.7,13.3v-13.3h5.5v22.4h-5.7l-8.8-13.4v13.4h-5.5V244.5z"/>
	<path d="M160.1,243.7c7.1,0,12.1,5.3,12.1,12s-5,12-12.1,12c-7.1,0-12.1-5.3-12.1-12S153,243.7,160.1,243.7z M160.1,262.4
		c4,0,6.5-3,6.5-6.8s-2.5-6.8-6.5-6.8c-4,0-6.5,3-6.5,6.8S156.1,262.4,160.1,262.4z"/>
	<path d="M176.3,244.5h5.5v17.7h9.8v4.7h-15.3V244.5z"/>
	<path d="M205,243.7c7.1,0,12.1,5.3,12.1,12s-5,12-12.1,12c-7.1,0-12.1-5.3-12.1-12S197.9,243.7,205,243.7z M205,262.4
		c4,0,6.5-3,6.5-6.8s-2.5-6.8-6.5-6.8c-4,0-6.5,3-6.5,6.8S201,262.4,205,262.4z"/>
	<path d="M233.7,243.7c4.2,0,7,1.5,9.4,3.9l-3.8,3.5c-1.5-1.4-3.4-2.2-5.6-2.2c-4,0-6.6,3-6.6,6.8c0,4.2,3,6.8,6.7,6.8
		c3.9,0,5.8-2.2,6-4.3h-6.4v-4.7h12.3v2.1c0,6.6-3.9,12.2-12,12.2c-7.1,0-12.2-5.3-12.2-12S226.6,243.7,233.7,243.7z"/>
	<path d="M253.8,256.1l-8-11.6h6.2l4.5,6.7l4.5-6.7h6.2l-8,11.6v10.8h-5.5V256.1z"/>
	<path d="M54.3,281.9h14.5v4.9h-9v4.8h8.3v4.8h-8.3v8h-5.5V281.9z"/>
	<path d="M83.7,281.1c7.1,0,12.1,5.3,12.1,12s-5,12-12.1,12c-7.1,0-12.1-5.3-12.1-12S76.6,281.1,83.7,281.1z M83.7,299.9
		c4,0,6.5-3,6.5-6.8s-2.5-6.8-6.5-6.8c-4,0-6.5,3-6.5,6.8S79.7,299.9,83.7,299.9z"/>
	<path d="M100,281.9h9.4c4.8,0,8,2.9,8,7.1c0,3.9-2,6.1-5.3,7l6.1,8.3h-6.9l-5.7-8.4v8.4H100V281.9z M109.9,291.6
		c1.2,0,2.1-1.3,2.1-2.6c0-1.3-1-2.5-2.2-2.5h-4.3v5H109.9z"/>
	<path d="M135.5,297.7c0,1.3,1,2.4,2.3,2.4c1.4,0,2.2-0.8,2.2-1.9c0-1.7-2.2-2.2-4-2.8c-3.8-1.3-5.9-3.1-5.9-7c0-4,3.4-7.3,7.6-7.3
		c5,0,7.3,3.2,7.6,7.3h-5.2c0-1.3-0.8-2.3-2.3-2.3c-1.2,0-2.4,0.7-2.4,2.2c0,1.7,2.1,2,4,2.5c4,1.2,5.9,3.4,5.9,7
		c0,4-3.4,7.3-7.6,7.3c-4.9,0-7.7-3.3-7.7-7.3H135.5z"/>
	<path d="M161.7,281.1c7.1,0,12.1,5.3,12.1,12s-5,12-12.1,12c-7.1,0-12.1-5.3-12.1-12S154.6,281.1,161.7,281.1z M161.7,299.9
		c4,0,6.5-3,6.5-6.8s-2.5-6.8-6.5-6.8c-4,0-6.5,3-6.5,6.8S157.7,299.9,161.7,299.9z"/>
	<path d="M190.7,281.1c4.3,0,7.2,1.6,9.6,4.1l-3.8,3.6c-1.6-1.5-3.6-2.5-5.8-2.5c-4,0-6.6,3-6.6,6.8s2.6,6.8,6.6,6.8
		c2.2,0,4.3-1,5.8-2.5l3.7,3.6c-2.2,2.4-5.3,4.1-9.5,4.1c-7.1,0-12.2-5.3-12.2-12S183.6,281.1,190.7,281.1z"/>
	<path d="M203.3,281.9h5.5v22.4h-5.5V281.9z"/>
	<path d="M222.5,281.1h1l11,23.2h-5.9l-1.1-2.3h-8.9l-1.1,2.3h-5.9L222.5,281.1z M225.5,298.1l-2.6-5.7h-0.1l-2.6,5.7H225.5z"/>
	<path d="M237.2,281.9h5.5v17.7h9.8v4.7h-15.3V281.9z"/>
	<path d="M46,334.8c0.3,1.6,0.9,2.6,2.7,2.6c1.7,0,2.9-0.7,2.9-3.5v-14.6H57v15.6c0,4.7-3.7,7.6-8.1,7.6c-4.7,0-8.2-2.8-8.2-7.5
		L46,334.8z"/>
	<path d="M60.9,319.3h5.5v14.1c0,3,1.4,4,3.3,4c2.1,0,3.4-1,3.4-4v-14.1h5.5v14.9c0,5.3-4,8.3-8.9,8.3c-5.1,0-8.8-3.1-8.8-8.3V319.3
		z"/>
	<path d="M87.8,335.1c0,1.3,1,2.4,2.3,2.4c1.4,0,2.2-0.8,2.2-1.9c0-1.7-2.2-2.2-4-2.8c-3.8-1.3-5.9-3.1-5.9-7c0-4,3.4-7.3,7.6-7.3
		c5,0,7.3,3.2,7.6,7.3h-5.2c0-1.3-0.8-2.3-2.3-2.3c-1.2,0-2.4,0.7-2.4,2.2c0,1.7,2.1,2,4,2.5c4,1.2,5.9,3.4,5.9,7
		c0,4-3.4,7.3-7.6,7.3c-4.9,0-7.7-3.3-7.7-7.3H87.8z"/>
	<path d="M105.3,324.1h-5v-4.9h15.6v4.9h-5.1v17.6h-5.5V324.1z"/>
	<path d="M118.8,319.3h5.5v22.4h-5.5V319.3z"/>
	<path d="M140.6,318.5c4.3,0,7.2,1.6,9.6,4.1l-3.8,3.6c-1.6-1.5-3.6-2.5-5.8-2.5c-4,0-6.6,3-6.6,6.8s2.6,6.8,6.6,6.8
		c2.2,0,4.3-1,5.8-2.5l3.7,3.6c-2.2,2.4-5.3,4.1-9.5,4.1c-7.1,0-12.2-5.3-12.2-12S133.5,318.5,140.6,318.5z"/>
	<path d="M153.2,319.3h14.8v4.9h-9.3v4h8.6v4.8h-8.6v4h9.8v4.7h-15.3V319.3z"/>
	<path d="M181.4,319.3h14.5v4.9h-9v4.8h8.3v4.8h-8.3v8h-5.5V319.3z"/>
	<path d="M198.5,319.3h5.5v22.4h-5.5V319.3z"/>
	<path d="M207.9,319.3h14.8v4.9h-9.3v4h8.6v4.8h-8.6v4h9.8v4.7h-15.3V319.3z"/>
	<path d="M226.1,319.3h5.5V337h9.8v4.7h-15.3V319.3z"/>
	<path d="M244.4,319.3h7.8c6.6,0,11.7,4.9,11.7,11.2c0,6-4.6,11.3-11.7,11.3h-7.8V319.3z M252.1,336.7c3.5,0,6.2-2.5,6.2-6.2
		c0-3.5-2.4-6.2-6.2-6.2h-2.2v12.5H252.1z"/>
	<path d="M113.9,372.5c0,1.3,1,2.4,2.3,2.4c1.4,0,2.2-0.8,2.2-1.9c0-1.7-2.2-2.2-4-2.8c-3.8-1.3-5.9-3.1-5.9-7c0-4,3.4-7.3,7.6-7.3
		c5,0,7.3,3.2,7.6,7.3h-5.2c0-1.3-0.8-2.3-2.3-2.3c-1.2,0-2.4,0.7-2.4,2.2c0,1.7,2.1,2,4,2.5c4,1.2,5.9,3.4,5.9,7
		c0,4-3.4,7.3-7.6,7.3c-4.9,0-7.7-3.3-7.7-7.3H113.9z"/>
	<path d="M140.2,355.9c4.3,0,7.2,1.6,9.6,4.1l-3.8,3.6c-1.6-1.5-3.6-2.5-5.8-2.5c-4,0-6.6,3-6.6,6.8s2.6,6.8,6.6,6.8
		c2.2,0,4.3-1,5.8-2.5l3.7,3.6c-2.2,2.4-5.3,4.1-9.5,4.1c-7.1,0-12.2-5.3-12.2-12S133.1,355.9,140.2,355.9z"/>
	<path d="M161.8,355.9h1l11,23.2h-5.9l-1.1-2.3h-8.9l-1.1,2.3h-5.9L161.8,355.9z M164.8,372.9l-2.6-5.7h-0.1l-2.6,5.7H164.8z"/>
	<path d="M176.5,356.7h5.8L191,370v-13.3h5.5v22.4h-5.7l-8.8-13.4v13.4h-5.5V356.7z"/>
</g>
<rect id="_x3C_Slice_x3E_" class="st0" width="299" height="399"/>
</svg>
