<svg version="1.1" viewBox="0.0 0.0 960.0 540.0" fill="none" stroke="none" stroke-linecap="square" stroke-miterlimit="10" xmlns:xlink="http://www.w3.org/1999/xlink" xmlns="http://www.w3.org/2000/svg"><clipPath id="g3515752ddbf_0_5.0"><path d="m0 0l960.0 0l0 540.0l-960.0 0l0 -540.0z" clip-rule="nonzero"/></clipPath><g clip-path="url(#g3515752ddbf_0_5.0)"><path fill="#ffffff" d="m0 0l960.0 0l0 540.0l-960.0 0z" fill-rule="evenodd"/><path fill="#eeeeee" d="m341.1325 353.0705l0 0c0 -14.481476 11.739532 -26.221008 26.220978 -26.221008l199.33755 0c6.9542236 0 13.623657 2.7625732 18.541016 7.679962c4.9174194 4.917389 7.6799927 11.586792 7.6799927 18.541046l0 104.88083c0 14.481445 -11.739563 26.221008 -26.221008 26.221008l-199.33755 0c-14.481445 0 -26.220978 -11.739563 -26.220978 -26.221008z" fill-rule="evenodd"/><path stroke="#666666" stroke-width="3.0" stroke-linejoin="round" stroke-linecap="butt" d="m341.1325 353.0705l0 0c0 -14.481476 11.739532 -26.221008 26.220978 -26.221008l199.33755 0c6.9542236 0 13.623657 2.7625732 18.541016 7.679962c4.9174194 4.917389 7.6799927 11.586792 7.6799927 18.541046l0 104.88083c0 14.481445 -11.739563 26.221008 -26.221008 26.221008l-199.33755 0c-14.481445 0 -26.220978 -11.739563 -26.220978 -26.221008z" fill-rule="evenodd"/><path fill="#000000" d="m463.29828 411.6684q-0.515625 0 -0.859375 -0.171875q-0.34375 -0.1875 -0.375 -0.375q-0.421875 -2.5 -0.921875 -5.296875q-0.5 -2.796875 -1.09375 -5.453125q-0.578125 -2.65625 -1.328125 -4.765625q-0.75 -2.125 -1.765625 -3.234375q0.328125 -0.265625 0.703125 -0.453125q0.375 -0.1875 0.75 -0.28125q0.375 -0.109375 0.625 -0.109375q0.90625 0 1.515625 0.3125q0.625 0.296875 1.09375 1.25q0.484375 0.9375 0.921875 2.828125q0.4375 1.890625 0.984375 5.03125q0.5625 3.125 1.359375 7.828125q1.125 -1.28125 2.5625 -2.875q1.453125 -1.59375 2.984375 -3.40625q1.546875 -1.8125 2.984375 -3.671875q1.4375 -1.875 2.59375 -3.734375q1.15625 -1.859375 1.796875 -3.515625q0.453125 0.734375 0.5625 1.421875q0.109375 0.6875 -0.078125 1.390625q-0.171875 0.703125 -0.625 1.515625q-0.4375 0.8125 -1.140625 1.8125q-1.5625 2.296875 -3.46875 4.5625q-1.890625 2.25 -3.875 4.46875q-1.96875 2.203125 -3.859375 4.46875q-0.46875 0.21875 -1.078125 0.34375q-0.609375 0.109375 -0.96875 0.109375zm-8.828125 5.71875q-0.9375 0 -1.546875 -0.15625q-0.609375 -0.15625 -0.9375 -0.4375q-0.3125 -0.296875 -0.40625 -0.640625q-0.09375 -0.359375 -0.015625 -0.78125q0.09375 -0.40625 0.53125 -1.65625q0.4375 -1.25 1.109375 -3.09375q0.6875 -1.84375 1.4375 -3.953125q0.75 -2.109375 1.5 -4.265625q0.75 -2.15625 1.328125 -4.09375q0.59375 -1.9375 0.875 -3.3125q0.265625 -1.21875 0.3125 -1.984375q0.0625 -0.765625 -0.0625 -1.25q1.15625 0.40625 1.625 1.0625q0.46875 0.65625 0.5 1.515625q0.03125 0.84375 -0.1875 1.859375q-0.546875 2.59375 -1.578125 5.515625q-1.03125 2.90625 -2.171875 6.15625q-1.125 3.25 -1.890625 6.859375q-0.140625 0.671875 -0.234375 1.34375q-0.078125 0.671875 -0.1875 1.3125zm19.375 0.828125q-1.34375 -0.46875 -2.015625 -1.15625q-0.671875 -0.6875 -0.8125 -1.65625q-0.125 -0.984375 0.15625 -2.296875q0.1875 -0.90625 0.625 -2.25q0.4375 -1.34375 1.03125 -3.03125q0.59375 -1.703125 1.28125 -3.671875q0.703125 -1.96875 1.390625 -4.0625q0.6875 -2.09375 1.28125 -4.25q0.59375 -2.15625 1.046875 -4.265625q0.921875 0.09375 1.5 0.390625q0.578125 0.28125 0.859375 0.765625q0.28125 0.46875 0.3125 1.125q0.03125 0.65625 -0.140625 1.484375q-0.21875 1.03125 -0.8125 2.828125q-0.578125 1.78125 -1.375 4.0q-0.78125 2.203125 -1.59375 4.515625q-0.8125 2.296875 -1.46875 4.390625q-0.65625 2.09375 -0.984375 3.65625q-0.515625 2.4375 -0.28125 3.484375z" fill-rule="nonzero"/><path fill="#000000" d="m482.9311 427.3559q-0.171875 0.765625 -0.234375 1.328125q-0.046875 0.5625 0.015625 0.859375q-0.765625 -0.296875 -1.140625 -0.796875q-0.375 -0.5 -0.421875 -1.234375q-0.03125 -0.734375 0.203125 -1.78125q0.1875 -0.9375 0.609375 -2.078125q0.421875 -1.15625 0.84375 -2.34375q0.421875 -1.203125 0.65625 -2.296875q0.109375 -0.546875 0.21875 -1.09375q0.109375 -0.546875 0.125 -1.078125q0.140625 -0.015625 0.3125 -0.03125q0.171875 -0.015625 0.296875 -0.015625q0.96875 0 1.296875 0.4375q0.34375 0.421875 0.125 1.40625q-0.125 0.609375 -0.65625 1.921875q-0.53125 1.296875 -1.171875 3.046875q-0.640625 1.75 -1.078125 3.75zm3.5625 -12.328125q-0.265625 0.078125 -0.578125 0.15625q-0.3125 0.0625 -0.609375 0.0625q-0.3125 0 -0.59375 -0.09375q-0.265625 -0.109375 -0.421875 -0.34375q-0.140625 -0.25 -0.0625 -0.65625q0.078125 -0.359375 0.28125 -0.703125q0.203125 -0.34375 0.40625 -0.703125q0.28125 -0.109375 0.59375 -0.15625q0.328125 -0.0625 0.609375 -0.0625q0.296875 0 0.578125 0.09375q0.28125 0.09375 0.421875 0.34375q0.15625 0.234375 0.0625 0.65625q-0.0625 0.34375 -0.28125 0.703125q-0.203125 0.34375 -0.40625 0.703125z" fill-rule="nonzero"/><path fill="#eeeeee" d="m592.1327 83.11768l0 0c0 -14.481453 11.739502 -26.220997 26.221008 -26.220997l199.33752 0c6.9542236 0 13.623657 2.7625618 18.541016 7.6799507c4.9174194 4.9173965 7.6799927 11.586807 7.6799927 18.541046l0 104.88084c0 14.481461 -11.739563 26.221008 -26.221008 26.221008l-199.33752 0c-14.481506 0 -26.221008 -11.739548 -26.221008 -26.221008z" fill-rule="evenodd"/><path stroke="#666666" stroke-width="3.0" stroke-linejoin="round" stroke-linecap="butt" d="m592.1327 83.11768l0 0c0 -14.481453 11.739502 -26.220997 26.221008 -26.220997l199.33752 0c6.9542236 0 13.623657 2.7625618 18.541016 7.6799507c4.9174194 4.9173965 7.6799927 11.586807 7.6799927 18.541046l0 104.88084c0 14.481461 -11.739563 26.221008 -26.221008 26.221008l-199.33752 0c-14.481506 0 -26.221008 -11.739548 -26.221008 -26.221008z" fill-rule="evenodd"/><path fill="#000000" d="m700.7502 146.2156q-0.515625 0 -0.859375 -0.171875q-0.34375 -0.1875 -0.375 -0.375q-0.421875 -2.5 -0.921875 -5.296875q-0.5 -2.796875 -1.09375 -5.453125q-0.578125 -2.65625 -1.328125 -4.765625q-0.75 -2.125 -1.765625 -3.234375q0.328125 -0.265625 0.703125 -0.453125q0.375 -0.1875 0.75 -0.28125q0.375 -0.109375 0.625 -0.109375q0.90625 0 1.515625 0.3125q0.625 0.296875 1.09375 1.25q0.484375 0.9375 0.921875 2.828125q0.4375 1.890625 0.984375 5.03125q0.5625 3.125 1.359375 7.828125q1.125 -1.28125 2.5625 -2.875q1.453125 -1.59375 2.984375 -3.40625q1.546875 -1.8125 2.984375 -3.671875q1.4375 -1.875 2.59375 -3.734375q1.15625 -1.859375 1.796875 -3.515625q0.453125 0.734375 0.5625 1.421875q0.109375 0.6875 -0.078125 1.390625q-0.171875 0.703125 -0.625 1.515625q-0.4375 0.8125 -1.140625 1.8125q-1.5625 2.296875 -3.46875 4.5625q-1.890625 2.25 -3.875 4.46875q-1.96875 2.203125 -3.859375 4.46875q-0.46875 0.21875 -1.078125 0.34375q-0.609375 0.109375 -0.96875 0.109375zm-8.828125 5.71875q-0.9375 0 -1.546875 -0.15625q-0.609375 -0.15625 -0.9375 -0.4375q-0.3125 -0.296875 -0.40625 -0.640625q-0.09375 -0.359375 -0.015625 -0.78125q0.09375 -0.40625 0.53125 -1.65625q0.4375 -1.25 1.109375 -3.09375q0.6875 -1.84375 1.4375 -3.953125q0.75 -2.109375 1.5 -4.265625q0.75 -2.15625 1.328125 -4.09375q0.59375 -1.9375 0.875 -3.3125q0.265625 -1.21875 0.3125 -1.984375q0.0625 -0.765625 -0.0625 -1.25q1.15625 0.40625 1.625 1.0625q0.46875 0.65625 0.5 1.515625q0.03125 0.84375 -0.1875 1.859375q-0.546875 2.59375 -1.578125 5.515625q-1.03125 2.90625 -2.171875 6.15625q-1.125 3.25 -1.890625 6.859375q-0.140625 0.671875 -0.234375 1.34375q-0.078125 0.671875 -0.1875 1.3125zm19.375 0.828125q-1.34375 -0.46875 -2.015625 -1.15625q-0.671875 -0.6875 -0.8125 -1.65625q-0.125 -0.984375 0.15625 -2.296875q0.1875 -0.90625 0.625 -2.25q0.4375 -1.34375 1.03125 -3.03125q0.59375 -1.703125 1.28125 -3.671875q0.703125 -1.96875 1.390625 -4.0625q0.6875 -2.09375 1.28125 -4.25q0.59375 -2.15625 1.046875 -4.265625q0.921875 0.09375 1.5 0.390625q0.578125 0.28125 0.859375 0.765625q0.28125 0.46875 0.3125 1.125q0.03125 0.65625 -0.140625 1.484375q-0.21875 1.03125 -0.8125 2.828125q-0.578125 1.78125 -1.375 4.0q-0.78125 2.203125 -1.59375 4.515625q-0.8125 2.296875 -1.46875 4.390625q-0.65625 2.09375 -0.984375 3.65625q-0.515625 2.4375 -0.28125 3.484375z" fill-rule="nonzero"/><path fill="#000000" d="m733.8276 123.46561q-1.5 0.984375 -2.828125 2.59375q-1.3125 1.609375 -2.296875 3.59375q-0.96875 1.984375 -1.421875 4.109375q-0.28125 1.28125 -0.3125 2.578125q-0.015625 1.28125 0.1875 2.453125q0.21875 1.171875 0.640625 2.09375q0.421875 0.921875 1.015625 1.46875q-0.03125 0.15625 -0.21875 0.28125q-0.171875 0.140625 -0.34375 0.1875q-1.546875 -0.984375 -2.4375 -2.3125q-0.875 -1.328125 -1.078125 -3.046875q-0.203125 -1.71875 0.234375 -3.8125q0.390625 -1.828125 1.140625 -3.4375q0.765625 -1.609375 1.84375 -2.96875q1.09375 -1.375 2.5 -2.4375q1.40625 -1.0625 3.09375 -1.8125q0.171875 0.03125 0.296875 0.203125q0.140625 0.15625 -0.015625 0.265625z" fill-rule="nonzero"/><path fill="#000000" d="m729.43756 139.7781l6.1875 -8.03125l-2.671875 -7.1875l2.171875 0l1.984375 5.796875l4.4375 -5.796875l2.34375 0l-5.765625 7.328125l2.890625 7.890625l-2.25 0l-2.140625 -6.421875l-4.84375 6.421875l-2.34375 0z" fill-rule="nonzero"/><path fill="#000000" d="m741.84094 142.35623q1.5 -0.984375 2.8125 -2.59375q1.328125 -1.609375 2.296875 -3.59375q0.984375 -2.0 1.4375 -4.109375q0.265625 -1.28125 0.296875 -2.5625q0.03125 -1.296875 -0.1875 -2.46875q-0.21875 -1.171875 -0.640625 -2.09375q-0.40625 -0.9375 -1.0 -1.46875q0.03125 -0.15625 0.203125 -0.296875q0.1875 -0.140625 0.359375 -0.171875q1.546875 0.953125 2.421875 2.296875q0.890625 1.34375 1.09375 3.0625q0.203125 1.703125 -0.234375 3.8125q-0.390625 1.828125 -1.15625 3.4375q-0.75 1.609375 -1.84375 2.984375q-1.078125 1.359375 -2.484375 2.421875q-1.390625 1.0625 -3.09375 1.8125q-0.140625 -0.046875 -0.28125 -0.21875q-0.15625 -0.15625 0 -0.25z" fill-rule="nonzero"/><path fill="#eeeeee" d="m97.74729 83.11768l0 0c0 -14.481453 11.73954 -26.220997 26.221 -26.220997l199.33752 0c6.954254 0 13.623657 2.7625618 18.541046 7.6799507c4.917389 4.9173965 7.679962 11.586807 7.679962 18.541046l0 104.88084c0 14.481461 -11.739532 26.221008 -26.221008 26.221008l-199.33752 0c-14.481461 0 -26.221 -11.739548 -26.221 -26.221008z" fill-rule="evenodd"/><path stroke="#666666" stroke-width="3.0" stroke-linejoin="round" stroke-linecap="butt" d="m97.74729 83.11768l0 0c0 -14.481453 11.73954 -26.220997 26.221 -26.220997l199.33752 0c6.954254 0 13.623657 2.7625618 18.541046 7.6799507c4.917389 4.9173965 7.679962 11.586807 7.679962 18.541046l0 104.88084c0 14.481461 -11.739532 26.221008 -26.221008 26.221008l-199.33752 0c-14.481461 0 -26.221 -11.739548 -26.221 -26.221008z" fill-rule="evenodd"/><path fill="#000000" d="m206.15654 146.2156q-0.515625 0 -0.859375 -0.171875q-0.34375 -0.1875 -0.375 -0.375q-0.421875 -2.5 -0.921875 -5.296875q-0.5 -2.796875 -1.09375 -5.453125q-0.578125 -2.65625 -1.328125 -4.765625q-0.75 -2.125 -1.765625 -3.234375q0.328125 -0.265625 0.703125 -0.453125q0.375 -0.1875 0.75 -0.28125q0.375 -0.109375 0.625 -0.109375q0.90625 0 1.515625 0.3125q0.625 0.296875 1.09375 1.25q0.484375 0.9375 0.921875 2.828125q0.4375 1.890625 0.984375 5.03125q0.5625 3.125 1.359375 7.828125q1.125 -1.28125 2.5625 -2.875q1.453125 -1.59375 2.984375 -3.40625q1.546875 -1.8125 2.984375 -3.671875q1.4375 -1.875 2.59375 -3.734375q1.15625 -1.859375 1.796875 -3.515625q0.453125 0.734375 0.5625 1.421875q0.109375 0.6875 -0.078125 1.390625q-0.171875 0.703125 -0.625 1.515625q-0.4375 0.8125 -1.140625 1.8125q-1.5625 2.296875 -3.46875 4.5625q-1.890625 2.25 -3.875 4.46875q-1.96875 2.203125 -3.859375 4.46875q-0.46875 0.21875 -1.078125 0.34375q-0.609375 0.109375 -0.96875 0.109375zm-8.828125 5.71875q-0.9375 0 -1.546875 -0.15625q-0.609375 -0.15625 -0.9375 -0.4375q-0.3125 -0.296875 -0.40625 -0.640625q-0.09375 -0.359375 -0.015625 -0.78125q0.09375 -0.40625 0.53125 -1.65625q0.4375 -1.25 1.109375 -3.09375q0.6875 -1.84375 1.4375 -3.953125q0.75 -2.109375 1.5 -4.265625q0.75 -2.15625 1.328125 -4.09375q0.59375 -1.9375 0.875 -3.3125q0.265625 -1.21875 0.3125 -1.984375q0.0625 -0.765625 -0.0625 -1.25q1.15625 0.40625 1.625 1.0625q0.46875 0.65625 0.5 1.515625q0.03125 0.84375 -0.1875 1.859375q-0.546875 2.59375 -1.578125 5.515625q-1.03125 2.90625 -2.171875 6.15625q-1.125 3.25 -1.890625 6.859375q-0.140625 0.671875 -0.234375 1.34375q-0.078125 0.671875 -0.1875 1.3125zm19.375 0.828125q-1.34375 -0.46875 -2.015625 -1.15625q-0.671875 -0.6875 -0.8125 -1.65625q-0.125 -0.984375 0.15625 -2.296875q0.1875 -0.90625 0.625 -2.25q0.4375 -1.34375 1.03125 -3.03125q0.59375 -1.703125 1.28125 -3.671875q0.703125 -1.96875 1.390625 -4.0625q0.6875 -2.09375 1.28125 -4.25q0.59375 -2.15625 1.046875 -4.265625q0.921875 0.09375 1.5 0.390625q0.578125 0.28125 0.859375 0.765625q0.28125 0.46875 0.3125 1.125q0.03125 0.65625 -0.140625 1.484375q-0.21875 1.03125 -0.8125 2.828125q-0.578125 1.78125 -1.375 4.0q-0.78125 2.203125 -1.59375 4.515625q-0.8125 2.296875 -1.46875 4.390625q-0.65625 2.09375 -0.984375 3.65625q-0.515625 2.4375 -0.28125 3.484375z" fill-rule="nonzero"/><path fill="#000000" d="m239.23392 123.46561q-1.5 0.984375 -2.828125 2.59375q-1.3125 1.609375 -2.296875 3.59375q-0.96875 1.984375 -1.421875 4.109375q-0.28125 1.28125 -0.3125 2.578125q-0.015625 1.28125 0.1875 2.453125q0.21875 1.171875 0.640625 2.09375q0.421875 0.921875 1.015625 1.46875q-0.03125 0.15625 -0.21875 0.28125q-0.171875 0.140625 -0.34375 0.1875q-1.546875 -0.984375 -2.4375 -2.3125q-0.875 -1.328125 -1.078125 -3.046875q-0.203125 -1.71875 0.234375 -3.8125q0.390625 -1.828125 1.140625 -3.4375q0.765625 -1.609375 1.84375 -2.96875q1.09375 -1.375 2.5 -2.4375q1.40625 -1.0625 3.09375 -1.8125q0.171875 0.03125 0.296875 0.203125q0.140625 0.15625 -0.015625 0.265625z" fill-rule="nonzero"/><path fill="#000000" d="m237.57825 140.57498l-1.046875 -0.828125l1.21875 -1.46875q-0.34375 -0.546875 -0.53125 -1.21875q-0.1875 -0.671875 -0.1875 -1.5q0 -1.078125 0.234375 -2.140625q0.25 -1.0625 0.703125 -2.0q0.46875 -0.9375 1.15625 -1.65625q0.703125 -0.734375 1.609375 -1.140625q0.90625 -0.40625 2.015625 -0.40625q0.84375 0 1.484375 0.1875q0.65625 0.1875 1.171875 0.5625l1.109375 -1.34375l1.046875 0.796875l-1.25 1.375q0.328125 0.5 0.46875 1.21875q0.15625 0.71875 0.15625 1.4375q0 1.0625 -0.234375 2.140625q-0.21875 1.078125 -0.6875 2.03125q-0.453125 0.953125 -1.140625 1.703125q-0.671875 0.75 -1.578125 1.1875q-0.90625 0.4375 -2.03125 0.4375q-0.765625 0 -1.421875 -0.1875q-0.65625 -0.1875 -1.171875 -0.546875l-1.09375 1.359375zm3.765625 -2.03125q0.65625 0 1.234375 -0.265625q0.59375 -0.265625 1.078125 -0.78125q0.5 -0.515625 0.859375 -1.234375q0.359375 -0.71875 0.546875 -1.640625q0.203125 -0.921875 0.203125 -2.0q0 -0.375 -0.046875 -0.703125q-0.03125 -0.328125 -0.125 -0.53125l-5.4375 6.625q0.296875 0.265625 0.734375 0.40625q0.453125 0.125 0.953125 0.125zm-2.421875 -1.703125l5.484375 -6.671875q-0.25 -0.21875 -0.640625 -0.375q-0.390625 -0.15625 -0.984375 -0.15625q-0.734375 0 -1.359375 0.296875q-0.625 0.296875 -1.125 0.84375q-0.5 0.546875 -0.859375 1.28125q-0.34375 0.71875 -0.53125 1.59375q-0.1875 0.859375 -0.1875 1.796875q0 0.453125 0.046875 0.828125q0.0625 0.359375 0.15625 0.5625z" fill-rule="nonzero"/><path fill="#000000" d="m247.66385 142.35623q1.5 -0.984375 2.8125 -2.59375q1.328125 -1.609375 2.296875 -3.59375q0.984375 -2.0 1.4375 -4.109375q0.265625 -1.28125 0.296875 -2.5625q0.03125 -1.296875 -0.1875 -2.46875q-0.21875 -1.171875 -0.640625 -2.09375q-0.40625 -0.9375 -1.0 -1.46875q0.03125 -0.15625 0.203125 -0.296875q0.1875 -0.140625 0.359375 -0.171875q1.546875 0.953125 2.421875 2.296875q0.890625 1.34375 1.09375 3.0625q0.203125 1.703125 -0.234375 3.8125q-0.390625 1.828125 -1.15625 3.4375q-0.75 1.609375 -1.84375 2.984375q-1.078125 1.359375 -2.484375 2.421875q-1.390625 1.0625 -3.09375 1.8125q-0.140625 -0.046875 -0.28125 -0.21875q-0.15625 -0.15625 0 -0.25z" fill-rule="nonzero"/><path fill="#000000" fill-opacity="0.0" d="m467.02225 326.8495l0 -56.314972l250.99216 0l0 -56.314957" fill-rule="evenodd"/><path stroke="#666666" stroke-width="3.0" stroke-linejoin="round" stroke-linecap="butt" d="m467.02228 326.8495l0 -56.31494l250.99207 0l0 -38.314972" fill-rule="evenodd"/><path fill="#666666" stroke="#666666" stroke-width="3.0" stroke-linecap="butt" d="m722.96954 232.21957l-4.9552 -13.614304l-4.9552 13.614304z" fill-rule="evenodd"/><path fill="#000000" fill-opacity="0.0" d="m467.02225 326.8495l0 -56.314972l-243.37007 0l0 -56.314957" fill-rule="evenodd"/><path stroke="#666666" stroke-width="3.0" stroke-linejoin="round" stroke-linecap="butt" d="m467.02228 326.8495l0 -56.31494l-243.3701 0l0 -38.314972" fill-rule="evenodd"/><path fill="#666666" stroke="#666666" stroke-width="3.0" stroke-linecap="butt" d="m228.60736 232.21957l-4.955185 -13.614304l-4.9552 13.614304z" fill-rule="evenodd"/><path fill="#000000" fill-opacity="0.0" d="m553.46704 267.3386l327.52753 0l0 64.944885l-327.52753 0z" fill-rule="evenodd"/><path fill="#000000" d="m589.77966 282.23795q3.3125 0 4.84375 1.296875q1.53125 1.296875 1.53125 3.71875q0 1.078125 -0.359375 2.0625q-0.359375 0.984375 -1.15625 1.734375q-0.796875 0.734375 -2.09375 1.171875q-1.296875 0.421875 -3.171875 0.421875l-2.078125 0l0 6.734375l-2.0 0l0 -17.140625l4.484375 0zm-0.1875 1.703125l-2.296875 0l0 6.984375l1.859375 0q1.640625 0 2.734375 -0.34375q1.09375 -0.359375 1.640625 -1.140625q0.5625 -0.796875 0.5625 -2.109375q0 -1.71875 -1.09375 -2.546875q-1.09375 -0.84375 -3.40625 -0.84375zm15.6875 2.359375q0.390625 0 0.8125 0.046875q0.421875 0.03125 0.75 0.109375l-0.25 1.796875q-0.3125 -0.078125 -0.703125 -0.125q-0.390625 -0.046875 -0.734375 -0.046875q-0.765625 0 -1.453125 0.3125q-0.6875 0.3125 -1.203125 0.890625q-0.515625 0.578125 -0.8125 1.390625q-0.28125 0.8125 -0.28125 1.8125l0 6.890625l-1.96875 0l0 -12.84375l1.625 0l0.203125 2.359375l0.09375 0q0.390625 -0.703125 0.953125 -1.296875q0.5625 -0.59375 1.296875 -0.9375q0.75 -0.359375 1.671875 -0.359375zm8.917969 0q1.640625 0 2.8125 0.734375q1.171875 0.71875 1.78125 2.03125q0.625 1.296875 0.625 3.046875l0 1.203125l-8.859375 0q0.03125 2.265625 1.109375 3.453125q1.09375 1.171875 3.078125 1.171875q1.21875 0 2.15625 -0.21875q0.9375 -0.21875 1.953125 -0.65625l0 1.71875q-0.984375 0.421875 -1.9375 0.625q-0.953125 0.203125 -2.25 0.203125q-1.859375 0 -3.234375 -0.75q-1.375 -0.765625 -2.140625 -2.21875q-0.75 -1.46875 -0.75 -3.59375q0 -2.078125 0.6875 -3.59375q0.703125 -1.515625 1.96875 -2.328125q1.28125 -0.828125 3.0 -0.828125zm-0.03125 1.59375q-1.546875 0 -2.484375 1.015625q-0.921875 1.015625 -1.09375 2.84375l6.796875 0q-0.015625 -1.140625 -0.359375 -2.015625q-0.34375 -0.875 -1.046875 -1.359375q-0.703125 -0.484375 -1.8125 -0.484375zm7.4765625 5.90625l0 -1.734375l5.8125 0l0 1.734375l-5.8125 0zm12.957031 4.21875q0.484375 0 0.984375 -0.078125q0.5 -0.09375 0.8125 -0.203125l0 1.515625q-0.328125 0.15625 -0.9375 0.25q-0.609375 0.109375 -1.171875 0.109375q-1.03125 0 -1.859375 -0.359375q-0.828125 -0.359375 -1.328125 -1.203125q-0.5 -0.859375 -0.5 -2.375l0 -7.625l-1.828125 0l0 -0.9375l1.84375 -0.765625l0.765625 -2.796875l1.171875 0l0 2.984375l3.765625 0l0 1.515625l-3.765625 0l0 7.5625q0 1.203125 0.5625 1.8125q0.5625 0.59375 1.484375 0.59375zm10.2421875 -11.71875q0.390625 0 0.8125 0.046875q0.421875 0.03125 0.75 0.109375l-0.25 1.796875q-0.3125 -0.078125 -0.703125 -0.125q-0.390625 -0.046875 -0.734375 -0.046875q-0.765625 0 -1.453125 0.3125q-0.6875 0.3125 -1.203125 0.890625q-0.515625 0.578125 -0.8125 1.390625q-0.28125 0.8125 -0.28125 1.8125l0 6.890625l-1.96875 0l0 -12.84375l1.625 0l0.203125 2.359375l0.09375 0q0.390625 -0.703125 0.953125 -1.296875q0.5625 -0.59375 1.296875 -0.9375q0.75 -0.359375 1.671875 -0.359375zm8.777344 0.015625q2.296875 0 3.40625 1.03125q1.109375 1.03125 1.109375 3.296875l0 8.734375l-1.40625 0l-0.375 -1.90625l-0.09375 0q-0.546875 0.703125 -1.140625 1.1875q-0.578125 0.46875 -1.34375 0.71875q-0.765625 0.234375 -1.875 0.234375q-1.171875 0 -2.09375 -0.40625q-0.90625 -0.421875 -1.421875 -1.25q-0.515625 -0.828125 -0.515625 -2.109375q0 -1.921875 1.515625 -2.953125q1.53125 -1.03125 4.640625 -1.125l2.21875 -0.09375l0 -0.78125q0 -1.671875 -0.71875 -2.328125q-0.71875 -0.671875 -2.015625 -0.671875q-1.0 0 -1.921875 0.296875q-0.90625 0.28125 -1.734375 0.6875l-0.59375 -1.484375q0.859375 -0.4375 1.984375 -0.75q1.125 -0.328125 2.375 -0.328125zm2.59375 6.734375l-1.953125 0.078125q-2.40625 0.09375 -3.390625 0.796875q-0.984375 0.6875 -0.984375 1.953125q0 1.09375 0.671875 1.625q0.671875 0.53125 1.765625 0.53125q1.71875 0 2.796875 -0.953125q1.09375 -0.953125 1.09375 -2.84375l0 -1.1875zm7.8828125 -6.515625l0 12.84375l-1.953125 0l0 -12.84375l1.953125 0zm-0.953125 -4.8125q0.484375 0 0.828125 0.3125q0.34375 0.3125 0.34375 0.96875q0 0.640625 -0.34375 0.96875q-0.34375 0.3125 -0.828125 0.3125q-0.5 0 -0.84375 -0.3125q-0.328125 -0.328125 -0.328125 -0.96875q0 -0.65625 0.328125 -0.96875q0.34375 -0.3125 0.84375 -0.3125zm11.152344 4.578125q2.28125 0 3.453125 1.125q1.171875 1.109375 1.171875 3.578125l0 8.375l-1.921875 0l0 -8.234375q0 -1.609375 -0.734375 -2.40625q-0.734375 -0.796875 -2.25 -0.796875q-2.125 0 -3.0 1.203125q-0.859375 1.203125 -0.859375 3.5l0 6.734375l-1.953125 0l0 -12.84375l1.578125 0l0.296875 1.84375l0.09375 0q0.421875 -0.671875 1.046875 -1.125q0.640625 -0.46875 1.421875 -0.703125q0.78125 -0.25 1.65625 -0.25zm10.578125 0.234375l0 12.84375l-1.953125 0l0 -12.84375l1.953125 0zm-0.953125 -4.8125q0.484375 0 0.828125 0.3125q0.34375 0.3125 0.34375 0.96875q0 0.640625 -0.34375 0.96875q-0.34375 0.3125 -0.828125 0.3125q-0.5 0 -0.84375 -0.3125q-0.328125 -0.328125 -0.328125 -0.96875q0 -0.65625 0.328125 -0.96875q0.34375 -0.3125 0.84375 -0.3125zm11.152344 4.578125q2.28125 0 3.453125 1.125q1.171875 1.109375 1.171875 3.578125l0 8.375l-1.921875 0l0 -8.234375q0 -1.609375 -0.734375 -2.40625q-0.734375 -0.796875 -2.25 -0.796875q-2.125 0 -3.0 1.203125q-0.859375 1.203125 -0.859375 3.5l0 6.734375l-1.953125 0l0 -12.84375l1.578125 0l0.296875 1.84375l0.09375 0q0.421875 -0.671875 1.046875 -1.125q0.640625 -0.46875 1.421875 -0.703125q0.78125 -0.25 1.65625 -0.25zm12.21875 18.84375q-2.53125 0 -3.90625 -0.953125q-1.375 -0.9375 -1.375 -2.625q0 -1.21875 0.765625 -2.078125q0.78125 -0.84375 2.140625 -1.125q-0.515625 -0.234375 -0.875 -0.703125q-0.34375 -0.46875 -0.34375 -1.078125q0 -0.703125 0.390625 -1.234375q0.390625 -0.546875 1.203125 -1.03125q-1.015625 -0.40625 -1.640625 -1.390625q-0.625 -0.984375 -0.625 -2.28125q0 -1.375 0.5625 -2.359375q0.578125 -0.984375 1.671875 -1.5q1.09375 -0.515625 2.640625 -0.515625q0.34375 0 0.6875 0.03125q0.34375 0.03125 0.65625 0.09375q0.3125 0.046875 0.546875 0.109375l4.40625 0l0 1.265625l-2.359375 0.28125q0.34375 0.46875 0.578125 1.109375q0.234375 0.640625 0.234375 1.421875q0 1.921875 -1.296875 3.0625q-1.296875 1.125 -3.578125 1.125q-0.53125 0 -1.09375 -0.09375q-0.578125 0.3125 -0.875 0.703125q-0.296875 0.390625 -0.296875 0.890625q0 0.375 0.21875 0.609375q0.234375 0.21875 0.671875 0.3125q0.4375 0.09375 1.046875 0.09375l2.25 0q2.109375 0 3.21875 0.890625q1.125 0.875 1.125 2.5625q0 2.140625 -1.734375 3.265625q-1.734375 1.140625 -5.015625 1.140625zm0.0625 -1.515625q1.59375 0 2.640625 -0.328125q1.046875 -0.328125 1.5625 -0.9375q0.53125 -0.59375 0.53125 -1.421875q0 -0.78125 -0.359375 -1.171875q-0.34375 -0.390625 -1.03125 -0.515625q-0.671875 -0.140625 -1.65625 -0.140625l-2.234375 0q-0.859375 0 -1.515625 0.265625q-0.640625 0.265625 -0.984375 0.796875q-0.34375 0.53125 -0.34375 1.3125q0 1.046875 0.875 1.59375q0.875 0.546875 2.515625 0.546875zm0.5 -10.28125q1.390625 0 2.09375 -0.703125q0.703125 -0.703125 0.703125 -2.046875q0 -1.4375 -0.71875 -2.15625q-0.703125 -0.71875 -2.109375 -0.71875q-1.328125 0 -2.046875 0.75q-0.71875 0.734375 -0.71875 2.15625q0 1.3125 0.71875 2.015625q0.734375 0.703125 2.078125 0.703125z" fill-rule="nonzero"/><path fill="#000000" d="m724.77576 299.61295q-1.203125 0 -2.09375 -0.234375q-0.890625 -0.21875 -1.59375 -0.578125l0 -2.078125q0.6875 0.40625 1.625 0.71875q0.953125 0.3125 1.96875 0.3125q0.890625 0 1.5 -0.234375q0.625 -0.234375 0.953125 -0.671875q0.328125 -0.4375 0.328125 -1.03125q0 -0.453125 -0.203125 -0.796875q-0.203125 -0.34375 -0.6875 -0.6875q-0.46875 -0.34375 -1.265625 -0.796875q-0.890625 -0.484375 -1.5 -0.984375q-0.609375 -0.515625 -0.921875 -1.125q-0.3125 -0.625 -0.3125 -1.453125q0 -1.15625 0.546875 -1.984375q0.5625 -0.84375 1.578125 -1.296875q1.015625 -0.46875 2.390625 -0.46875q1.15625 0 2.15625 0.265625q1.0 0.265625 1.78125 0.671875l-0.75 1.796875q-0.640625 -0.328125 -1.421875 -0.578125q-0.78125 -0.25 -1.75 -0.25q-0.96875 0 -1.578125 0.453125q-0.59375 0.4375 -0.59375 1.203125q0 0.421875 0.1875 0.75q0.1875 0.328125 0.640625 0.65625q0.453125 0.3125 1.25 0.75q0.796875 0.453125 1.4375 0.9375q0.65625 0.484375 1.03125 1.125q0.375 0.625 0.375 1.546875q0 1.3125 -0.625 2.21875q-0.625 0.90625 -1.765625 1.375q-1.125 0.46875 -2.6875 0.46875z" fill-rule="nonzero"/><path fill="#000000" d="m748.1156 295.86295q0 1.234375 -0.625 2.078125q-0.609375 0.828125 -1.75 1.25q-1.140625 0.421875 -2.71875 0.421875q-1.34375 0 -2.328125 -0.21875q-0.984375 -0.203125 -1.734375 -0.59375l0 -1.796875q0.796875 0.390625 1.875 0.71875q1.09375 0.3125 2.234375 0.3125q1.65625 0 2.40625 -0.53125q0.75 -0.546875 0.75 -1.484375q0 -0.515625 -0.296875 -0.921875q-0.296875 -0.40625 -1.0 -0.78125q-0.703125 -0.390625 -1.9375 -0.84375q-1.234375 -0.46875 -2.140625 -0.921875q-0.890625 -0.46875 -1.375 -1.140625q-0.484375 -0.671875 -0.484375 -1.734375q0 -1.625 1.3125 -2.5q1.328125 -0.875 3.46875 -0.875q1.15625 0 2.171875 0.234375q1.015625 0.21875 1.890625 0.609375l-0.65625 1.5625q-0.796875 -0.34375 -1.703125 -0.578125q-0.890625 -0.234375 -1.828125 -0.234375q-1.359375 0 -2.078125 0.453125q-0.71875 0.4375 -0.71875 1.203125q0 0.609375 0.328125 1.0q0.34375 0.375 1.078125 0.71875q0.734375 0.34375 1.953125 0.796875q1.203125 0.4375 2.078125 0.921875q0.875 0.46875 1.34375 1.140625q0.484375 0.671875 0.484375 1.734375zm7.28125 2.15625q0.484375 0 0.984375 -0.078125q0.5 -0.09375 0.8125 -0.203125l0 1.515625q-0.328125 0.15625 -0.9375 0.25q-0.609375 0.109375 -1.171875 0.109375q-1.03125 0 -1.859375 -0.359375q-0.828125 -0.359375 -1.328125 -1.203125q-0.5 -0.859375 -0.5 -2.375l0 -7.625l-1.828125 0l0 -0.9375l1.84375 -0.765625l0.765625 -2.796875l1.171875 0l0 2.984375l3.765625 0l0 1.515625l-3.765625 0l0 7.5625q0 1.203125 0.5625 1.8125q0.5625 0.59375 1.484375 0.59375zm9.3515625 -11.71875q1.640625 0 2.8125 0.734375q1.171875 0.71875 1.78125 2.03125q0.625 1.296875 0.625 3.046875l0 1.203125l-8.859375 0q0.03125 2.265625 1.109375 3.453125q1.09375 1.171875 3.078125 1.171875q1.21875 0 2.15625 -0.21875q0.9375 -0.21875 1.953125 -0.65625l0 1.71875q-0.984375 0.421875 -1.9375 0.625q-0.953125 0.203125 -2.25 0.203125q-1.859375 0 -3.234375 -0.75q-1.375 -0.765625 -2.140625 -2.21875q-0.75 -1.46875 -0.75 -3.59375q0 -2.078125 0.6875 -3.59375q0.703125 -1.515625 1.96875 -2.328125q1.28125 -0.828125 3.0 -0.828125zm-0.03125 1.59375q-1.546875 0 -2.484375 1.015625q-0.921875 1.015625 -1.09375 2.84375l6.796875 0q-0.015625 -1.140625 -0.359375 -2.015625q-0.34375 -0.875 -1.046875 -1.359375q-0.703125 -0.484375 -1.8125 -0.484375zm14.6015625 -1.59375q2.390625 0 3.8125 1.65625q1.4375 1.640625 1.4375 4.96875q0 2.1875 -0.65625 3.671875q-0.65625 1.484375 -1.84375 2.25q-1.1875 0.765625 -2.796875 0.765625q-1.03125 0 -1.8125 -0.265625q-0.765625 -0.28125 -1.3125 -0.734375q-0.546875 -0.453125 -0.90625 -1.0l-0.140625 0q0.03125 0.46875 0.078125 1.109375q0.0625 0.640625 0.0625 1.125l0 5.28125l-1.96875 0l0 -18.59375l1.609375 0l0.265625 1.890625l0.09375 0q0.375 -0.578125 0.90625 -1.0625q0.546875 -0.484375 1.3125 -0.765625q0.78125 -0.296875 1.859375 -0.296875zm-0.34375 1.640625q-1.34375 0 -2.15625 0.515625q-0.8125 0.515625 -1.1875 1.546875q-0.375 1.015625 -0.390625 2.5625l0 0.375q0 1.625 0.34375 2.75q0.359375 1.125 1.1875 1.71875q0.828125 0.578125 2.21875 0.578125q1.203125 0 2.0 -0.640625q0.796875 -0.640625 1.1875 -1.796875q0.390625 -1.15625 0.390625 -2.65625q0 -2.265625 -0.890625 -3.609375q-0.875 -1.34375 -2.703125 -1.34375zm17.292969 7.921875q0 1.234375 -0.625 2.078125q-0.609375 0.828125 -1.75 1.25q-1.140625 0.421875 -2.71875 0.421875q-1.34375 0 -2.328125 -0.21875q-0.984375 -0.203125 -1.734375 -0.59375l0 -1.796875q0.796875 0.390625 1.875 0.71875q1.09375 0.3125 2.234375 0.3125q1.65625 0 2.40625 -0.53125q0.75 -0.546875 0.75 -1.484375q0 -0.515625 -0.296875 -0.921875q-0.296875 -0.40625 -1.0 -0.78125q-0.703125 -0.390625 -1.9375 -0.84375q-1.234375 -0.46875 -2.140625 -0.921875q-0.890625 -0.46875 -1.375 -1.140625q-0.484375 -0.671875 -0.484375 -1.734375q0 -1.625 1.3125 -2.5q1.328125 -0.875 3.46875 -0.875q1.15625 0 2.171875 0.234375q1.015625 0.21875 1.890625 0.609375l-0.65625 1.5625q-0.796875 -0.34375 -1.703125 -0.578125q-0.890625 -0.234375 -1.828125 -0.234375q-1.359375 0 -2.078125 0.453125q-0.71875 0.4375 -0.71875 1.203125q0 0.609375 0.328125 1.0q0.34375 0.375 1.078125 0.71875q0.734375 0.34375 1.953125 0.796875q1.203125 0.4375 2.078125 0.921875q0.875 0.46875 1.34375 1.140625q0.484375 0.671875 0.484375 1.734375zm19.8125 3.484375l-2.28125 -7.46875q-0.15625 -0.484375 -0.296875 -0.9375q-0.125 -0.46875 -0.234375 -0.890625q-0.109375 -0.4375 -0.203125 -0.796875q-0.078125 -0.375 -0.140625 -0.640625l-0.078125 0q-0.046875 0.265625 -0.140625 0.640625q-0.078125 0.359375 -0.1875 0.796875q-0.109375 0.4375 -0.25 0.90625q-0.125 0.46875 -0.28125 0.953125l-2.390625 7.4375l-2.1875 0l-3.546875 -12.84375l2.015625 0l1.859375 7.09375q0.1875 0.703125 0.34375 1.390625q0.171875 0.6875 0.296875 1.296875q0.125 0.59375 0.1875 1.046875l0.09375 0q0.0625 -0.296875 0.15625 -0.703125q0.09375 -0.421875 0.203125 -0.875q0.109375 -0.46875 0.234375 -0.921875q0.125 -0.46875 0.265625 -0.875l2.359375 -7.453125l2.09375 0l2.296875 7.4375q0.171875 0.5625 0.34375 1.171875q0.171875 0.609375 0.3125 1.1875q0.140625 0.5625 0.1875 1.0l0.09375 0q0.046875 -0.390625 0.171875 -0.96875q0.140625 -0.59375 0.3125 -1.296875q0.171875 -0.703125 0.359375 -1.4375l1.875 -7.09375l1.96875 0l-3.546875 12.84375l-2.265625 0zm10.097656 -12.8125l0 12.84375l-1.953125 0l0 -12.84375l1.953125 0zm-0.953125 -4.8125q0.484375 0 0.828125 0.3125q0.34375 0.3125 0.34375 0.96875q0 0.640625 -0.34375 0.96875q-0.34375 0.3125 -0.828125 0.3125q-0.5 0 -0.84375 -0.3125q-0.328125 -0.328125 -0.328125 -0.96875q0 -0.65625 0.328125 -0.96875q0.34375 -0.3125 0.84375 -0.3125zm9.214844 16.296875q0.484375 0 0.984375 -0.078125q0.5 -0.09375 0.8125 -0.203125l0 1.515625q-0.328125 0.15625 -0.9375 0.25q-0.609375 0.109375 -1.171875 0.109375q-1.03125 0 -1.859375 -0.359375q-0.828125 -0.359375 -1.328125 -1.203125q-0.5 -0.859375 -0.5 -2.375l0 -7.625l-1.828125 0l0 -0.9375l1.84375 -0.765625l0.765625 -2.796875l1.171875 0l0 2.984375l3.765625 0l0 1.515625l-3.765625 0l0 7.5625q0 1.203125 0.5625 1.8125q0.5625 0.59375 1.484375 0.59375zm6.3515625 -16.875l0 5.453125q0 0.46875 -0.03125 0.9375q-0.015625 0.46875 -0.078125 0.875l0.125 0q0.40625 -0.6875 1.015625 -1.140625q0.625 -0.46875 1.40625 -0.703125q0.78125 -0.25 1.65625 -0.25q1.546875 0 2.578125 0.5q1.046875 0.484375 1.5625 1.515625q0.53125 1.03125 0.53125 2.671875l0 8.375l-1.921875 0l0 -8.234375q0 -1.609375 -0.734375 -2.40625q-0.734375 -0.796875 -2.25 -0.796875q-1.421875 0 -2.28125 0.546875q-0.84375 0.546875 -1.21875 1.609375q-0.359375 1.046875 -0.359375 2.5625l0 6.71875l-1.953125 0l0 -18.234375l1.953125 0z" fill-rule="nonzero"/><path fill="#000000" d="m604.7523 315.33484l0 12.84375l-1.953125 0l0 -12.84375l1.953125 0zm-0.953125 -4.8125q0.484375 0 0.828125 0.3125q0.34375 0.3125 0.34375 0.96875q0 0.640625 -0.34375 0.96875q-0.34375 0.3125 -0.828125 0.3125q-0.5 0 -0.84375 -0.3125q-0.328125 -0.328125 -0.328125 -0.96875q0 -0.65625 0.328125 -0.96875q0.34375 -0.3125 0.84375 -0.3125zm11.152344 4.578125q2.28125 0 3.453125 1.125q1.171875 1.109375 1.171875 3.578125l0 8.375l-1.921875 0l0 -8.234375q0 -1.609375 -0.734375 -2.40625q-0.734375 -0.796875 -2.25 -0.796875q-2.125 0 -3.0 1.203125q-0.859375 1.203125 -0.859375 3.5l0 6.734375l-1.953125 0l0 -12.84375l1.578125 0l0.296875 1.84375l0.09375 0q0.421875 -0.671875 1.046875 -1.125q0.640625 -0.46875 1.421875 -0.703125q0.78125 -0.25 1.65625 -0.25zm7.078125 18.84375q-0.59375 0 -1.03125 -0.09375q-0.453125 -0.078125 -0.78125 -0.203125l0 -1.578125q0.359375 0.125 0.734375 0.1875q0.375 0.0625 0.84375 0.0625q0.796875 0 1.28125 -0.453125q0.5 -0.4375 0.5 -1.609375l0 -14.921875l1.953125 0l0 14.875q0 1.171875 -0.375 2.0q-0.375 0.84375 -1.15625 1.28125q-0.765625 0.453125 -1.96875 0.453125zm1.375 -22.140625q0 -0.65625 0.328125 -0.96875q0.34375 -0.3125 0.84375 -0.3125q0.484375 0 0.828125 0.3125q0.34375 0.3125 0.34375 0.96875q0 0.640625 -0.34375 0.96875q-0.34375 0.3125 -0.828125 0.3125q-0.5 0 -0.84375 -0.3125q-0.328125 -0.328125 -0.328125 -0.96875zm11.183594 3.296875q1.640625 0 2.8125 0.734375q1.171875 0.71875 1.78125 2.03125q0.625 1.296875 0.625 3.046875l0 1.203125l-8.859375 0q0.03125 2.265625 1.109375 3.453125q1.09375 1.171875 3.078125 1.171875q1.21875 0 2.15625 -0.21875q0.9375 -0.21875 1.953125 -0.65625l0 1.71875q-0.984375 0.421875 -1.9375 0.625q-0.953125 0.203125 -2.25 0.203125q-1.859375 0 -3.234375 -0.75q-1.375 -0.765625 -2.140625 -2.21875q-0.75 -1.46875 -0.75 -3.59375q0 -2.078125 0.6875 -3.59375q0.703125 -1.515625 1.96875 -2.328125q1.28125 -0.828125 3.0 -0.828125zm-0.03125 1.59375q-1.546875 0 -2.484375 1.015625q-0.921875 1.015625 -1.09375 2.84375l6.796875 0q-0.015625 -1.140625 -0.359375 -2.015625q-0.34375 -0.875 -1.046875 -1.359375q-0.703125 -0.484375 -1.8125 -0.484375zm13.7109375 11.71875q-1.734375 0 -3.0625 -0.71875q-1.328125 -0.71875 -2.0625 -2.171875q-0.734375 -1.46875 -0.734375 -3.703125q0 -2.328125 0.765625 -3.8125q0.78125 -1.484375 2.15625 -2.1875q1.375 -0.71875 3.125 -0.71875q0.953125 0 1.84375 0.203125q0.90625 0.1875 1.484375 0.46875l-0.59375 1.640625q-0.578125 -0.234375 -1.359375 -0.421875q-0.765625 -0.1875 -1.421875 -0.1875q-1.34375 0 -2.234375 0.578125q-0.875 0.5625 -1.3125 1.6875q-0.4375 1.109375 -0.4375 2.734375q0 1.5625 0.421875 2.671875q0.421875 1.09375 1.265625 1.671875q0.859375 0.578125 2.140625 0.578125q1.015625 0 1.828125 -0.21875q0.828125 -0.21875 1.5 -0.515625l0 1.734375q-0.640625 0.328125 -1.4375 0.5q-0.796875 0.1875 -1.875 0.1875zm10.496094 -1.59375q0.484375 0 0.984375 -0.078125q0.5 -0.09375 0.8125 -0.203125l0 1.515625q-0.328125 0.15625 -0.9375 0.25q-0.609375 0.109375 -1.171875 0.109375q-1.03125 0 -1.859375 -0.359375q-0.828125 -0.359375 -1.328125 -1.203125q-0.5 -0.859375 -0.5 -2.375l0 -7.625l-1.828125 0l0 -0.9375l1.84375 -0.765625l0.765625 -2.796875l1.171875 0l0 2.984375l3.765625 0l0 1.515625l-3.765625 0l0 7.5625q0 1.203125 0.5625 1.8125q0.5625 0.59375 1.484375 0.59375zm9.3515625 -11.71875q1.640625 0 2.8125 0.734375q1.171875 0.71875 1.78125 2.03125q0.625 1.296875 0.625 3.046875l0 1.203125l-8.859375 0q0.03125 2.265625 1.109375 3.453125q1.09375 1.171875 3.078125 1.171875q1.21875 0 2.15625 -0.21875q0.9375 -0.21875 1.953125 -0.65625l0 1.71875q-0.984375 0.421875 -1.9375 0.625q-0.953125 0.203125 -2.25 0.203125q-1.859375 0 -3.234375 -0.75q-1.375 -0.765625 -2.140625 -2.21875q-0.75 -1.46875 -0.75 -3.59375q0 -2.078125 0.6875 -3.59375q0.703125 -1.515625 1.96875 -2.328125q1.28125 -0.828125 3.0 -0.828125zm-0.03125 1.59375q-1.546875 0 -2.484375 1.015625q-0.921875 1.015625 -1.09375 2.84375l6.796875 0q-0.015625 -1.140625 -0.359375 -2.015625q-0.34375 -0.875 -1.046875 -1.359375q-0.703125 -0.484375 -1.8125 -0.484375zm13.1328125 11.71875q-2.4375 0 -3.859375 -1.65625q-1.421875 -1.671875 -1.421875 -4.953125q0 -3.3125 1.453125 -5.0q1.453125 -1.703125 3.859375 -1.703125q1.015625 0 1.78125 0.265625q0.765625 0.265625 1.3125 0.71875q0.546875 0.453125 0.921875 1.03125l0.140625 0q-0.046875 -0.359375 -0.09375 -0.984375q-0.046875 -0.640625 -0.046875 -1.046875l0 -5.140625l1.953125 0l0 18.234375l-1.578125 0l-0.28125 -1.828125l-0.09375 0q-0.359375 0.578125 -0.921875 1.046875q-0.546875 0.46875 -1.3125 0.75q-0.765625 0.265625 -1.8125 0.265625zm0.296875 -1.625q2.0625 0 2.921875 -1.171875q0.859375 -1.171875 0.859375 -3.46875l0 -0.359375q0 -2.453125 -0.8125 -3.765625q-0.8125 -1.3125 -2.96875 -1.3125q-1.78125 0 -2.671875 1.390625q-0.890625 1.375 -0.890625 3.75q0 2.359375 0.875 3.65625q0.890625 1.28125 2.6875 1.28125zm24.355469 -2.125q0 1.234375 -0.625 2.078125q-0.609375 0.828125 -1.75 1.25q-1.140625 0.421875 -2.71875 0.421875q-1.34375 0 -2.328125 -0.21875q-0.984375 -0.203125 -1.734375 -0.59375l0 -1.796875q0.796875 0.390625 1.875 0.71875q1.09375 0.3125 2.234375 0.3125q1.65625 0 2.40625 -0.53125q0.75 -0.546875 0.75 -1.484375q0 -0.515625 -0.296875 -0.921875q-0.296875 -0.40625 -1.0 -0.78125q-0.703125 -0.390625 -1.9375 -0.84375q-1.234375 -0.46875 -2.140625 -0.921875q-0.890625 -0.46875 -1.375 -1.140625q-0.484375 -0.671875 -0.484375 -1.734375q0 -1.625 1.3125 -2.5q1.328125 -0.875 3.46875 -0.875q1.15625 0 2.171875 0.234375q1.015625 0.21875 1.890625 0.609375l-0.65625 1.5625q-0.796875 -0.34375 -1.703125 -0.578125q-0.890625 -0.234375 -1.828125 -0.234375q-1.359375 0 -2.078125 0.453125q-0.71875 0.4375 -0.71875 1.203125q0 0.609375 0.328125 1.0q0.34375 0.375 1.078125 0.71875q0.734375 0.34375 1.953125 0.796875q1.203125 0.4375 2.078125 0.921875q0.875 0.46875 1.34375 1.140625q0.484375 0.671875 0.484375 1.734375zm8.078125 -9.5625q1.640625 0 2.8125 0.734375q1.171875 0.71875 1.78125 2.03125q0.625 1.296875 0.625 3.046875l0 1.203125l-8.859375 0q0.03125 2.265625 1.109375 3.453125q1.09375 1.171875 3.078125 1.171875q1.21875 0 2.15625 -0.21875q0.9375 -0.21875 1.953125 -0.65625l0 1.71875q-0.984375 0.421875 -1.9375 0.625q-0.953125 0.203125 -2.25 0.203125q-1.859375 0 -3.234375 -0.75q-1.375 -0.765625 -2.140625 -2.21875q-0.75 -1.46875 -0.75 -3.59375q0 -2.078125 0.6875 -3.59375q0.703125 -1.515625 1.96875 -2.328125q1.28125 -0.828125 3.0 -0.828125zm-0.03125 1.59375q-1.546875 0 -2.484375 1.015625q-0.921875 1.015625 -1.09375 2.84375l6.796875 0q-0.015625 -1.140625 -0.359375 -2.015625q-0.34375 -0.875 -1.046875 -1.359375q-0.703125 -0.484375 -1.8125 -0.484375zm17.179688 17.234375l0 -5.515625q0 -0.453125 0.015625 -1.046875q0.03125 -0.609375 0.078125 -1.046875l-0.125 0q-0.53125 0.890625 -1.53125 1.5q-1.0 0.59375 -2.5625 0.59375q-2.359375 0 -3.796875 -1.65625q-1.421875 -1.671875 -1.421875 -4.984375q0 -2.15625 0.65625 -3.640625q0.65625 -1.5 1.859375 -2.265625q1.203125 -0.765625 2.796875 -0.765625q1.546875 0 2.515625 0.609375q0.96875 0.59375 1.515625 1.46875l0.09375 0l0.296875 -1.84375l1.546875 0l0 18.59375l-1.9375 0zm-3.765625 -7.140625q1.359375 0 2.171875 -0.5q0.828125 -0.515625 1.203125 -1.546875q0.390625 -1.03125 0.40625 -2.5625l0 -0.40625q0 -2.484375 -0.84375 -3.765625q-0.84375 -1.296875 -2.9375 -1.296875q-1.8125 0 -2.6875 1.390625q-0.875 1.375 -0.875 3.71875q0 2.359375 0.875 3.671875q0.875 1.296875 2.6875 1.296875zm20.433594 -11.453125l0 12.84375l-1.59375 0l-0.28125 -1.8125l-0.109375 0q-0.390625 0.671875 -1.03125 1.140625q-0.625 0.453125 -1.421875 0.671875q-0.78125 0.234375 -1.671875 0.234375q-1.53125 0 -2.5625 -0.484375q-1.03125 -0.5 -1.5625 -1.53125q-0.515625 -1.03125 -0.515625 -2.65625l0 -8.40625l1.96875 0l0 8.265625q0 1.609375 0.71875 2.40625q0.734375 0.78125 2.234375 0.78125q1.421875 0 2.265625 -0.53125q0.859375 -0.546875 1.234375 -1.59375q0.375 -1.046875 0.375 -2.5625l0 -6.765625l1.953125 0zm9.0625 -0.234375q1.640625 0 2.8125 0.734375q1.171875 0.71875 1.78125 2.03125q0.625 1.296875 0.625 3.046875l0 1.203125l-8.859375 0q0.03125 2.265625 1.109375 3.453125q1.09375 1.171875 3.078125 1.171875q1.21875 0 2.15625 -0.21875q0.9375 -0.21875 1.953125 -0.65625l0 1.71875q-0.984375 0.421875 -1.9375 0.625q-0.953125 0.203125 -2.25 0.203125q-1.859375 0 -3.234375 -0.75q-1.375 -0.765625 -2.140625 -2.21875q-0.75 -1.46875 -0.75 -3.59375q0 -2.078125 0.6875 -3.59375q0.703125 -1.515625 1.96875 -2.328125q1.28125 -0.828125 3.0 -0.828125zm-0.03125 1.59375q-1.546875 0 -2.484375 1.015625q-0.921875 1.015625 -1.09375 2.84375l6.796875 0q-0.015625 -1.140625 -0.359375 -2.015625q-0.34375 -0.875 -1.046875 -1.359375q-0.703125 -0.484375 -1.8125 -0.484375zm14.6484375 -1.59375q2.28125 0 3.453125 1.125q1.171875 1.109375 1.171875 3.578125l0 8.375l-1.921875 0l0 -8.234375q0 -1.609375 -0.734375 -2.40625q-0.734375 -0.796875 -2.25 -0.796875q-2.125 0 -3.0 1.203125q-0.859375 1.203125 -0.859375 3.5l0 6.734375l-1.953125 0l0 -12.84375l1.578125 0l0.296875 1.84375l0.09375 0q0.421875 -0.671875 1.046875 -1.125q0.640625 -0.46875 1.421875 -0.703125q0.78125 -0.25 1.65625 -0.25zm13.78125 13.3125q-1.734375 0 -3.0625 -0.71875q-1.328125 -0.71875 -2.0625 -2.171875q-0.734375 -1.46875 -0.734375 -3.703125q0 -2.328125 0.765625 -3.8125q0.78125 -1.484375 2.15625 -2.1875q1.375 -0.71875 3.125 -0.71875q0.953125 0 1.84375 0.203125q0.90625 0.1875 1.484375 0.46875l-0.59375 1.640625q-0.578125 -0.234375 -1.359375 -0.421875q-0.765625 -0.1875 -1.421875 -0.1875q-1.34375 0 -2.234375 0.578125q-0.875 0.5625 -1.3125 1.6875q-0.4375 1.109375 -0.4375 2.734375q0 1.5625 0.421875 2.671875q0.421875 1.09375 1.265625 1.671875q0.859375 0.578125 2.140625 0.578125q1.015625 0 1.828125 -0.21875q0.828125 -0.21875 1.5 -0.515625l0 1.734375q-0.640625 0.328125 -1.4375 0.5q-0.796875 0.1875 -1.875 0.1875zm11.292969 -13.3125q1.640625 0 2.8125 0.734375q1.171875 0.71875 1.78125 2.03125q0.625 1.296875 0.625 3.046875l0 1.203125l-8.859375 0q0.03125 2.265625 1.109375 3.453125q1.09375 1.171875 3.078125 1.171875q1.21875 0 2.15625 -0.21875q0.9375 -0.21875 1.953125 -0.65625l0 1.71875q-0.984375 0.421875 -1.9375 0.625q-0.953125 0.203125 -2.25 0.203125q-1.859375 0 -3.234375 -0.75q-1.375 -0.765625 -2.140625 -2.21875q-0.75 -1.46875 -0.75 -3.59375q0 -2.078125 0.6875 -3.59375q0.703125 -1.515625 1.96875 -2.328125q1.28125 -0.828125 3.0 -0.828125zm-0.03125 1.59375q-1.546875 0 -2.484375 1.015625q-0.921875 1.015625 -1.09375 2.84375l6.796875 0q-0.015625 -1.140625 -0.359375 -2.015625q-0.34375 -0.875 -1.046875 -1.359375q-0.703125 -0.484375 -1.8125 -0.484375zm16.867188 7.96875q0 1.234375 -0.625 2.078125q-0.609375 0.828125 -1.75 1.25q-1.140625 0.421875 -2.71875 0.421875q-1.34375 0 -2.328125 -0.21875q-0.984375 -0.203125 -1.734375 -0.59375l0 -1.796875q0.796875 0.390625 1.875 0.71875q1.09375 0.3125 2.234375 0.3125q1.65625 0 2.40625 -0.53125q0.75 -0.546875 0.75 -1.484375q0 -0.515625 -0.296875 -0.921875q-0.296875 -0.40625 -1.0 -0.78125q-0.703125 -0.390625 -1.9375 -0.84375q-1.234375 -0.46875 -2.140625 -0.921875q-0.890625 -0.46875 -1.375 -1.140625q-0.484375 -0.671875 -0.484375 -1.734375q0 -1.625 1.3125 -2.5q1.328125 -0.875 3.46875 -0.875q1.15625 0 2.171875 0.234375q1.015625 0.21875 1.890625 0.609375l-0.65625 1.5625q-0.796875 -0.34375 -1.703125 -0.578125q-0.890625 -0.234375 -1.828125 -0.234375q-1.359375 0 -2.078125 0.453125q-0.71875 0.4375 -0.71875 1.203125q0 0.609375 0.328125 1.0q0.34375 0.375 1.078125 0.71875q0.734375 0.34375 1.953125 0.796875q1.203125 0.4375 2.078125 0.921875q0.875 0.46875 1.34375 1.140625q0.484375 0.671875 0.484375 1.734375z" fill-rule="nonzero"/><path fill="#000000" d="m819.3695 328.1786l6.96875 -9.03125l-3.0 -8.109375l2.4375 0l2.234375 6.53125l5.0 -6.53125l2.640625 0l-6.484375 8.25l3.25 8.890625l-2.53125 0l-2.421875 -7.234375l-5.453125 7.234375l-2.640625 0z" fill-rule="nonzero"/><path fill="#000000" fill-opacity="0.0" d="m107.55387 271.0391l259.65356 0l0 64.944885l-259.65356 0z" fill-rule="evenodd"/><path fill="#000000" d="m137.0115 285.93848q3.3125 0 4.84375 1.296875q1.53125 1.296875 1.53125 3.71875q0 1.078125 -0.359375 2.0625q-0.359375 0.984375 -1.15625 1.734375q-0.796875 0.734375 -2.09375 1.171875q-1.296875 0.421875 -3.171875 0.421875l-2.078125 0l0 6.734375l-2.0 0l0 -17.140625l4.484375 0zm-0.1875 1.703125l-2.296875 0l0 6.984375l1.859375 0q1.640625 0 2.734375 -0.34375q1.09375 -0.359375 1.640625 -1.140625q0.5625 -0.796875 0.5625 -2.109375q0 -1.71875 -1.09375 -2.546875q-1.09375 -0.84375 -3.40625 -0.84375zm15.6875 2.359375q0.390625 0 0.8125 0.046875q0.421875 0.03125 0.75 0.109375l-0.25 1.796875q-0.3125 -0.078125 -0.703125 -0.125q-0.390625 -0.046875 -0.734375 -0.046875q-0.765625 0 -1.453125 0.3125q-0.6875 0.3125 -1.203125 0.890625q-0.515625 0.578125 -0.8125 1.390625q-0.28125 0.8125 -0.28125 1.8125l0 6.890625l-1.96875 0l0 -12.84375l1.625 0l0.203125 2.359375l0.09375 0q0.390625 -0.703125 0.953125 -1.296875q0.5625 -0.59375 1.296875 -0.9375q0.75 -0.359375 1.671875 -0.359375zm8.917969 0q1.640625 0 2.8125 0.734375q1.171875 0.71875 1.78125 2.03125q0.625 1.296875 0.625 3.046875l0 1.203125l-8.859375 0q0.03125 2.265625 1.109375 3.453125q1.09375 1.171875 3.078125 1.171875q1.21875 0 2.15625 -0.21875q0.9375 -0.21875 1.953125 -0.65625l0 1.71875q-0.984375 0.421875 -1.9375 0.625q-0.953125 0.203125 -2.25 0.203125q-1.859375 0 -3.234375 -0.75q-1.375 -0.765625 -2.140625 -2.21875q-0.75 -1.46875 -0.75 -3.59375q0 -2.078125 0.6875 -3.59375q0.703125 -1.515625 1.96875 -2.328125q1.28125 -0.828125 3.0 -0.828125zm-0.03125 1.59375q-1.546875 0 -2.484375 1.015625q-0.921875 1.015625 -1.09375 2.84375l6.796875 0q-0.015625 -1.140625 -0.359375 -2.015625q-0.34375 -0.875 -1.046875 -1.359375q-0.703125 -0.484375 -1.8125 -0.484375zm7.4765625 5.90625l0 -1.734375l5.8125 0l0 1.734375l-5.8125 0zm12.957031 4.21875q0.484375 0 0.984375 -0.078125q0.5 -0.09375 0.8125 -0.203125l0 1.515625q-0.328125 0.15625 -0.9375 0.25q-0.609375 0.109375 -1.171875 0.109375q-1.03125 0 -1.859375 -0.359375q-0.828125 -0.359375 -1.328125 -1.203125q-0.5 -0.859375 -0.5 -2.375l0 -7.625l-1.828125 0l0 -0.9375l1.84375 -0.765625l0.765625 -2.796875l1.171875 0l0 2.984375l3.765625 0l0 1.515625l-3.765625 0l0 7.5625q0 1.203125 0.5625 1.8125q0.5625 0.59375 1.484375 0.59375zm10.2421875 -11.71875q0.390625 0 0.8125 0.046875q0.421875 0.03125 0.75 0.109375l-0.25 1.796875q-0.3125 -0.078125 -0.703125 -0.125q-0.390625 -0.046875 -0.734375 -0.046875q-0.765625 0 -1.453125 0.3125q-0.6875 0.3125 -1.203125 0.890625q-0.515625 0.578125 -0.8125 1.390625q-0.28125 0.8125 -0.28125 1.8125l0 6.890625l-1.96875 0l0 -12.84375l1.625 0l0.203125 2.359375l0.09375 0q0.390625 -0.703125 0.953125 -1.296875q0.5625 -0.59375 1.296875 -0.9375q0.75 -0.359375 1.671875 -0.359375zm8.777344 0.015625q2.296875 0 3.40625 1.03125q1.109375 1.03125 1.109375 3.296875l0 8.734375l-1.40625 0l-0.375 -1.90625l-0.09375 0q-0.546875 0.703125 -1.140625 1.1875q-0.578125 0.46875 -1.34375 0.71875q-0.765625 0.234375 -1.875 0.234375q-1.171875 0 -2.09375 -0.40625q-0.90625 -0.421875 -1.421875 -1.25q-0.515625 -0.828125 -0.515625 -2.109375q0 -1.921875 1.515625 -2.953125q1.53125 -1.03125 4.640625 -1.125l2.21875 -0.09375l0 -0.78125q0 -1.671875 -0.71875 -2.328125q-0.71875 -0.671875 -2.015625 -0.671875q-1.0 0 -1.921875 0.296875q-0.90625 0.28125 -1.734375 0.6875l-0.59375 -1.484375q0.859375 -0.4375 1.984375 -0.75q1.125 -0.328125 2.375 -0.328125zm2.59375 6.734375l-1.953125 0.078125q-2.40625 0.09375 -3.390625 0.796875q-0.984375 0.6875 -0.984375 1.953125q0 1.09375 0.671875 1.625q0.671875 0.53125 1.765625 0.53125q1.71875 0 2.796875 -0.953125q1.09375 -0.953125 1.09375 -2.84375l0 -1.1875zm7.8828125 -6.515625l0 12.84375l-1.953125 0l0 -12.84375l1.953125 0zm-0.953125 -4.8125q0.484375 0 0.828125 0.3125q0.34375 0.3125 0.34375 0.96875q0 0.640625 -0.34375 0.96875q-0.34375 0.3125 -0.828125 0.3125q-0.5 0 -0.84375 -0.3125q-0.328125 -0.328125 -0.328125 -0.96875q0 -0.65625 0.328125 -0.96875q0.34375 -0.3125 0.84375 -0.3125zm11.152344 4.578125q2.28125 0 3.453125 1.125q1.171875 1.109375 1.171875 3.578125l0 8.375l-1.921875 0l0 -8.234375q0 -1.609375 -0.734375 -2.40625q-0.734375 -0.796875 -2.25 -0.796875q-2.125 0 -3.0 1.203125q-0.859375 1.203125 -0.859375 3.5l0 6.734375l-1.953125 0l0 -12.84375l1.578125 0l0.296875 1.84375l0.09375 0q0.421875 -0.671875 1.046875 -1.125q0.640625 -0.46875 1.421875 -0.703125q0.78125 -0.25 1.65625 -0.25zm10.578125 0.234375l0 12.84375l-1.953125 0l0 -12.84375l1.953125 0zm-0.953125 -4.8125q0.484375 0 0.828125 0.3125q0.34375 0.3125 0.34375 0.96875q0 0.640625 -0.34375 0.96875q-0.34375 0.3125 -0.828125 0.3125q-0.5 0 -0.84375 -0.3125q-0.328125 -0.328125 -0.328125 -0.96875q0 -0.65625 0.328125 -0.96875q0.34375 -0.3125 0.84375 -0.3125zm11.152359 4.578125q2.28125 0 3.453125 1.125q1.171875 1.109375 1.171875 3.578125l0 8.375l-1.921875 0l0 -8.234375q0 -1.609375 -0.734375 -2.40625q-0.734375 -0.796875 -2.25 -0.796875q-2.125 0 -3.0 1.203125q-0.859375 1.203125 -0.859375 3.5l0 6.734375l-1.953125 0l0 -12.84375l1.578125 0l0.296875 1.84375l0.09375 0q0.421875 -0.671875 1.046875 -1.125q0.640625 -0.46875 1.421875 -0.703125q0.78125 -0.25 1.65625 -0.25zm12.21875 18.84375q-2.53125 0 -3.90625 -0.953125q-1.375 -0.9375 -1.375 -2.625q0 -1.21875 0.765625 -2.078125q0.78125 -0.84375 2.140625 -1.125q-0.515625 -0.234375 -0.875 -0.703125q-0.34375 -0.46875 -0.34375 -1.078125q0 -0.703125 0.390625 -1.234375q0.390625 -0.546875 1.203125 -1.03125q-1.015625 -0.40625 -1.640625 -1.390625q-0.625 -0.984375 -0.625 -2.28125q0 -1.375 0.5625 -2.359375q0.578125 -0.984375 1.671875 -1.5q1.09375 -0.515625 2.640625 -0.515625q0.34375 0 0.6875 0.03125q0.34373474 0.03125 0.65623474 0.09375q0.3125 0.046875 0.546875 0.109375l4.40625 0l0 1.265625l-2.359375 0.28125q0.34375 0.46875 0.578125 1.109375q0.234375 0.640625 0.234375 1.421875q0 1.921875 -1.296875 3.0625q-1.296875 1.125 -3.5781097 1.125q-0.53125 0 -1.09375 -0.09375q-0.578125 0.3125 -0.875 0.703125q-0.296875 0.390625 -0.296875 0.890625q0 0.375 0.21875 0.609375q0.234375 0.21875 0.671875 0.3125q0.4375 0.09375 1.046875 0.09375l2.2499847 0q2.109375 0 3.21875 0.890625q1.125 0.875 1.125 2.5625q0 2.140625 -1.734375 3.265625q-1.734375 1.140625 -5.0156097 1.140625zm0.0625 -1.515625q1.5937347 0 2.6406097 -0.328125q1.046875 -0.328125 1.5625 -0.9375q0.53125 -0.59375 0.53125 -1.421875q0 -0.78125 -0.359375 -1.171875q-0.34375 -0.390625 -1.03125 -0.515625q-0.671875 -0.140625 -1.65625 -0.140625l-2.2343597 0q-0.859375 0 -1.515625 0.265625q-0.640625 0.265625 -0.984375 0.796875q-0.34375 0.53125 -0.34375 1.3125q0 1.046875 0.875 1.59375q0.875 0.546875 2.515625 0.546875zm0.5 -10.28125q1.3906097 0 2.0937347 -0.703125q0.703125 -0.703125 0.703125 -2.046875q0 -1.4375 -0.71875 -2.15625q-0.703125 -0.71875 -2.1093597 -0.71875q-1.328125 0 -2.046875 0.75q-0.71875 0.734375 -0.71875 2.15625q0 1.3125 0.71875 2.015625q0.734375 0.703125 2.078125 0.703125z" fill-rule="nonzero"/><path fill="#000000" d="m272.0076 303.31348q-1.203125 0 -2.09375 -0.234375q-0.890625 -0.21875 -1.59375 -0.578125l0 -2.078125q0.6875 0.40625 1.625 0.71875q0.953125 0.3125 1.96875 0.3125q0.890625 0 1.5 -0.234375q0.625 -0.234375 0.953125 -0.671875q0.328125 -0.4375 0.328125 -1.03125q0 -0.453125 -0.203125 -0.796875q-0.203125 -0.34375 -0.6875 -0.6875q-0.46875 -0.34375 -1.265625 -0.796875q-0.890625 -0.484375 -1.5 -0.984375q-0.609375 -0.515625 -0.921875 -1.125q-0.3125 -0.625 -0.3125 -1.453125q0 -1.15625 0.546875 -1.984375q0.5625 -0.84375 1.578125 -1.296875q1.015625 -0.46875 2.390625 -0.46875q1.15625 0 2.15625 0.265625q1.0 0.265625 1.78125 0.671875l-0.75 1.796875q-0.640625 -0.328125 -1.421875 -0.578125q-0.78125 -0.25 -1.75 -0.25q-0.96875 0 -1.578125 0.453125q-0.59375 0.4375 -0.59375 1.203125q0 0.421875 0.1875 0.75q0.1875 0.328125 0.640625 0.65625q0.453125 0.3125 1.25 0.75q0.796875 0.453125 1.4375 0.9375q0.65625 0.484375 1.03125 1.125q0.375 0.625 0.375 1.546875q0 1.3125 -0.625 2.21875q-0.625 0.90625 -1.765625 1.375q-1.125 0.46875 -2.6875 0.46875z" fill-rule="nonzero"/><path fill="#000000" d="m295.34744 299.56348q0 1.234375 -0.625 2.078125q-0.609375 0.828125 -1.75 1.25q-1.140625 0.421875 -2.71875 0.421875q-1.34375 0 -2.328125 -0.21875q-0.984375 -0.203125 -1.734375 -0.59375l0 -1.796875q0.796875 0.390625 1.875 0.71875q1.09375 0.3125 2.234375 0.3125q1.65625 0 2.40625 -0.53125q0.75 -0.546875 0.75 -1.484375q0 -0.515625 -0.296875 -0.921875q-0.296875 -0.40625 -1.0 -0.78125q-0.703125 -0.390625 -1.9375 -0.84375q-1.234375 -0.46875 -2.140625 -0.921875q-0.890625 -0.46875 -1.375 -1.140625q-0.484375 -0.671875 -0.484375 -1.734375q0 -1.625 1.3125 -2.5q1.328125 -0.875 3.46875 -0.875q1.15625 0 2.171875 0.234375q1.015625 0.21875 1.890625 0.609375l-0.65625 1.5625q-0.796875 -0.34375 -1.703125 -0.578125q-0.890625 -0.234375 -1.828125 -0.234375q-1.359375 0 -2.078125 0.453125q-0.71875 0.4375 -0.71875 1.203125q0 0.609375 0.328125 1.0q0.34375 0.375 1.078125 0.71875q0.734375 0.34375 1.953125 0.796875q1.203125 0.4375 2.078125 0.921875q0.875 0.46875 1.34375 1.140625q0.484375 0.671875 0.484375 1.734375zm7.28125 2.15625q0.484375 0 0.984375 -0.078125q0.5 -0.09375 0.8125 -0.203125l0 1.515625q-0.328125 0.15625 -0.9375 0.25q-0.609375 0.109375 -1.171875 0.109375q-1.03125 0 -1.859375 -0.359375q-0.828125 -0.359375 -1.328125 -1.203125q-0.5 -0.859375 -0.5 -2.375l0 -7.625l-1.828125 0l0 -0.9375l1.84375 -0.765625l0.765625 -2.796875l1.171875 0l0 2.984375l3.765625 0l0 1.515625l-3.765625 0l0 7.5625q0 1.203125 0.5625 1.8125q0.5625 0.59375 1.484375 0.59375zm9.3515625 -11.71875q1.640625 0 2.8125 0.734375q1.171875 0.71875 1.78125 2.03125q0.625 1.296875 0.625 3.046875l0 1.203125l-8.859375 0q0.03125 2.265625 1.109375 3.453125q1.09375 1.171875 3.078125 1.171875q1.21875 0 2.15625 -0.21875q0.9375 -0.21875 1.953125 -0.65625l0 1.71875q-0.984375 0.421875 -1.9375 0.625q-0.953125 0.203125 -2.25 0.203125q-1.859375 0 -3.234375 -0.75q-1.375 -0.765625 -2.140625 -2.21875q-0.75 -1.46875 -0.75 -3.59375q0 -2.078125 0.6875 -3.59375q0.703125 -1.515625 1.96875 -2.328125q1.28125 -0.828125 3.0 -0.828125zm-0.03125 1.59375q-1.546875 0 -2.484375 1.015625q-0.921875 1.015625 -1.09375 2.84375l6.796875 0q-0.015625 -1.140625 -0.359375 -2.015625q-0.34375 -0.875 -1.046875 -1.359375q-0.703125 -0.484375 -1.8125 -0.484375zm14.6015625 -1.59375q2.390625 0 3.8125 1.65625q1.4375 1.640625 1.4375 4.96875q0 2.1875 -0.65625 3.671875q-0.65625 1.484375 -1.84375 2.25q-1.1875 0.765625 -2.796875 0.765625q-1.03125 0 -1.8125 -0.265625q-0.765625 -0.28125 -1.3125 -0.734375q-0.546875 -0.453125 -0.90625 -1.0l-0.140625 0q0.03125 0.46875 0.078125 1.109375q0.0625 0.640625 0.0625 1.125l0 5.28125l-1.96875 0l0 -18.59375l1.609375 0l0.265625 1.890625l0.09375 0q0.375 -0.578125 0.90625 -1.0625q0.546875 -0.484375 1.3125 -0.765625q0.78125 -0.296875 1.859375 -0.296875zm-0.34375 1.640625q-1.34375 0 -2.15625 0.515625q-0.8125 0.515625 -1.1875 1.546875q-0.375 1.015625 -0.390625 2.5625l0 0.375q0 1.625 0.34375 2.75q0.359375 1.125 1.1875 1.71875q0.828125 0.578125 2.21875 0.578125q1.203125 0 2.0 -0.640625q0.796875 -0.640625 1.1875 -1.796875q0.390625 -1.15625 0.390625 -2.65625q0 -2.265625 -0.890625 -3.609375q-0.875 -1.34375 -2.703125 -1.34375zm17.292969 7.921875q0 1.234375 -0.625 2.078125q-0.609375 0.828125 -1.75 1.25q-1.140625 0.421875 -2.71875 0.421875q-1.34375 0 -2.328125 -0.21875q-0.984375 -0.203125 -1.734375 -0.59375l0 -1.796875q0.796875 0.390625 1.875 0.71875q1.09375 0.3125 2.234375 0.3125q1.65625 0 2.40625 -0.53125q0.75 -0.546875 0.75 -1.484375q0 -0.515625 -0.296875 -0.921875q-0.296875 -0.40625 -1.0 -0.78125q-0.703125 -0.390625 -1.9375 -0.84375q-1.234375 -0.46875 -2.140625 -0.921875q-0.890625 -0.46875 -1.375 -1.140625q-0.484375 -0.671875 -0.484375 -1.734375q0 -1.625 1.3125 -2.5q1.328125 -0.875 3.46875 -0.875q1.15625 0 2.171875 0.234375q1.015625 0.21875 1.890625 0.609375l-0.65625 1.5625q-0.796875 -0.34375 -1.703125 -0.578125q-0.890625 -0.234375 -1.828125 -0.234375q-1.359375 0 -2.078125 0.453125q-0.71875 0.4375 -0.71875 1.203125q0 0.609375 0.328125 1.0q0.34375 0.375 1.078125 0.71875q0.734375 0.34375 1.953125 0.796875q1.203125 0.4375 2.078125 0.921875q0.875 0.46875 1.34375 1.140625q0.484375 0.671875 0.484375 1.734375z" fill-rule="nonzero"/><path fill="#000000" fill-opacity="0.0" d="m286.51312 491.06583l366.67712 0l0 64.944855l-366.67712 0z" fill-rule="evenodd"/><path fill="#000000" d="m327.963 523.10583l-5.75 -15.1719055l-0.09375 0q0.046875 0.484375 0.078125 1.1875q0.046875 0.6875 0.0625 1.5q0.03125 0.8125 0.03125 1.6562805l0 10.828125l-1.859375 0l0 -17.140656l2.953125 0l5.421875 14.2500305l0.09375 0l5.5 -14.2500305l2.9375 0l0 17.140656l-1.96875 0l0 -10.96875q0 -0.7656555 0.015625 -1.5312805q0.03125 -0.765625 0.0625 -1.453125q0.03125 -0.6875 0.0625 -1.1875l-0.09375 0l-5.8125 15.1406555l-1.640625 0zm24.835938 -6.453125q0 1.59375 -0.40625 2.84375q-0.40625 1.234375 -1.1875 2.09375q-0.765625 0.84375 -1.875 1.296875q-1.09375 0.453125 -2.46875 0.453125q-1.296875 0 -2.375 -0.453125q-1.0625 -0.453125 -1.84375 -1.296875q-0.78125 -0.859375 -1.203125 -2.09375q-0.421875 -1.25 -0.421875 -2.84375q0 -2.109375 0.703125 -3.578125q0.71875 -1.4844055 2.046875 -2.2656555q1.328125 -0.78125 3.171875 -0.78125q1.765625 0 3.078125 0.78125q1.3125 0.78125 2.046875 2.2656555q0.734375 1.484375 0.734375 3.578125zm-9.765625 0q0 1.546875 0.40625 2.6875q0.40625 1.140625 1.265625 1.765625q0.859375 0.609375 2.203125 0.609375q1.328125 0 2.1875 -0.609375q0.875 -0.625 1.28125 -1.765625q0.40625 -1.140625 0.40625 -2.6875q0 -1.53125 -0.40625 -2.640625q-0.40625 -1.125 -1.265625 -1.734375q-0.859375 -0.6094055 -2.21875 -0.6094055q-2.0 0 -2.9375 1.3281555q-0.921875 1.3125 -0.921875 3.65625zm17.703125 6.6875q-2.4375 0 -3.859375 -1.65625q-1.421875 -1.671875 -1.421875 -4.953125q0 -3.3125 1.453125 -5.0000305q1.453125 -1.703125 3.859375 -1.703125q1.015625 0 1.78125 0.265625q0.765625 0.265625 1.3125 0.71875q0.546875 0.453125 0.921875 1.0312805l0.140625 0q-0.046875 -0.35940552 -0.09375 -0.9844055q-0.046875 -0.640625 -0.046875 -1.046875l0 -5.140625l1.953125 0l0 18.234406l-1.578125 0l-0.28125 -1.828125l-0.09375 0q-0.359375 0.578125 -0.921875 1.046875q-0.546875 0.46875 -1.3125 0.75q-0.765625 0.265625 -1.8125 0.265625zm0.296875 -1.625q2.0625 0 2.921875 -1.171875q0.859375 -1.171875 0.859375 -3.46875l0 -0.359375q0 -2.453125 -0.8125 -3.765625q-0.8125 -1.3125305 -2.96875 -1.3125305q-1.78125 0 -2.671875 1.3906555q-0.890625 1.375 -0.890625 3.75q0 2.359375 0.875 3.65625q0.890625 1.28125 2.6875 1.28125zm14.761719 -11.6875305q1.640625 0 2.8125 0.734375q1.171875 0.71875 1.78125 2.0312805q0.625 1.296875 0.625 3.046875l0 1.203125l-8.859375 0q0.03125 2.265625 1.109375 3.453125q1.09375 1.171875 3.078125 1.171875q1.21875 0 2.15625 -0.21875q0.9375 -0.21875 1.953125 -0.65625l0 1.71875q-0.984375 0.421875 -1.9375 0.625q-0.953125 0.203125 -2.25 0.203125q-1.859375 0 -3.234375 -0.75q-1.375 -0.765625 -2.140625 -2.21875q-0.75 -1.46875 -0.75 -3.59375q0 -2.078125 0.6875 -3.59375q0.703125 -1.5156555 1.96875 -2.3281555q1.28125 -0.828125 3.0 -0.828125zm-0.03125 1.59375q-1.546875 0 -2.484375 1.0156555q-0.921875 1.015625 -1.09375 2.84375l6.796875 0q-0.015625 -1.140625 -0.359375 -2.015625q-0.34375 -0.875 -1.046875 -1.359375q-0.703125 -0.48440552 -1.8125 -0.48440552zm10.5234375 11.4844055l-1.96875 0l0 -18.234406l1.96875 0l0 18.234406zm15.136719 -13.0625305q2.296875 0 3.40625 1.03125q1.109375 1.0312805 1.109375 3.2969055l0 8.734375l-1.40625 0l-0.375 -1.90625l-0.09375 0q-0.546875 0.703125 -1.140625 1.1875q-0.578125 0.46875 -1.34375 0.71875q-0.765625 0.234375 -1.875 0.234375q-1.171875 0 -2.09375 -0.40625q-0.90625 -0.421875 -1.421875 -1.25q-0.515625 -0.828125 -0.515625 -2.109375q0 -1.921875 1.515625 -2.953125q1.53125 -1.03125 4.640625 -1.125l2.21875 -0.09375l0 -0.78125q0 -1.671875 -0.71875 -2.328125q-0.71875 -0.6719055 -2.015625 -0.6719055q-1.0 0 -1.921875 0.296875q-0.90625 0.28128052 -1.734375 0.6875305l-0.59375 -1.4844055q0.859375 -0.4375 1.984375 -0.75q1.125 -0.328125 2.375 -0.328125zm2.59375 6.7344055l-1.953125 0.078125q-2.40625 0.09375 -3.390625 0.796875q-0.984375 0.6875 -0.984375 1.953125q0 1.09375 0.671875 1.625q0.671875 0.53125 1.765625 0.53125q1.71875 0 2.796875 -0.953125q1.09375 -0.953125 1.09375 -2.84375l0 -1.1875zm10.0859375 4.96875q0.484375 0 0.984375 -0.078125q0.5 -0.09375 0.8125 -0.203125l0 1.515625q-0.328125 0.15625 -0.9375 0.25q-0.609375 0.109375 -1.171875 0.109375q-1.03125 0 -1.859375 -0.359375q-0.828125 -0.359375 -1.328125 -1.203125q-0.5 -0.859375 -0.5 -2.375l0 -7.6250305l-1.828125 0l0 -0.9375l1.84375 -0.765625l0.765625 -2.796875l1.171875 0l0 2.984375l3.765625 0l0 1.515625l-3.765625 0l0 7.5625305q0 1.203125 0.5625 1.8125q0.5625 0.59375 1.484375 0.59375zm16.679688 -11.7187805q2.390625 0 3.8125 1.65625q1.4375 1.6406555 1.4375 4.9687805q0 2.1875 -0.65625 3.671875q-0.65625 1.484375 -1.84375 2.25q-1.1875 0.765625 -2.796875 0.765625q-1.03125 0 -1.8125 -0.265625q-0.765625 -0.28125 -1.3125 -0.734375q-0.546875 -0.453125 -0.90625 -1.0l-0.140625 0q0.03125 0.46875 0.078125 1.109375q0.0625 0.640625 0.0625 1.125l0 5.28125l-1.96875 0l0 -18.59378l1.609375 0l0.265625 1.8906555l0.09375 0q0.375 -0.5781555 0.90625 -1.0625305q0.546875 -0.484375 1.3125 -0.765625q0.78125 -0.296875 1.859375 -0.296875zm-0.34375 1.640625q-1.34375 0 -2.15625 0.5156555q-0.8125 0.515625 -1.1875 1.546875q-0.375 1.015625 -0.390625 2.5625l0 0.375q0 1.625 0.34375 2.75q0.359375 1.125 1.1875 1.71875q0.828125 0.578125 2.21875 0.578125q1.203125 0 2.0 -0.640625q0.796875 -0.640625 1.1875 -1.796875q0.390625 -1.15625 0.390625 -2.65625q0 -2.265625 -0.890625 -3.609375q-0.875 -1.3437805 -2.703125 -1.3437805zm14.824219 -1.640625q0.390625 0 0.8125 0.046875q0.421875 0.03125 0.75 0.109375l-0.25 1.796875q-0.3125 -0.078125 -0.703125 -0.125q-0.390625 -0.046875 -0.734375 -0.046875q-0.765625 0 -1.453125 0.31253052q-0.6875 0.3125 -1.203125 0.890625q-0.515625 0.578125 -0.8125 1.390625q-0.28125 0.8125 -0.28125 1.8125l0 6.890625l-1.96875 0l0 -12.8437805l1.625 0l0.203125 2.3594055l0.09375 0q0.390625 -0.7031555 0.953125 -1.2969055q0.5625 -0.59375 1.296875 -0.9375q0.75 -0.359375 1.671875 -0.359375zm8.917969 0q1.640625 0 2.8125 0.734375q1.171875 0.71875 1.78125 2.0312805q0.625 1.296875 0.625 3.046875l0 1.203125l-8.859375 0q0.03125 2.265625 1.109375 3.453125q1.09375 1.171875 3.078125 1.171875q1.21875 0 2.15625 -0.21875q0.9375 -0.21875 1.953125 -0.65625l0 1.71875q-0.984375 0.421875 -1.9375 0.625q-0.953125 0.203125 -2.25 0.203125q-1.859375 0 -3.234375 -0.75q-1.375 -0.765625 -2.140625 -2.21875q-0.75 -1.46875 -0.75 -3.59375q0 -2.078125 0.6875 -3.59375q0.703125 -1.5156555 1.96875 -2.3281555q1.28125 -0.828125 3.0 -0.828125zm-0.03125 1.59375q-1.546875 0 -2.484375 1.0156555q-0.921875 1.015625 -1.09375 2.84375l6.796875 0q-0.015625 -1.140625 -0.359375 -2.015625q-0.34375 -0.875 -1.046875 -1.359375q-0.703125 -0.48440552 -1.8125 -0.48440552zm7.4765625 5.9062805l0 -1.734375l5.8125 0l0 1.734375l-5.8125 0zm12.957031 4.21875q0.484375 0 0.984375 -0.078125q0.5 -0.09375 0.8125 -0.203125l0 1.515625q-0.328125 0.15625 -0.9375 0.25q-0.609375 0.109375 -1.171875 0.109375q-1.03125 0 -1.859375 -0.359375q-0.828125 -0.359375 -1.328125 -1.203125q-0.5 -0.859375 -0.5 -2.375l0 -7.6250305l-1.828125 0l0 -0.9375l1.84375 -0.765625l0.765625 -2.796875l1.171875 0l0 2.984375l3.765625 0l0 1.515625l-3.765625 0l0 7.5625305q0 1.203125 0.5625 1.8125q0.5625 0.59375 1.484375 0.59375zm10.2421875 -11.7187805q0.390625 0 0.8125 0.046875q0.421875 0.03125 0.75 0.109375l-0.25 1.796875q-0.3125 -0.078125 -0.703125 -0.125q-0.390625 -0.046875 -0.734375 -0.046875q-0.765625 0 -1.453125 0.31253052q-0.6875 0.3125 -1.203125 0.890625q-0.515625 0.578125 -0.8125 1.390625q-0.28125 0.8125 -0.28125 1.8125l0 6.890625l-1.96875 0l0 -12.8437805l1.625 0l0.203125 2.3594055l0.09375 0q0.390625 -0.7031555 0.953125 -1.2969055q0.5625 -0.59375 1.296875 -0.9375q0.75 -0.359375 1.671875 -0.359375zm8.777344 0.015625q2.296875 0 3.40625 1.03125q1.109375 1.0312805 1.109375 3.2969055l0 8.734375l-1.40625 0l-0.375 -1.90625l-0.09375 0q-0.546875 0.703125 -1.140625 1.1875q-0.578125 0.46875 -1.34375 0.71875q-0.765625 0.234375 -1.875 0.234375q-1.171875 0 -2.09375 -0.40625q-0.90625 -0.421875 -1.421875 -1.25q-0.515625 -0.828125 -0.515625 -2.109375q0 -1.921875 1.515625 -2.953125q1.53125 -1.03125 4.640625 -1.125l2.21875 -0.09375l0 -0.78125q0 -1.671875 -0.71875 -2.328125q-0.71875 -0.6719055 -2.015625 -0.6719055q-1.0 0 -1.921875 0.296875q-0.90625 0.28128052 -1.734375 0.6875305l-0.59375 -1.4844055q0.859375 -0.4375 1.984375 -0.75q1.125 -0.328125 2.375 -0.328125zm2.59375 6.7344055l-1.953125 0.078125q-2.40625 0.09375 -3.390625 0.796875q-0.984375 0.6875 -0.984375 1.953125q0 1.09375 0.671875 1.625q0.671875 0.53125 1.765625 0.53125q1.71875 0 2.796875 -0.953125q1.09375 -0.953125 1.09375 -2.84375l0 -1.1875zm7.8828125 -6.5156555l0 12.8437805l-1.953125 0l0 -12.8437805l1.953125 0zm-0.953125 -4.8125q0.484375 0 0.828125 0.3125q0.34375 0.3125 0.34375 0.96875q0 0.640625 -0.34375 0.96875q-0.34375 0.3125 -0.828125 0.3125q-0.5 0 -0.84375 -0.3125q-0.328125 -0.328125 -0.328125 -0.96875q0 -0.65625 0.328125 -0.96875q0.34375 -0.3125 0.84375 -0.3125zm11.152344 4.578125q2.28125 0 3.453125 1.125q1.171875 1.1094055 1.171875 3.5781555l0 8.375l-1.921875 0l0 -8.234375q0 -1.609375 -0.734375 -2.40625q-0.734375 -0.7969055 -2.25 -0.7969055q-2.125 0 -3.0 1.2031555q-0.859375 1.203125 -0.859375 3.5l0 6.734375l-1.953125 0l0 -12.8437805l1.578125 0l0.296875 1.8437805l0.09375 0q0.421875 -0.6719055 1.046875 -1.1250305q0.640625 -0.46875 1.421875 -0.703125q0.78125 -0.25 1.65625 -0.25zm10.578125 0.234375l0 12.8437805l-1.953125 0l0 -12.8437805l1.953125 0zm-0.953125 -4.8125q0.484375 0 0.828125 0.3125q0.34375 0.3125 0.34375 0.96875q0 0.640625 -0.34375 0.96875q-0.34375 0.3125 -0.828125 0.3125q-0.5 0 -0.84375 -0.3125q-0.328125 -0.328125 -0.328125 -0.96875q0 -0.65625 0.328125 -0.96875q0.34375 -0.3125 0.84375 -0.3125zm11.152344 4.578125q2.28125 0 3.453125 1.125q1.171875 1.1094055 1.171875 3.5781555l0 8.375l-1.921875 0l0 -8.234375q0 -1.609375 -0.734375 -2.40625q-0.734375 -0.7969055 -2.25 -0.7969055q-2.125 0 -3.0 1.2031555q-0.859375 1.203125 -0.859375 3.5l0 6.734375l-1.953125 0l0 -12.8437805l1.578125 0l0.296875 1.8437805l0.09375 0q0.421875 -0.6719055 1.046875 -1.1250305q0.640625 -0.46875 1.421875 -0.703125q0.78125 -0.25 1.65625 -0.25zm12.21875 18.84378q-2.53125 0 -3.90625 -0.953125q-1.375 -0.9375 -1.375 -2.625q0 -1.21875 0.765625 -2.078125q0.78125 -0.84375 2.140625 -1.125q-0.515625 -0.234375 -0.875 -0.703125q-0.34375 -0.46875 -0.34375 -1.078125q0 -0.703125 0.390625 -1.234375q0.390625 -0.546875 1.203125 -1.03125q-1.015625 -0.40625 -1.640625 -1.390625q-0.625 -0.984375 -0.625 -2.28125q0 -1.375 0.5625 -2.359375q0.578125 -0.9844055 1.671875 -1.5000305q1.09375 -0.515625 2.640625 -0.515625q0.34375 0 0.6875 0.03125q0.34375 0.03125 0.65625 0.09375q0.3125 0.046875 0.546875 0.109375l4.40625 0l0 1.265625l-2.359375 0.28125q0.34375 0.46878052 0.578125 1.1094055q0.234375 0.640625 0.234375 1.421875q0 1.921875 -1.296875 3.0625q-1.296875 1.125 -3.578125 1.125q-0.53125 0 -1.09375 -0.09375q-0.578125 0.3125 -0.875 0.703125q-0.296875 0.390625 -0.296875 0.890625q0 0.375 0.21875 0.609375q0.234375 0.21875 0.671875 0.3125q0.4375 0.09375 1.046875 0.09375l2.25 0q2.109375 0 3.21875 0.890625q1.125 0.875 1.125 2.5625q0 2.140625 -1.734375 3.265625q-1.734375 1.140625 -5.015625 1.140625zm0.0625 -1.515625q1.59375 0 2.640625 -0.328125q1.046875 -0.328125 1.5625 -0.9375q0.53125 -0.59375 0.53125 -1.421875q0 -0.78125 -0.359375 -1.171875q-0.34375 -0.390625 -1.03125 -0.515625q-0.671875 -0.140625 -1.65625 -0.140625l-2.234375 0q-0.859375 0 -1.515625 0.265625q-0.640625 0.265625 -0.984375 0.796875q-0.34375 0.53125 -0.34375 1.3125q0 1.046875 0.875 1.59375q0.875 0.546875 2.515625 0.546875zm0.5 -10.28125q1.390625 0 2.09375 -0.703125q0.703125 -0.703125 0.703125 -2.046875q0 -1.4375 -0.71875 -2.15625q-0.703125 -0.7187805 -2.109375 -0.7187805q-1.328125 0 -2.046875 0.7500305q-0.71875 0.734375 -0.71875 2.15625q0 1.3125 0.71875 2.015625q0.734375 0.703125 2.078125 0.703125zm23.421875 2.515625q0 1.234375 -0.625 2.078125q-0.609375 0.828125 -1.75 1.25q-1.140625 0.421875 -2.71875 0.421875q-1.34375 0 -2.328125 -0.21875q-0.984375 -0.203125 -1.734375 -0.59375l0 -1.796875q0.796875 0.390625 1.875 0.71875q1.09375 0.3125 2.234375 0.3125q1.65625 0 2.40625 -0.53125q0.75 -0.546875 0.75 -1.484375q0 -0.515625 -0.296875 -0.921875q-0.296875 -0.40625 -1.0 -0.78125q-0.703125 -0.390625 -1.9375 -0.84375q-1.234375 -0.46875 -2.140625 -0.921875q-0.890625 -0.46875 -1.375 -1.140625q-0.484375 -0.671875 -0.484375 -1.734375q0 -1.6250305 1.3125 -2.5000305q1.328125 -0.875 3.46875 -0.875q1.15625 0 2.171875 0.234375q1.015625 0.21875 1.890625 0.609375l-0.65625 1.5625305q-0.796875 -0.34375 -1.703125 -0.5781555q-0.890625 -0.234375 -1.828125 -0.234375q-1.359375 0 -2.078125 0.45315552q-0.71875 0.4375 -0.71875 1.203125q0 0.609375 0.328125 1.0q0.34375 0.375 1.078125 0.71875q0.734375 0.34375 1.953125 0.796875q1.203125 0.4375 2.078125 0.921875q0.875 0.46875 1.34375 1.140625q0.484375 0.671875 0.484375 1.734375zm7.28125 2.15625q0.484375 0 0.984375 -0.078125q0.5 -0.09375 0.8125 -0.203125l0 1.515625q-0.328125 0.15625 -0.9375 0.25q-0.609375 0.109375 -1.171875 0.109375q-1.03125 0 -1.859375 -0.359375q-0.828125 -0.359375 -1.328125 -1.203125q-0.5 -0.859375 -0.5 -2.375l0 -7.6250305l-1.828125 0l0 -0.9375l1.84375 -0.765625l0.765625 -2.796875l1.171875 0l0 2.984375l3.765625 0l0 1.515625l-3.765625 0l0 7.5625305q0 1.203125 0.5625 1.8125q0.5625 0.59375 1.484375 0.59375zm9.3515625 -11.7187805q1.640625 0 2.8125 0.734375q1.171875 0.71875 1.78125 2.0312805q0.625 1.296875 0.625 3.046875l0 1.203125l-8.859375 0q0.03125 2.265625 1.109375 3.453125q1.09375 1.171875 3.078125 1.171875q1.21875 0 2.15625 -0.21875q0.9375 -0.21875 1.953125 -0.65625l0 1.71875q-0.984375 0.421875 -1.9375 0.625q-0.953125 0.203125 -2.25 0.203125q-1.859375 0 -3.234375 -0.75q-1.375 -0.765625 -2.140625 -2.21875q-0.75 -1.46875 -0.75 -3.59375q0 -2.078125 0.6875 -3.59375q0.703125 -1.5156555 1.96875 -2.3281555q1.28125 -0.828125 3.0 -0.828125zm-0.03125 1.59375q-1.546875 0 -2.484375 1.0156555q-0.921875 1.015625 -1.09375 2.84375l6.796875 0q-0.015625 -1.140625 -0.359375 -2.015625q-0.34375 -0.875 -1.046875 -1.359375q-0.703125 -0.48440552 -1.8125 -0.48440552zm14.6015625 -1.59375q2.390625 0 3.8125 1.65625q1.4375 1.6406555 1.4375 4.9687805q0 2.1875 -0.65625 3.671875q-0.65625 1.484375 -1.84375 2.25q-1.1875 0.765625 -2.796875 0.765625q-1.03125 0 -1.8125 -0.265625q-0.765625 -0.28125 -1.3125 -0.734375q-0.546875 -0.453125 -0.90625 -1.0l-0.140625 0q0.03125 0.46875 0.078125 1.109375q0.0625 0.640625 0.0625 1.125l0 5.28125l-1.96875 0l0 -18.59378l1.609375 0l0.265625 1.8906555l0.09375 0q0.375 -0.5781555 0.90625 -1.0625305q0.546875 -0.484375 1.3125 -0.765625q0.78125 -0.296875 1.859375 -0.296875zm-0.34375 1.640625q-1.34375 0 -2.15625 0.5156555q-0.8125 0.515625 -1.1875 1.546875q-0.375 1.015625 -0.390625 2.5625l0 0.375q0 1.625 0.34375 2.75q0.359375 1.125 1.1875 1.71875q0.828125 0.578125 2.21875 0.578125q1.203125 0 2.0 -0.640625q0.796875 -0.640625 1.1875 -1.796875q0.390625 -1.15625 0.390625 -2.65625q0 -2.265625 -0.890625 -3.609375q-0.875 -1.3437805 -2.703125 -1.3437805z" fill-rule="nonzero"/><path fill="#000000" d="m615.91223 523.10583l2.734375 -12.9219055l2.34375 0l-2.734375 12.9219055l-2.34375 0zm4.5625 -15.0000305q-0.546875 0 -0.90625 -0.296875q-0.359375 -0.296875 -0.359375 -0.859375q0 -0.46875 0.171875 -0.828125q0.1875 -0.375 0.53125 -0.578125q0.34375 -0.21875 0.84375 -0.21875q0.5625 0 0.875 0.28125q0.328125 0.265625 0.328125 0.828125q0 0.75 -0.4375 1.21875q-0.421875 0.453125 -1.046875 0.453125z" fill-rule="nonzero"/><path fill="#000000" fill-opacity="0.0" d="m90.0474 5.5019345l259.65356 0l0 64.94488l-259.65356 0z" fill-rule="evenodd"/><path fill="#000000" d="m149.74136 21.916935q-1.421875 0 -2.5625 0.484375q-1.125 0.484375 -1.921875 1.40625q-0.78125 0.921875 -1.203125 2.234375q-0.421875 1.296875 -0.421875 2.921875q0 2.15625 0.671875 3.75q0.671875 1.578125 2.015625 2.453125q1.34375 0.859375 3.359375 0.859375q1.15625 0 2.15625 -0.1875q1.015625 -0.203125 1.984375 -0.484375l0 1.734375q-0.9375 0.34375 -1.96875 0.515625q-1.03125 0.171875 -2.453125 0.171875q-2.609375 0 -4.359375 -1.078125q-1.75 -1.09375 -2.625 -3.0625q-0.875 -1.984375 -0.875 -4.6875q0 -1.9375 0.546875 -3.546875q0.546875 -1.625 1.59375 -2.796875q1.046875 -1.171875 2.578125 -1.796875q1.53125 -0.640625 3.5 -0.640625q1.3125 0 2.515625 0.265625q1.203125 0.25 2.171875 0.71875l-0.796875 1.6875q-0.8125 -0.375 -1.796875 -0.640625q-0.96875 -0.28125 -2.109375 -0.28125zm18.570312 9.171875q0 1.59375 -0.40625 2.84375q-0.40625 1.234375 -1.1875 2.09375q-0.765625 0.84375 -1.875 1.296875q-1.09375 0.453125 -2.46875 0.453125q-1.296875 0 -2.375 -0.453125q-1.0625 -0.453125 -1.84375 -1.296875q-0.78125 -0.859375 -1.203125 -2.09375q-0.421875 -1.25 -0.421875 -2.84375q0 -2.109375 0.703125 -3.578125q0.71875 -1.484375 2.046875 -2.265625q1.328125 -0.78125 3.171875 -0.78125q1.765625 0 3.078125 0.78125q1.3125 0.78125 2.046875 2.265625q0.734375 1.484375 0.734375 3.578125zm-9.765625 0q0 1.546875 0.40625 2.6875q0.40625 1.140625 1.265625 1.765625q0.859375 0.609375 2.203125 0.609375q1.328125 0 2.1875 -0.609375q0.875 -0.625 1.28125 -1.765625q0.40625 -1.140625 0.40625 -2.6875q0 -1.53125 -0.40625 -2.640625q-0.40625 -1.125 -1.265625 -1.734375q-0.859375 -0.609375 -2.21875 -0.609375q-2.0 0 -2.9375 1.328125q-0.921875 1.3125 -0.921875 3.65625zm19.21875 -6.625q2.28125 0 3.453125 1.125q1.171875 1.109375 1.171875 3.578125l0 8.375l-1.921875 0l0 -8.234375q0 -1.609375 -0.734375 -2.40625q-0.734375 -0.796875 -2.25 -0.796875q-2.125 0 -3.0 1.203125q-0.859375 1.203125 -0.859375 3.5l0 6.734375l-1.953125 0l0 -12.84375l1.578125 0l0.296875 1.84375l0.09375 0q0.421875 -0.671875 1.046875 -1.125q0.640625 -0.46875 1.421875 -0.703125q0.78125 -0.25 1.65625 -0.25zm12.78125 11.71875q0.484375 0 0.984375 -0.078125q0.5 -0.09375 0.8125 -0.203125l0 1.515625q-0.328125 0.15625 -0.9375 0.25q-0.609375 0.109375 -1.171875 0.109375q-1.03125 0 -1.859375 -0.359375q-0.828125 -0.359375 -1.328125 -1.203125q-0.5 -0.859375 -0.5 -2.375l0 -7.625l-1.828125 0l0 -0.9375l1.84375 -0.765625l0.765625 -2.796875l1.171875 0l0 2.984375l3.765625 0l0 1.515625l-3.765625 0l0 7.5625q0 1.203125 0.5625 1.8125q0.5625 0.59375 1.484375 0.59375zm10.2421875 -11.71875q0.390625 0 0.8125 0.046875q0.421875 0.03125 0.75 0.109375l-0.25 1.796875q-0.3125 -0.078125 -0.703125 -0.125q-0.390625 -0.046875 -0.734375 -0.046875q-0.765625 0 -1.453125 0.3125q-0.6875 0.3125 -1.203125 0.890625q-0.515625 0.578125 -0.8125 1.390625q-0.28125 0.8125 -0.28125 1.8125l0 6.890625l-1.96875 0l0 -12.84375l1.625 0l0.203125 2.359375l0.09375 0q0.390625 -0.703125 0.953125 -1.296875q0.5625 -0.59375 1.296875 -0.9375q0.75 -0.359375 1.671875 -0.359375zm15.042969 6.625q0 1.59375 -0.40625 2.84375q-0.40625 1.234375 -1.1875 2.09375q-0.765625 0.84375 -1.875 1.296875q-1.09375 0.453125 -2.46875 0.453125q-1.296875 0 -2.375 -0.453125q-1.0625 -0.453125 -1.84375 -1.296875q-0.78125 -0.859375 -1.203125 -2.09375q-0.421875 -1.25 -0.421875 -2.84375q0 -2.109375 0.703125 -3.578125q0.71875 -1.484375 2.046875 -2.265625q1.328125 -0.78125 3.171875 -0.78125q1.765625 0 3.078125 0.78125q1.3125 0.78125 2.046875 2.265625q0.734375 1.484375 0.734375 3.578125zm-9.765625 0q0 1.546875 0.40625 2.6875q0.40625 1.140625 1.265625 1.765625q0.859375 0.609375 2.203125 0.609375q1.328125 0 2.1875 -0.609375q0.875 -0.625 1.28125 -1.765625q0.40625 -1.140625 0.40625 -2.6875q0 -1.53125 -0.40625 -2.640625q-0.40625 -1.125 -1.265625 -1.734375q-0.859375 -0.609375 -2.21875 -0.609375q-2.0 0 -2.9375 1.328125q-0.921875 1.3125 -0.921875 3.65625zm15.093765 6.453125l-1.96875 0l0 -18.234375l1.96875 0l0 18.234375zm18.152344 0l-5.75 -15.171875l-0.09375 0q0.046875 0.484375 0.078125 1.1875q0.046875 0.6875 0.0625 1.5q0.03125 0.8125 0.03125 1.65625l0 10.828125l-1.859375 0l0 -17.140625l2.953125 0l5.421875 14.25l0.09375 0l5.5 -14.25l2.9375 0l0 17.140625l-1.96875 0l0 -10.96875q0 -0.765625 0.015625 -1.53125q0.03125 -0.765625 0.0625 -1.453125q0.03125 -0.6875 0.0625 -1.1875l-0.09375 0l-5.8125 15.140625l-1.640625 0zm24.835922 -6.453125q0 1.59375 -0.40625 2.84375q-0.40625 1.234375 -1.1875 2.09375q-0.765625 0.84375 -1.875 1.296875q-1.09375 0.453125 -2.46875 0.453125q-1.296875 0 -2.3749847 -0.453125q-1.0625 -0.453125 -1.84375 -1.296875q-0.78125 -0.859375 -1.203125 -2.09375q-0.421875 -1.25 -0.421875 -2.84375q0 -2.109375 0.703125 -3.578125q0.71875 -1.484375 2.046875 -2.265625q1.3281097 -0.78125 3.1718597 -0.78125q1.765625 0 3.078125 0.78125q1.3125 0.78125 2.046875 2.265625q0.734375 1.484375 0.734375 3.578125zm-9.76561 0q0 1.546875 0.40625 2.6875q0.40625 1.140625 1.2656097 1.765625q0.859375 0.609375 2.203125 0.609375q1.328125 0 2.1875 -0.609375q0.875 -0.625 1.28125 -1.765625q0.40625 -1.140625 0.40625 -2.6875q0 -1.53125 -0.40625 -2.640625q-0.40625 -1.125 -1.265625 -1.734375q-0.859375 -0.609375 -2.21875 -0.609375q-2.0 0 -2.9374847 1.328125q-0.921875 1.3125 -0.921875 3.65625zm17.70311 6.6875q-2.4375 0 -3.859375 -1.65625q-1.421875 -1.671875 -1.421875 -4.953125q0 -3.3125 1.453125 -5.0q1.453125 -1.703125 3.859375 -1.703125q1.015625 0 1.78125 0.265625q0.765625 0.265625 1.3125 0.71875q0.546875 0.453125 0.921875 1.03125l0.140625 0q-0.046875 -0.359375 -0.09375 -0.984375q-0.046875 -0.640625 -0.046875 -1.046875l0 -5.140625l1.953125 0l0 18.234375l-1.578125 0l-0.28125 -1.828125l-0.09375 0q-0.359375 0.578125 -0.921875 1.046875q-0.546875 0.46875 -1.3125 0.75q-0.765625 0.265625 -1.8125 0.265625zm0.296875 -1.625q2.0625 0 2.921875 -1.171875q0.859375 -1.171875 0.859375 -3.46875l0 -0.359375q0 -2.453125 -0.8125 -3.765625q-0.8125 -1.3125 -2.96875 -1.3125q-1.78125 0 -2.671875 1.390625q-0.890625 1.375 -0.890625 3.75q0 2.359375 0.875 3.65625q0.890625 1.28125 2.6875 1.28125zm14.761719 -11.6875q1.640625 0 2.8125 0.734375q1.171875 0.71875 1.78125 2.03125q0.625 1.296875 0.625 3.046875l0 1.203125l-8.859375 0q0.03125 2.265625 1.109375 3.453125q1.09375 1.171875 3.078125 1.171875q1.21875 0 2.15625 -0.21875q0.9375 -0.21875 1.953125 -0.65625l0 1.71875q-0.984375 0.421875 -1.9375 0.625q-0.953125 0.203125 -2.25 0.203125q-1.859375 0 -3.234375 -0.75q-1.375 -0.765625 -2.140625 -2.21875q-0.75 -1.46875 -0.75 -3.59375q0 -2.078125 0.6875 -3.59375q0.703125 -1.515625 1.96875 -2.328125q1.28125 -0.828125 3.0 -0.828125zm-0.03125 1.59375q-1.546875 0 -2.484375 1.015625q-0.921875 1.015625 -1.09375 2.84375l6.796875 0q-0.015625 -1.140625 -0.359375 -2.015625q-0.34375 -0.875 -1.046875 -1.359375q-0.703125 -0.484375 -1.8125 -0.484375zm10.5234375 11.484375l-1.96875 0l0 -18.234375l1.96875 0l0 18.234375z" fill-rule="nonzero"/><path fill="#000000" fill-opacity="0.0" d="m587.0064 5.2230697l259.65356 0l0 64.944885l-259.65356 0z" fill-rule="evenodd"/><path fill="#000000" d="m627.52264 37.26307l-2.0 0l0 -15.374998l-5.390625 0l0 -1.765625l12.75 0l0 1.765625l-5.359375 0l0 15.374998zm13.5 -13.078123q0.390625 0 0.8125 0.046875q0.421875 0.03125 0.75 0.109375l-0.25 1.796875q-0.3125 -0.078125 -0.703125 -0.125q-0.390625 -0.046875 -0.734375 -0.046875q-0.765625 0 -1.453125 0.3125q-0.6875 0.3125 -1.203125 0.890625q-0.515625 0.578125 -0.8125 1.390625q-0.28125 0.8125 -0.28125 1.8125l0 6.890623l-1.96875 0l0 -12.843748l1.625 0l0.203125 2.359375l0.09375 0q0.390625 -0.703125 0.953125 -1.296875q0.5625 -0.59375 1.296875 -0.9375q0.75 -0.359375 1.671875 -0.359375zm8.917969 0q1.640625 0 2.8125 0.734375q1.171875 0.71875 1.78125 2.03125q0.625 1.296875 0.625 3.046875l0 1.203125l-8.859375 0q0.03125 2.265623 1.109375 3.453123q1.09375 1.171875 3.078125 1.171875q1.21875 0 2.15625 -0.21875q0.9375 -0.21875 1.953125 -0.65625l0 1.71875q-0.984375 0.421875 -1.9375 0.625q-0.953125 0.203125 -2.25 0.203125q-1.859375 0 -3.234375 -0.75q-1.375 -0.765625 -2.140625 -2.21875q-0.75 -1.46875 -0.75 -3.593748q0 -2.078125 0.6875 -3.59375q0.703125 -1.515625 1.96875 -2.328125q1.28125 -0.828125 3.0 -0.828125zm-0.03125 1.59375q-1.546875 0 -2.484375 1.015625q-0.921875 1.015625 -1.09375 2.84375l6.796875 0q-0.015625 -1.140625 -0.359375 -2.015625q-0.34375 -0.875 -1.046875 -1.359375q-0.703125 -0.484375 -1.8125 -0.484375zm13.3671875 -1.578125q2.296875 0 3.40625 1.03125q1.109375 1.03125 1.109375 3.296875l0 8.734373l-1.40625 0l-0.375 -1.90625l-0.09375 0q-0.546875 0.703125 -1.140625 1.1875q-0.578125 0.46875 -1.34375 0.71875q-0.765625 0.234375 -1.875 0.234375q-1.171875 0 -2.09375 -0.40625q-0.90625 -0.421875 -1.421875 -1.25q-0.515625 -0.828125 -0.515625 -2.109375q0 -1.9218731 1.515625 -2.953123q1.53125 -1.03125 4.640625 -1.125l2.21875 -0.09375l0 -0.78125q0 -1.671875 -0.71875 -2.328125q-0.71875 -0.671875 -2.015625 -0.671875q-1.0 0 -1.921875 0.296875q-0.90625 0.28125 -1.734375 0.6875l-0.59375 -1.484375q0.859375 -0.4375 1.984375 -0.75q1.125 -0.328125 2.375 -0.328125zm2.59375 6.734375l-1.953125 0.078125q-2.40625 0.09375 -3.390625 0.796875q-0.984375 0.6874981 -0.984375 1.9531231q0 1.09375 0.671875 1.625q0.671875 0.53125 1.765625 0.53125q1.71875 0 2.796875 -0.953125q1.09375 -0.953125 1.09375 -2.84375l0 -1.1874981zm10.0859375 4.968748q0.484375 0 0.984375 -0.078125q0.5 -0.09375 0.8125 -0.203125l0 1.515625q-0.328125 0.15625 -0.9375 0.25q-0.609375 0.109375 -1.171875 0.109375q-1.03125 0 -1.859375 -0.359375q-0.828125 -0.359375 -1.328125 -1.203125q-0.5 -0.859375 -0.5 -2.375l0 -7.624998l-1.828125 0l0 -0.9375l1.84375 -0.765625l0.765625 -2.796875l1.171875 0l0 2.984375l3.765625 0l0 1.515625l-3.765625 0l0 7.562498q0 1.203125 0.5625 1.8125q0.5625 0.59375 1.484375 0.59375zm18.351562 -11.718748q2.125 0 3.203125 1.109375q1.078125 1.109375 1.078125 3.546875l0 8.421873l-1.921875 0l0 -8.328123q0 -1.546875 -0.6875 -2.328125q-0.671875 -0.78125 -1.984375 -0.78125q-1.875 0 -2.71875 1.078125q-0.84375 1.078125 -0.84375 3.171875l0 7.187498l-1.921875 0l0 -8.328123q0 -1.03125 -0.3125 -1.71875q-0.296875 -0.703125 -0.890625 -1.046875q-0.578125 -0.34375 -1.484375 -0.34375q-1.28125 0 -2.0625 0.53125q-0.765625 0.515625 -1.109375 1.5625q-0.34375 1.03125 -0.34375 2.546875l0 6.796873l-1.953125 0l0 -12.843748l1.578125 0l0.296875 1.8125l0.09375 0q0.390625 -0.671875 0.96875 -1.125q0.59375 -0.453125 1.3125 -0.6875q0.734375 -0.234375 1.5625 -0.234375q1.453125 0 2.4375 0.546875q1.0 0.546875 1.453125 1.65625l0.09375 0q0.640625 -1.109375 1.734375 -1.65625q1.109375 -0.546875 2.421875 -0.546875zm13.21875 0q1.640625 0 2.8125 0.734375q1.171875 0.71875 1.78125 2.03125q0.625 1.296875 0.625 3.046875l0 1.203125l-8.859375 0q0.03125 2.265623 1.109375 3.453123q1.09375 1.171875 3.078125 1.171875q1.21875 0 2.15625 -0.21875q0.9375 -0.21875 1.953125 -0.65625l0 1.71875q-0.984375 0.421875 -1.9375 0.625q-0.953125 0.203125 -2.25 0.203125q-1.859375 0 -3.234375 -0.75q-1.375 -0.765625 -2.140625 -2.21875q-0.75 -1.46875 -0.75 -3.593748q0 -2.078125 0.6875 -3.59375q0.703125 -1.515625 1.96875 -2.328125q1.28125 -0.828125 3.0 -0.828125zm-0.03125 1.59375q-1.546875 0 -2.484375 1.015625q-0.921875 1.015625 -1.09375 2.84375l6.796875 0q-0.015625 -1.140625 -0.359375 -2.015625q-0.34375 -0.875 -1.046875 -1.359375q-0.703125 -0.484375 -1.8125 -0.484375zm14.6484375 -1.59375q2.28125 0 3.453125 1.125q1.171875 1.109375 1.171875 3.578125l0 8.374998l-1.921875 0l0 -8.234373q0 -1.609375 -0.734375 -2.40625q-0.734375 -0.796875 -2.25 -0.796875q-2.125 0 -3.0 1.203125q-0.859375 1.203125 -0.859375 3.5l0 6.734373l-1.953125 0l0 -12.843748l1.578125 0l0.296875 1.84375l0.09375 0q0.421875 -0.671875 1.046875 -1.125q0.640625 -0.46875 1.421875 -0.703125q0.78125 -0.25 1.65625 -0.25zm12.78125 11.718748q0.484375 0 0.984375 -0.078125q0.5 -0.09375 0.8125 -0.203125l0 1.515625q-0.328125 0.15625 -0.9375 0.25q-0.609375 0.109375 -1.171875 0.109375q-1.03125 0 -1.859375 -0.359375q-0.828125 -0.359375 -1.328125 -1.203125q-0.5 -0.859375 -0.5 -2.375l0 -7.624998l-1.828125 0l0 -0.9375l1.84375 -0.765625l0.765625 -2.796875l1.171875 0l0 2.984375l3.765625 0l0 1.515625l-3.765625 0l0 7.562498q0 1.203125 0.5625 1.8125q0.5625 0.59375 1.484375 0.59375zm18.460938 1.359375l-5.75 -15.171873l-0.09375 0q0.046875 0.484375 0.078125 1.1875q0.046875 0.6875 0.0625 1.5q0.03125 0.8125 0.03125 1.65625l0 10.828123l-1.859375 0l0 -17.140623l2.953125 0l5.421875 14.249998l0.09375 0l5.5 -14.249998l2.9375 0l0 17.140623l-1.96875 0l0 -10.968748q0 -0.765625 0.015625 -1.53125q0.03125 -0.765625 0.0625 -1.453125q0.03125 -0.6875 0.0625 -1.1875l-0.09375 0l-5.8125 15.140623l-1.640625 0zm24.835938 -6.453123q0 1.5937481 -0.40625 2.843748q-0.40625 1.234375 -1.1875 2.09375q-0.765625 0.84375 -1.875 1.296875q-1.09375 0.453125 -2.46875 0.453125q-1.296875 0 -2.375 -0.453125q-1.0625 -0.453125 -1.84375 -1.296875q-0.78125 -0.859375 -1.203125 -2.09375q-0.421875 -1.25 -0.421875 -2.843748q0 -2.109375 0.703125 -3.578125q0.71875 -1.484375 2.046875 -2.265625q1.328125 -0.78125 3.171875 -0.78125q1.765625 0 3.078125 0.78125q1.3125 0.78125 2.046875 2.265625q0.734375 1.484375 0.734375 3.578125zm-9.765625 0q0 1.5468731 0.40625 2.687498q0.40625 1.140625 1.265625 1.765625q0.859375 0.609375 2.203125 0.609375q1.328125 0 2.1875 -0.609375q0.875 -0.625 1.28125 -1.765625q0.40625 -1.140625 0.40625 -2.687498q0 -1.53125 -0.40625 -2.640625q-0.40625 -1.125 -1.265625 -1.734375q-0.859375 -0.609375 -2.21875 -0.609375q-2.0 0 -2.9375 1.328125q-0.921875 1.3125 -0.921875 3.65625zm17.703125 6.687498q-2.4375 0 -3.859375 -1.65625q-1.421875 -1.671875 -1.421875 -4.953123q0 -3.3125 1.453125 -5.0q1.453125 -1.703125 3.859375 -1.703125q1.015625 0 1.78125 0.265625q0.765625 0.265625 1.3125 0.71875q0.546875 0.453125 0.921875 1.03125l0.140625 0q-0.046875 -0.359375 -0.09375 -0.984375q-0.046875 -0.640625 -0.046875 -1.046875l0 -5.140625l1.953125 0l0 18.234373l-1.578125 0l-0.28125 -1.828125l-0.09375 0q-0.359375 0.578125 -0.921875 1.046875q-0.546875 0.46875 -1.3125 0.75q-0.765625 0.265625 -1.8125 0.265625zm0.296875 -1.625q2.0625 0 2.921875 -1.171875q0.859375 -1.171875 0.859375 -3.468748l0 -0.359375q0 -2.453125 -0.8125 -3.765625q-0.8125 -1.3125 -2.96875 -1.3125q-1.78125 0 -2.671875 1.390625q-0.890625 1.375 -0.890625 3.75q0 2.359373 0.875 3.656248q0.890625 1.28125 2.6875 1.28125zm14.761719 -11.687498q1.640625 0 2.8125 0.734375q1.171875 0.71875 1.78125 2.03125q0.625 1.296875 0.625 3.046875l0 1.203125l-8.859375 0q0.03125 2.265623 1.109375 3.453123q1.09375 1.171875 3.078125 1.171875q1.21875 0 2.15625 -0.21875q0.9375 -0.21875 1.953125 -0.65625l0 1.71875q-0.984375 0.421875 -1.9375 0.625q-0.953125 0.203125 -2.25 0.203125q-1.859375 0 -3.234375 -0.75q-1.375 -0.765625 -2.140625 -2.21875q-0.75 -1.46875 -0.75 -3.593748q0 -2.078125 0.6875 -3.59375q0.703125 -1.515625 1.96875 -2.328125q1.28125 -0.828125 3.0 -0.828125zm-0.03125 1.59375q-1.546875 0 -2.484375 1.015625q-0.921875 1.015625 -1.09375 2.84375l6.796875 0q-0.015625 -1.140625 -0.359375 -2.015625q-0.34375 -0.875 -1.046875 -1.359375q-0.703125 -0.484375 -1.8125 -0.484375zm10.5234375 11.484373l-1.96875 0l0 -18.234373l1.96875 0l0 18.234373z" fill-rule="nonzero"/></g></svg>